<?xml version="1.0" encoding="utf-8"?>
<!-- Generator: Adobe Illustrator 18.1.1, SVG Export Plug-In . SVG Version: 6.00 Build 0)  -->
<!DOCTYPE svg PUBLIC "-//W3C//DTD SVG 1.1//EN" "http://www.w3.org/Graphics/SVG/1.1/DTD/svg11.dtd">
<svg version="1.1" id="Layer_1" xmlns="http://www.w3.org/2000/svg" xmlns:xlink="http://www.w3.org/1999/xlink" x="0px" y="0px"
	 viewBox="0 0 81.4 77.5" style="enable-background:new 0 0 81.4 77.5;" xml:space="preserve">
<style type="text/css">
	.st0{fill:#F4ECDF;}
	.st1{fill:#F5EDE0;}
	.st2{fill:#EFE5D6;}
	.st3{fill:#DACCAE;}
	.st4{fill:#F1EADD;}
	.st5{fill:#F9F2E5;}
	.st6{fill:#F8F2E9;}
	.st7{fill:#EAE1CC;}
	.st8{fill:#EDE0C9;}
	.st9{fill:#F4EADB;}
	.st10{fill:#E5D8C0;}
	.st11{fill:#EDE5DA;}
	.st12{fill:#F8F3E5;}
	.st13{fill:#E0D6BF;}
	.st14{fill:#E3D9C6;}
	.st15{fill:#F1E8D7;}
	.st16{fill:#E9DCC8;}
	.st17{fill:#DACEAF;}
	.st18{fill:#F1E6D4;}
	.st19{fill:#EBDFC8;}
	.st20{fill:#EBE0C9;}
	.st21{fill:#F4EADD;}
	.st22{fill:#F2E6D5;}
	.st23{fill:#C9B99B;}
	.st24{fill:#B3A382;}
	.st25{fill:#F4E8D3;}
	.st26{fill:#BDB090;}
	.st27{fill:#B1A184;}
	.st28{fill:#F2E6D1;}
	.st29{fill:#DCD0B2;}
	.st30{fill:#D7C8A8;}
	.st31{fill:#C5B696;}
	.st32{fill:#C3B491;}
	.st33{fill:#B7A486;}
	.st34{fill:#E3D5B9;}
	.st35{fill:#D2C4A8;}
	.st36{fill:#F3E7D3;}
	.st37{fill:#DACBA8;}
	.st38{fill:#F6E9D4;}
	.st39{fill:#F6EDD4;}
	.st40{fill:#F3EBDE;}
	.st41{fill:#C1B490;}
	.st42{fill:#F6EADA;}
	.st43{fill:#E1D7C0;}
	.st44{fill:#D6C8A6;}
	.st45{fill:#D4C4A0;}
	.st46{fill:#E9D8BD;}
	.st47{fill:#9A8970;}
	.st48{fill:#CDBC99;}
	.st49{fill:#E6D7BA;}
	.st50{fill:#E1D5BA;}
	.st51{fill:#BBAC8A;}
	.st52{fill:#F6E6D2;}
	.st53{fill:#DFD0B2;}
	.st54{fill:#E2D7BC;}
	.st55{fill:#DDD1B1;}
	.st56{fill:#ECE2D3;}
	.st57{fill:#CABA9C;}
	.st58{fill:#E2DAC7;}
	.st59{fill:#DED0AF;}
	.st60{fill:#ECE3CB;}
	.st61{fill:#E6DBC5;}
	.st62{fill:#9D8C6E;}
	.st63{fill:#EBE1CC;}
	.st64{fill:#F1E6D6;}
	.st65{fill:#AC9A80;}
	.st66{fill:#CABB99;}
	.st67{fill:#D8CBA9;}
	.st68{fill:#D9CCAE;}
	.st69{fill:#DFD5BB;}
	.st70{fill:#C6B598;}
	.st71{fill:#D2BF99;}
	.st72{fill:#BDAA88;}
	.st73{fill:#B1A17C;}
	.st74{fill:#B6A581;}
	.st75{fill:#BAA987;}
	.st76{fill:#9B8A6B;}
</style>
<g>
	<path class="st0" d="M21.8,56.4c-2,2.8-3.7,3-5.1,0.1c-1.5-2.9-2.8-5.7-6.6-5.7c0.5-1.5,1.7-1.4,2.4-1.9c1.3-1,2.1-1.7,0.7-3.5
		c-1-1.2-2-2.8-2-4.7c0-1.9-1.9-2-3.1-2.7c-1-0.6-2.7,0-2.8-1.8c0.7-0.8,1.6-0.8,2.6-0.6c2.1,1.3,5.1,1.4,5.7,4.6
		c0.2,0.9,1.3,0.4,1.9,0.1c0.3-0.2,0.7-0.3,1-0.4c1.4-0.2,2.9-0.4,4.3,0.4c0.6,1.6,2.5,2.7,2.4,4.5c-0.1,1.9-3.1,0.7-3.6,2.8
		c2.3,0.5,4.6,0.8,6.9-0.2c0.9-0.4,1.8-0.8,2.8-1c1.1-0.2,2.4-0.6,3.1,0.5c0.8,1.4-0.2,2.3-1.2,3.1c-3.6,1.3-7,3.2-11,1.7
		c-0.8-0.3-2.2-0.5-2.5,0.7c-0.3,1,0.6,1.8,1.3,2.5C19.7,55.6,21.1,55.4,21.8,56.4z"/>
	<path class="st1" d="M67.6,54.1c-0.5,0.3-1,0.5-1.5,0.8c-0.1-0.1-0.2-0.2-0.4-0.4c-0.4-1.3-0.8-2.6-2.4-2.8c-1-0.5-1.9-1-2.7-1.8
		c-0.2-0.3-0.3-0.7-0.4-1.1c0-1.9,1.2-2.8,3-3.1c1.2-0.2,1.9,0.3,1.9,1.6c-0.2,0.8-0.5,1.4-1,1.3c0.8,0,1.8-1.3,3.2-1.3
		c1.5,0,2.6-0.6,3.7-1.5c-0.6-0.3-1.2-0.2-1.8-0.3c-0.9-0.1-1.8-0.2-2.5-1.1c4-2.3,7.5-0.2,11,1.5c1.4,0.7,1.4,1.9,0.3,3
		C73.7,48.9,71.1,52.3,67.6,54.1z"/>
	<path class="st2" d="M21.8,56.4c-1.4-0.6-3.8,1.4-4.4-1.8c-0.2-1.1-2.3-1.9-1.3-3.4c1-1.5,3.1-1.2,4-0.7c3.9,2.2,7-1.2,10.6-0.9
		c0.1,0.1,0.2,0.3,0.3,0.4c0,0.3,0,0.7-0.2,1c-1.5,1.6-2.5,3.6-3.6,5.5c-0.3,0.2-0.6,0.2-0.9-0.1C24.8,54.9,23.3,55.7,21.8,56.4z"/>
	<path class="st3" d="M58.6,61.7c-0.8-0.5-1.6-1.1-2.3-1.6c0.1-0.1,0.1-0.3,0.2-0.4c0.8-2.1-1.4-2.4-2.2-3.5
		c-0.7-0.8-1.4-1.6-0.8-2.8c1.6-0.9,2.7,0.5,4,1c2.9,1.6,5.8,3.1,7.9,5.8c0.4,1.6,2.8,3,1.5,4.4c-1.5,1.6-3.4-0.3-4.9-1.1
		C60.7,62.8,59.5,62.5,58.6,61.7z"/>
	<path class="st4" d="M26.3,56.4c0.2,0,0.5,0,0.7,0c2.1,0.4,3.9,0,5.1-2c0.4-0.4,0.9-0.7,1.5-0.7c1.9,0.3,2.3,1.5,2.2,3.2
		C35.5,60,35,63.1,33.4,66c-0.3,0.3-0.7,0.4-1.1,0.1c0-3.2-0.7-6-4.3-7.2C27,58.6,26.4,57.6,26.3,56.4z"/>
	<path class="st5" d="M64.5,60.1c-2.5-1.7-5-3.5-7.5-5.2c-1.4-1.2-1.7-2.1,0.4-2.8c0.8,0,1.5,0.3,2.2,0.5c2.1,0.8,4.6,0.5,6.3,2.2
		l0,0c-0.5,1.1-1.9,0.3-2.5,1.3c1.4,1.6,3.4,2.9,3.2,5.4C65.4,62.1,65.4,60.5,64.5,60.1z"/>
	<path class="st6" d="M32.3,66.1c0.2,0,0.5,0,0.7,0c0.9,0.6,1.2,1.6,1.4,2.6c0.9-1.7,1.2-4.4,4-2c0.7,0.8,1.8,1.3,2.6,2.1
		c0.1,0.1,0.2,0.3,0.2,0.4c-0.1,0.6-0.3,1.4-1,1.2c-2.5-0.9-3.5-0.3-2.9,2.4c0.2,0.8,0.4,1.8-0.7,2.2c-1,0.3-1.6-0.3-2-1.2
		C33.7,71.2,32,69,32.3,66.1z"/>
	<path class="st7" d="M56.3,64.6c2.1,1.9,1.2,4.5,1.2,6.8c0,0.9-1.5,1-2.1,0.4c-1.1-1-1.4-0.1-2,0.4c-0.8-0.4-1-1.2-1.4-2
		c-0.4-0.9-1-1.7-1.6-2.5c-0.4-0.6-0.7-1.2-0.5-2c0.3-0.8,1-1,1.7-0.9c1.9,0.8,3.3,2.3,4.3,3.9c-0.5-1.5-2.2-2.9-1.3-5
		C55.5,63.4,55.9,64.1,56.3,64.6z"/>
	<path class="st4" d="M45.8,30.1c1.1,1.6,2.4,2.7,4.5,2.3c2,1.9,2,1.9,0.5,4.9c1.3,0.7,3.3-0.1,4,1.8c-0.7,0.7-1.6,0.5-2.5,0.3
		c-0.3,0-0.7,0-1-0.1c-1-0.1-2.1-0.1-3-0.6c-0.8-1.4-0.3-3.3-1.8-4.4c-0.9-1.1-1.8-2.3-1-3.9C45.6,30.4,45.7,30.2,45.8,30.1z"/>
	<path class="st8" d="M8.3,36.2c-1,0-2,0-3,0c-1-0.4-1.5-1.2-1.5-2.3c0-1.6,0.1-3.1-0.7-4.5c1.6-1.7,3.6-1.9,5.7-1.5
		c1,0.2,1.3,0,1.2-1c2.5-0.5,4.7-0.3,5.8,2.6c-1.8,1.7-4.1,0.6-6.1,1.3c-4.5,1-4.6,1.2-1.2,5C8.4,35.8,8.4,36,8.3,36.2z"/>
	<path class="st9" d="M56.3,64.6c-0.5-0.2-1-0.5-1.5-0.7c-2.9-1.2-3.8-3.9-4.7-6.5c1.8-0.5,0.1-2.6,1.5-3.3c0.3-0.2,0.7-0.2,1-0.1
		c0.7,0.7,1,1.8,1.9,2.4c0.7,1.2,2.7,1.8,2,3.8c0,0-0.3,0-0.3,0c-0.4,0.2-1.8-1.6-1.2,0.4C55.4,61.9,56.4,63,56.3,64.6z"/>
	<path class="st10" d="M58.6,43.6c2.5,0.3,5.1-0.9,7.5,0.7c-0.1,0.1-0.2,0.3-0.4,0.4c-1.4,0.6-3,0.4-4.2,1.4c-1,0.9-3,1.8-0.7,3.5v0
		c0.4,0.4,0.5,0.9,0.2,1.4c-3.5,0.6-4.9-0.7-4.1-3.8c0.2-0.7,0.5-1.4,0.5-2.1C57.5,44.4,58.1,44,58.6,43.6z"/>
	<path class="st9" d="M64.5,60.1c1.2-0.1,1.5,1,2.3,1.5c-0.4,1.5,5,3,0,4.5c-1.2-0.7-2.7-0.6-3.8-1.5c-1.4-1.2-3.8-0.7-4.5-2.9
		c2.8,0.3,4.9,2.8,8,2.3C66.4,62.4,64.5,61.8,64.5,60.1z"/>
	<path class="st11" d="M67.6,54.1c2.8-3.2,5.7-6.2,10.5-5.2C74.2,49.9,71.9,54,67.6,54.1z"/>
	<path class="st12" d="M58.6,43.6c-0.3,0.5-0.5,1-0.8,1.5c-0.2,0.3-0.6,0.5-0.9,0.6c-1.6,0.1-3-0.3-4.4-1c-1.4-1.5-0.7-2.5,0.6-3.4
		c1.3-0.7,2.7-1.1,4,0.1C57.1,42.5,57.1,43.5,58.6,43.6z"/>
	<path class="st13" d="M52.6,69.9c0.9,0.6,0.7,1.5,0.8,2.3c-0.3,1.7-1,2.6-2.8,1.6c-1.1-0.6-2.2-1.1-3.3-1.7c-1-0.8-2.4-1.2-1.7-2.9
		c1.3-0.8,2.3,0,3.3,0.7C50.2,70.8,51.3,70.5,52.6,69.9z"/>
	<path class="st6" d="M45.8,69.2c-0.1,1.3,1.1,1.9,1.5,3c-1.3-0.1-2.7,0.3-3-1.7c-0.3-1.7-1.8-1.2-2.9-1.3L41.2,69
		c-0.2-0.3-0.3-0.6-0.3-0.9c0.5-1.3,1.4-2.3,2.9-2.4c0.3,0.1,0.6,0.2,0.9,0.4C45.3,67,46.5,67.8,45.8,69.2z"/>
	<path class="st14" d="M66.8,44.3c1,0,2,0,3,0c0.6,2.1-1,2.8-2.2,3.7c-1.5,0.1-2.9,1.2-4.6,0.5c0.5-0.4,1.1-0.9,1.6-1.3
		c0.7-0.9,0.7-2.1,1.5-3c0,0,0,0,0,0C66.3,44.4,66.6,44.4,66.8,44.3z"/>
	<path class="st15" d="M57.1,41.4c-1.3-0.1-2.6,0.1-3.8,0.7c-1.3-1-1.8-2.2-0.7-3.7c0.8,0.2,1.5,0.5,2.3,0.7
		C56.2,39.3,58.1,38.9,57.1,41.4z"/>
	<path class="st5" d="M63.1,64.6c1.5-0.1,2.8,0.3,3.8,1.5C65.4,66.1,63.8,66.3,63.1,64.6z"/>
	<path class="st16" d="M6.8,6.9c0.1,1.9,2.1,1.4,3,2.3C10,9.3,10.1,9.5,10,9.7C10,9.9,10,10,9.9,10c-2,1.6,0.7,2.8,0.3,4.2
		c0,0.5-0.2,0.9-0.7,1.2c-0.5,0.3-1.1,0.3-1.6,0.8c-0.5,1.4-0.1,2.8-0.2,4.1c-1.1,2.4,1.5,2.9,2.3,4.4c-0.2,1-0.8,1.6-1.7,2
		c-1.6,0.1-2.9-0.4-3.8-1.8c-0.9-0.6-2.5-0.2-1.6-2.5c2-5.2,3-10.6,2.5-16.3C5.3,4.9,5.8,3.6,7.2,2.8C7,4.3,6.9,5.6,6.8,6.9z"/>
	<path class="st17" d="M6.1,24c1.3,0.5,2.5,1,3.8,1.5c0.6,0,1.2,0.2,1.5,0.8c0,0.5,1.9,1.5-0.2,1.4c-2.3-0.1-4.4,0.7-6.6,0.8
		C3.2,26.4,4.3,25.1,6.1,24z"/>
	<path class="st18" d="M26.3,48.1c-2.2,1.4-4.5,0.8-6.7,0.1c-0.4-0.1-2,0.4-1.1-0.7c0.6-0.8-1-2.7,1.3-2.4c0.9,0.1,1.7,0,2.5,0
		c2-2.2-4.2-2-1.3-4.5c0.3-0.4,0.8-0.6,1.3-0.5c0-0.5-0.5-0.3-0.7-0.5c-1-0.7-2.3-0.9-3.4-1.4c-0.8-0.3-1.7-0.8-0.7-1.8
		c1.8-0.9,3.7-0.4,5.5-0.6c0.7-0.1,1.4-0.3,2.1-0.3c1.3-0.3,2,1.1,3.2,1.2c1.7,0.7,1.9,2.4,2.6,3.8c0.4,1,0.7,2.1,0,3.1
		c-1.2,0.4-2.5,0.1-2.9,2.1c-0.4,1.7-2.3,1.8-3.9,1.5C24.8,47.6,25.9,47.3,26.3,48.1z"/>
	<path class="st19" d="M17.3,36.9c2.8,0.9,5.5,1.9,8.1,3.7c-1.7,1.2-3-0.5-4.3-0.1c-1.7,0-3.5,0-5.2,0c0-0.1-0.1-0.2-0.1-0.3
		c0-0.6,0.7-0.7,0.7-1c0.1-0.4,0.4-0.1,0,0c-0.6,0.1-1,0.6-0.6,1.3c-0.3,2.3-1.9,0.8-2.9,0.9c-1.2,0.1-0.8-0.9-0.6-1.5
		c0.5-1.4-0.5-1.8-1.4-2.1c-1-0.4-2.2-0.6-2.7-1.7c0,0,0,0,0,0c0.3-0.3,0.6-0.4,1-0.5C11.9,36.6,14.8,35.6,17.3,36.9z"/>
	<path class="st20" d="M26.3,48.1c-0.2,0-0.5,0-0.7,0c-1.4-0.2-3.9,0.6-3.8-1c0.1-2.3,2.3-0.5,3.6-0.5c1.3,0,2.5-0.6,2.5-1.7
		c0-3.2,1.6-1.9,3-1.3c1.2,0.1,2.1,0.8,2.7,1.8c0.4,0.9,0.5,1.9,0.2,2.9c-0.6,1.2-1.3,2.2-2.8,1.3c0,0-0.1-0.1-0.1-0.1
		c0.3-0.9,1.8-1.5,1.1-2.5c-0.7-1-1.8,0-2.7,0.2C28.2,47.5,27.3,47.9,26.3,48.1z"/>
	<path class="st4" d="M36.8,16.6c2.7-0.8,5.8,1,6,3.6c0.1,2.8-0.3,5.7,3.1,7.2c1.2,0.5-0.3,1.8-0.1,2.7l0,0
		c-0.2,0.2-0.5,0.4-0.8,0.6c-1.7,0.2-3.6-0.1-5,1.3c-0.3,0.1-0.6,0.2-1,0.3c-2.4,0-1.4-3.2-3.4-3.7c-1.2-0.8-1.3-2.6-2.8-3.1
		c-1.1,0-1.7,0.8-2.5,1.4c-0.7,0.5-1.6,1-2.3,0.3c-0.7-0.7,0-1.6,0.4-2.3c0.6-1.1,1.4-2,2.5-2.6c0.8-0.4,1.7-0.5,2.5-0.6
		c4.1,0.8,2.2-3,3.4-4.5C36.7,16.9,36.8,16.8,36.8,16.6z"/>
	<path class="st21" d="M41.3,9.1c-0.6,2.2-2.4,1.7-3.8,1.6c-0.9-0.1-1.5-1.2-2.2,0.5c-0.7,1.6-2.2,2.9-1.2,4.8
		c0.5,1,1.8,0.6,2.7,0.7l0,0c-0.6,1.7-1.7,2.8-3.7,2.5c-0.6-0.4-0.8-1-0.9-1.6c-0.1-0.2,0-0.7-0.5-0.2c-0.4,0.8-0.8,1.5-1.2,2.2
		c-0.6,0.8-0.8,2.1-2.2,1.7c-3.6-5.1-3.5-7.5,0.7-10.1c0.3-0.1,0.6-0.1,1,0c0.4,0.1,0.8,0.7,1.3,0.1c0.2-0.5,0.2-1.1,0.4-1.6
		c0.9-1.1,2.1-1.8,2.9-2.9c0.3-0.1,0.6-0.2,1-0.1C37.4,7.7,39.3,8.5,41.3,9.1z"/>
	<path class="st22" d="M66.1,44.4c0.9,1.7-0.4,2.3-1.5,3c-2.3-1.4-3.1-0.9-3.8,2.3c-2.6,0.2-1.8-1.5-1.2-2.6
		C61,44.5,63.5,44.2,66.1,44.4z"/>
	<path class="st11" d="M66.1,54.9c-2.4,0-4.6-0.6-6.7-1.5c0.8-1.2,2.7-0.6,3.4-1.9c0.1-0.1,0.2-0.2,0.3-0.3
		C66.5,50.4,66.8,52.3,66.1,54.9z"/>
	<path class="st22" d="M67.6,48.1c0.7-1.2,1.5-2.5,2.2-3.7c1.4,0.4,2.8,0.8,4.1,1.2C71.6,46,70,48.3,67.6,48.1z"/>
	<path class="st22" d="M60.9,51.1c0-0.5,0-1,0-1.5c1.1,0,1.8,0.5,2.3,1.5l0,0C62.3,51.7,61.6,51.8,60.9,51.1z"/>
	<path class="st23" d="M32.4,54.9c-1,3.2-2.8,3.7-5.3,1.5c0.1-2.7,1.5-4.7,3.7-6.1C33,51.2,32.3,53.2,32.4,54.9z"/>
	<path class="st24" d="M32.4,54.9c-1.4-1.2-0.4-3.3-1.6-4.6c0-0.2,0.1-0.4,0.1-0.7c1-0.1,1.7-0.7,2.2-1.4c2.5,0.6,1.4,2.5,1.5,4
		c-0.2,0.9-0.8,1.4-1.5,1.9C32.9,54.4,32.6,54.6,32.4,54.9z"/>
	<path class="st25" d="M57.8,52.6c-2,0.2-1,1.3-0.7,2.3c-1.2-0.5-2.4-1.1-3.7-1.6c-0.2,0-0.3-0.1-0.5-0.1c-0.8-0.5-1.1-1.3-1.2-2.1
		c-0.2-1,0.1-1.8,1.3-1.9C54.9,49.9,57.3,49.9,57.8,52.6z"/>
	<path class="st26" d="M56.5,60.1c-0.4-1.6-2.4-1.9-2.6-3.6c0.1-0.5,0.6-0.6,0.9-0.8c1,0.9,2.2,1.6,3,2.7C59.2,60,57.7,60,56.5,60.1
		z"/>
	<path class="st27" d="M54.8,55.7c-0.3,0.3-0.6,0.5-0.9,0.8c-0.8-0.6-1.3-1.3-1.5-2.3c-0.1-0.7,0.2-1,0.9-0.9l0,0
		C53.9,54.1,54.3,54.9,54.8,55.7z"/>
	<path class="st28" d="M33.1,54.1c0.2-0.5,0.5-1,0.7-1.5c0.5-0.5,0.2-1.4,0.9-1.7c2.7,0,2.9,3.6,5.4,3.9c2-2.8,3.7-1,5.4,0.4
		c0.5,0.5,0.9,1.1,1.2,1.8c0.5,1.3,1.3,2.3,1.9,3.5c0.6,1.3,0.6,2.3-1.2,2.5c-0.9,0-1.8-0.3-2.7-0.4c-1.9-0.5-3.9-1-5.4-2.4
		c-0.5-0.4-0.8-1.1-1.4-1c-0.8,0.2-0.6,1-0.5,1.5c0.1,1.2,0.5,2.4,0.9,3.5c0.4,1.1,1.1,2.2,0.1,3.4c-0.7-0.2-1-1.6-1.8-1
		c-1.5,1-1.4,2.7-0.7,5c-2.5-1.6-2.6-3.5-2.8-5.4c0.6-3.2,1.1-6.3,1.8-9.5C35.3,54.9,34.7,54.3,33.1,54.1z"/>
	<path class="st29" d="M57.8,52.6c-1.4-1.6-3.5-2-5.2-3c-0.5-0.4-0.5-0.9-0.4-1.5c1-2,3.2-2,4.9-3c0.2,0,0.5,0,0.7,0
		c0.6,0.1,1.4,0.3,0.8,1.1c-2.5,3.2-0.8,4.4,2.3,4.9c0.7,0,1.5,0,2.2,0.1c0.5,3.7-2.4,1.6-3.7,2.2C58.8,53.1,58.3,52.9,57.8,52.6z"
		/>
	<path class="st30" d="M38.4,67.6c0.3-2.1-1.4-3.5-1.9-5.5c-0.4-2-0.1-3.5,0.7-5.5c1,1.2,1.7,2.1,2.5,3c-0.2,0.8,0.3,1.5,0.4,2.2
		c0.6,2.1,2.1,4.1,1.1,6.5c0,0.3,0,0.5,0.1,0.8C40.1,69,39.1,68.6,38.4,67.6z"/>
	<path class="st31" d="M45.8,57.1c-0.3-0.5-0.5-1-0.8-1.5c-0.2-0.7,0.2-0.9,0.7-1.2c0.7-0.1,1.4,0,2.1,0.2c1.2,0.5,2.3,0.9,2.5,2.4
		c1.5,2.2,3,4.5,4.6,6.7c0,1.9,2.2,3.3,1.2,5.4c-1.4-1.3-2.9-2.6-4.3-3.8c-1.4-0.7-2.6-1-2.5-3.3C49.3,60.2,47,58.8,45.8,57.1z"/>
	<path class="st32" d="M45.8,69.2c-0.5-1-1-2-1.6-2.9c2.7-1.5,4.5,1.3,6.8,1.4c1,0.4,1.4,1.2,1.5,2.2c-0.5,2.5-1.7,2.7-3.6,1.2
		C48,70.4,46.8,69.8,45.8,69.2z"/>
	<path class="st33" d="M51.1,67.6c-1.5,0.9-2.7,0.8-3.3-0.3c-0.8-1.6-2.8,0.6-3.6-1.1c0,0,0,0,0,0c-0.2-0.3-0.3-0.6-0.3-0.9
		c0.3-1.2,0.5-2.5,1.1-3.6c0.7,0.3,1.4,0.5,2.2,0.8c1.4,0.9,2.5,2.1,3.1,3.7C50.6,66.6,50.8,67.1,51.1,67.6z"/>
	<path class="st34" d="M50.3,66.1c-1.3-1-2.7-1.9-3.1-3.7c0.7-0.2,1.4-0.2,0.8-1.3c-0.8-1.3-2.1-2.3-2.2-4c1.7,1.8,4.9,2.6,4.1,6.2
		c-0.1,0.5,1.2,1.4,1.8,2.1C51.1,65.4,50.6,65.6,50.3,66.1z"/>
	<path class="st20" d="M52.6,48.1c0,0.5,0,1,0,1.5c-0.8,0.5-0.1,1,0,1.6c-0.7,0.6,0.1,1.8-0.8,2.4c-1.5-0.2-1.7-1.5-1.7-2.5
		c0.1-2.6-1.4-5.1-1-7.7c0-0.3-0.2,0-0.2,0c-1.8,1-2.8,0.1-3.5-1.4c-0.3-0.7-0.5-1.9-1.6-1.1c-1.4,1-2.7,0.8-4.1,0.2
		c-0.7-0.3-1.3-0.7-1.7-1.4c-0.5-1.4-0.1-2.6,0.7-3.7c0.3-0.2,0.6-0.4,0.9-0.5c1.3-0.3,2.5,0.3,3.9,0.6c-1.3-1.8-3.5-2.3-3.8-4.5
		c1-3.1,3.4-1.3,5.2-1.5c0.6,1.3-0.2,3.5,2.3,3.7c0.5,1.5,3.5,2.5,0.7,4.5c1.2,2.2,2.4,1.5,3.7,0.1c0.3,0,0.5,0,0.8-0.1
		c0.2,1.2,0.5,2.5,0.7,3.7c-1.2,0.4-1.4,1.2-0.7,2.2C53.9,45.6,52.8,46.9,52.6,48.1z"/>
	<path class="st35" d="M51.8,38.4c-0.2,1.1,0.8,3.2-1.8,2.4c-1.1-0.3-3.7,0.2-1.9-2.4C49.3,38.4,50.5,38.4,51.8,38.4z"/>
	<path class="st36" d="M47.3,33.9c-3.9,0.6-2.2-2.1-2.3-3.7c0.2,0,0.5,0,0.8,0C45.6,31.7,46.1,32.9,47.3,33.9z"/>
	<path class="st37" d="M9.1,36.1l-0.4,0c0,0-0.4,0-0.4,0c-0.2-0.2-0.3-0.4-0.5-0.5c-2-0.5-3.4-1.9-3-3.9c0.4-2.3,2.7-1.4,4.3-1.6
		c1.5-0.9,2.9,0.2,4.4,0.1c1.2,0.4,2.6,0.4,3.3,1.7c-0.3,1.8-1.3,2.7-3.1,2.3C11.7,33.9,10.4,34.9,9.1,36.1z"/>
	<path class="st38" d="M9.8,27.1c-0.6,0-1.2-0.2-1.5-0.8c0.5-0.5,1-1,1.5-1.5c0.4-0.4,0.9-0.6,1.5-0.6c2.7,0.7,5.2,1.9,7.3,3.7
		c0.6,0.7,1.3,1.5,1.9,2.2c0.7,0.8,1.9,1.6,1.1,2.8c-0.6,1-1.8,0.4-2.8,0.3c-0.5-0.1-1-0.3-1.4-0.5c-0.7-0.9-1.1-2-1.6-3
		c0-0.2,0-0.3,0-0.5C13.9,28.3,12.1,27.1,9.8,27.1z"/>
	<path class="st39" d="M15.1,30.1c-1.5-0.3-3-0.5-4.4-0.8c2.1-1.5,4.5-0.4,6.7-0.7l0,0C17.5,30.3,16.3,30.2,15.1,30.1z"/>
	<path class="st40" d="M38.3,39.9c0.6,0,1.2,0.2,1.5,0.8c1.4,0.3,2.9,2.5,4.3-0.3c0.3-0.5,1.9-0.6,1.7,1c0.4,0.5,0.7,1.3,1.1,1.4
		c4,0.6,3.6,3.6,3.9,6.4c0.1,1.4-0.2,3,1,4.2c0.3,0.1,0.4,0.3,0.3,0.5c-0.1,0.2-0.1,0.3-0.2,0.3c-0.5,1,0.4,2.8-1.6,3
		c-0.9-0.6-1.8-1.1-2.8-1.7c-1-1,2.4-0.9,0.5-1.9c-2.9-1.4-5-4-8.2-4.9c-2.2-1.2-4-2.6-3-5.6c0.4-0.9,0.6-2,1.1-2.9
		C38.1,40.1,38.2,40,38.3,39.9z"/>
	<path class="st3" d="M51.8,54.1c0-0.2,0-0.5-0.1-0.7c0.1-0.8-0.1-1.7,0.8-2.2c0.3,0.7,0.5,1.4,0.8,2.1c-0.3,0.3-0.6,0.6-0.9,0.9
		C52.2,54.2,52,54.1,51.8,54.1z"/>
	<path class="st15" d="M52.6,48.1c-1.3-1.3,0.5-2.5,0-3.8c1.5,0.3,3,0.5,4.5,0.8C56.1,46.9,54.1,47.1,52.6,48.1z"/>
	<path class="st41" d="M44.3,65.3c0,0.3-0.1,0.6-0.1,0.9c-1.4,0-2,1.5-3,2c0-2.4-1.8-4.3-2-6.7C42.1,61.2,43.8,62.4,44.3,65.3z"/>
	<path class="st42" d="M9.8,9.9c0-0.3,0-0.5,0-0.8c2.1-0.2,2.6,2.5,4.7,2.7c0.6-1-1.7-2.3,0.2-3.1c1.6-0.6,3.2-0.7,4.2,1.2
		c-1.1,2.8,2.2,3.5,2.8,5.5c1.1,1.3,2.2,2.6,3.1,4c0.9,1.6,2.6,3,2.1,5.1c-0.1,0.3-0.4,0.6-0.7,0.8c-0.7,0.3-1.4,0.3-2.1,0.1
		c-1.2-0.5-2.2-1.2-2.8-2.4c-1-2.2-2.9-3.8-4.2-5.8c-0.6-0.6-1.1-1.2-1.8-1.8C13.8,13.2,9.9,13.4,9.8,9.9z"/>
	<path class="st43" d="M22.6,15.1c-1.2-1.5-2.6-2.9-3.7-4.6c-1.6-2.5,0.5-1.4,1.5-1.4c0.7,0.8,1.5,1.5,2.2,2.3
		c0.3,0.7,0.5,1.5,0.8,2.2C23.4,14.2,23.3,14.7,22.6,15.1z"/>
	<path class="st44" d="M17.3,16.6c1.7,1.8,3.7,3.5,4.5,6c-0.2,0.3-0.5,0.4-0.9,0.3c-2.1-0.8-3.8-2.6-6.2-2.9
		c-2.6-1.1-3.7-3.4-4.9-5.7c-0.6-1-1.3-2-1.7-3.2c-0.9-2.7,1-1,1.7-1.2c1.3,2.6,4.8,2.5,6.1,5.1C16.1,15.8,16.4,16.5,17.3,16.6z"/>
	<path class="st45" d="M11.3,24.9c-0.5,0-1,0-1.5,0c-2.2-0.7-4.3-1.5-3-4.5c0.3-0.2,0.6-0.2,0.9,0c2,0.9,3.4-0.9,5.1-1
		c1.7,0.3,2.9,2.2,4.8,1.9c1.1,0.2,2,0.6,2.2,1.9c-0.1,0.5-0.3,1-0.7,1.4c-1.7,1.6-3.5,1.9-5.5,0.7C13,24.9,12.2,24.2,11.3,24.9z"/>
	<path class="st46" d="M17.3,21.9c-2.5,1.3-2.7-2.1-4.6-2.2c-1,0.2-1.4-0.7-2-1.2c-0.7-1.1-2.2-1.7-1.7-3.4c0.3-0.3,0.5-0.5,0.8-0.8
		c2.4,1.1,2.9,4.1,5.3,5.3C16.7,19.5,16.9,20.8,17.3,21.9z"/>
	<path class="st47" d="M9.1,15.1c0.7,1,1.5,2,2.2,3c-0.7,2.4-2,1.1-3.1,0.5c-0.6-0.6-0.6-1.4-0.9-2.2c0-0.7-0.4-1.6,0.6-2
		C8.2,14.7,8.7,14.9,9.1,15.1z"/>
	<path class="st46" d="M7.8,14.4c-0.1,0.7-0.1,1.4-0.2,2.1C8,17.7,8.4,18.8,8,19.9c-0.1,0.1-0.3,0.3-0.4,0.4c-0.2,0-0.5,0-0.7,0
		C7.3,18.4,5.8,16.1,7.8,14.4z"/>
	<path class="st48" d="M17.4,32.3c0.5,0.1,1,0.1,1.4,0.2c0.8,1.5,3.9,0.5,3.6,3.2c-1,0.3-2.1-0.1-3.1,0.2c-0.1,0.3,0,0,0.2,0
		c1.2-0.1,2.4,0,3.6-0.1c0.6,0.2,1,0.4,0.9,1.2c-2.2,0-4.4,0.1-6.6,0.1c-2.8,0.6-5.6,0.8-8.3-0.8c0-2.8,2.1-3.4,3.9-2.8
		c1.8,0.6,2.4-0.7,3.6-1C16.8,32,17.1,32,17.4,32.3z"/>
	<path class="st49" d="M24,36.8c-0.2-0.2-0.5-0.5-0.7-0.7c-0.3-0.2-0.5-0.5-0.6-0.8c-1.3-1-3.1-1.2-3.9-2.9c0.8,0.1,1.6,0.3,2.8,0.5
		c-1.3-1.7-2.4-3-3.5-4.4c0.3-0.2,0.6-0.4,0.9-0.4c1,0.1,1.8,0.8,2.5,1.5c0.3,0.2,0.5,0.6,0.8,0.6c0.2,0,0.3-0.3,0.1-0.6
		c-0.6-1.4-1.5-2.5-2.6-3.5c-0.5-0.6-1.4-1-1.1-2.1c0.3-0.3,0.6-0.5,0.8-0.8c0.3-0.2,0.6-0.3,1-0.2c1.2,0.9,2.7,1.6,3.6,2.9
		c0.9,1.3,2.1,2.5,2,4.3c-0.4,1.9,1.1,4-0.5,5.8C25.1,36.3,24.5,36.6,24,36.8z"/>
	<path class="st50" d="M39.1,36.1c-0.3,1.2-0.5,2.5-0.8,3.7l0,0c-0.6,0.7-0.8,1.8-1.6,2.4c-0.3,0.4-0.7,0.7-1,1
		c-0.7,0.6-1.3,1.3-2.2,1.7c-0.2,0-0.3,0-0.5,0.1c-1.1,0-1.8-0.5-2.3-1.5c-0.2-1-0.5-2-0.7-3.1c0.4-0.8,0.9-1.1,1.7-0.8
		c2,1.6,2.6,0.2,3.4-1.4c0.7-1.6,0-3.8,2.2-4.7C38.4,34.2,38.8,35.1,39.1,36.1z"/>
	<path class="st51" d="M31.5,39.8c-0.5,0.2-0.9,0.5-1.4,0.7c-0.9-1.2-0.7-3-2.2-3.8c-0.5-0.4-0.7-0.9-0.7-1.5
		c0.3-1.2,0.6-2.4,2.3-2.1C31.3,35,33.1,36.9,31.5,39.8z"/>
	<path class="st52" d="M27.7,35.4c0.1,0.5,0.1,0.9,0.2,1.4c-1.1,0.9-1.4-1.1-2.3-0.6c0.6-2-1.5-4-0.1-6c0.7,0.3,1,0.9,1.3,1.4
		C27.7,32.7,27.6,34.1,27.7,35.4z"/>
	<path class="st53" d="M15.8,40.6c-0.9-0.1-1.4-0.5-0.5-1.3c1.4-1.3,3-1.1,4.8-0.5C18.9,40.6,16.8,39.1,15.8,40.6
		C15.8,40.6,15.8,40.6,15.8,40.6z"/>
	<path class="st54" d="M35.3,42.9c0.2-0.2,0.5-0.5,0.7-0.7c0.8-0.4,1.2,0.1,1.5,0.8c-1.4,2.7,1.1,3.7,2.2,5.3c1.5,0.5,3.3,0.6,3.4,3
		c0,1.6,2.7,1.7,2.6,3.7c-0.3,0.3-0.5,0.6-0.8,0.9c-1.1-0.6-2.1-1.2-3.1-1.8c-1.3,0.4,0.6,1.9-0.8,2.2c-0.1,0-0.2-0.1-0.3-0.2
		c-0.1-0.1-0.1-0.2-0.2-0.3c-1.6-0.7-2.3-2.1-2.9-3.6c-0.5-1.2-0.4-2.6-1.5-3.6c-0.6,0.5-0.3,1.1-0.5,1.7c-0.2,0.6-0.6,0.8-1.1,1.1
		c-0.2,0.5-0.5,1-0.7,1.5c-0.3-1.5,0.7-3.1-0.7-4.4c0-1,0-2.1,0-3.1l0,0C34,44.6,34.8,43.8,35.3,42.9z"/>
	<path class="st36" d="M31.5,39.8c0.2-2.5-1.6-4.4-2.2-6.6c-0.6-1.9-2.5-3.1-2.9-5.1c-0.3-1.1-0.9-2.1,0-3.2l0,0
		c0.5-0.4,0.7-0.9,1-1.4c0.4-0.8,0.4-1.8,1.3-2.3c0.5-0.7,1-1.5,1.5-2.2c1.2,0.8,1.3,2,0.9,3.3c0,0.2-0.1,0.3-0.1,0.5
		c-0.8,1.3-1.7,2.6-2.8,4.3c2.4-0.2,2.8-3.3,5.1-2.8c0.2,0.2,0.4,0.5,0.4,0.6c-1.9,3-0.2,5.3,1.5,7.5c0.8-1.2-0.2-3.1,1-4.4
		c2.6-0.1,1.3,3.1,3.1,3.7c0.3,0.7,0,1.2-0.4,1.7c-0.3,0.3-0.7,0.6-1.2,0.5c-0.6,2-1.1,3.9-1.8,5.9c-0.4,1-0.8,2.4-1.9,2.5
		C32.6,42.2,31.7,41.1,31.5,39.8z"/>
	<path class="st55" d="M36,27.9c0.8,2.6,0.7,5-2,7.2c-0.2-2.6,0-5.2-3.3-5.7c-0.7-0.1-1.2-1.5,0.5-2c1.5-0.4,1.9-1.8,1.9-3.3
		C35.3,24.5,34.5,27.1,36,27.9z"/>
	<path class="st56" d="M33.1,18.9c1.6-0.2,2.6-1.3,3.8-2.2c1.2,1.2,0.8,3,1,4.2c0.5,3.1-3,0.2-4,1.8c-0.6-0.6-1.6-0.7-1.8-1.6
		C32,20.1,32.3,19.3,33.1,18.9z"/>
	<path class="st57" d="M38.2,33c0.3-0.5,0.6-0.9,0.9-1.4c0.2,0,0.5,0,0.7,0c2.1,0.8,2.9,3.3,5.1,3.9c0.7,0.2,0.9,0.9,0.6,1.5
		c-0.3,0.6-1,0.6-1.6,0.4c-1.4-0.5-2.8-0.9-4.2-1.4C38.9,35.2,38.6,34.1,38.2,33z"/>
	<path class="st58" d="M39.9,24c1.3,0.2,2.3,0.8,2.6,2.2c0,0.2-0.4,0.7-0.7,0.7c-1.8,0.4-2.7-0.8-3.5-2.1
		C38.3,23.4,39.1,23.6,39.9,24z"/>
	<path class="st36" d="M33.9,20.3c0.5,0.5,1,1,1.5,1.5c-1,0-2,0-3,0l0,0C32.2,20.6,32.7,20.1,33.9,20.3z"/>
	<path class="st36" d="M39.9,24c-0.6,0-1.2,0.2-1.5,0.8c-0.8-0.5-0.7-1.2,0-1.7C39.2,22.6,39.6,23.4,39.9,24z"/>
	<path class="st59" d="M24.9,12.8c0.1-2.5-0.4-5,0.5-7.4c0.4-1,0.1-2.4,1.5-2.8c1.5-0.3,1.5,1.4,2.4,2c2.1,1.1,3.1,2.8,3,5.2
		c0,0.7,0,1.5,0,2.2c-1.1,0.9-1.7,0-2.2-0.7l0,0c-1.2-0.5-2-0.1-2.8,0.9C26.6,13,25.9,13.8,24.9,12.8z"/>
	<path class="st60" d="M24.9,12.8c0.8,0,1.6-0.2,1.9-1c0.8-2.6,2-1.9,3.4-0.5c-3.4,1.4-4,3.8-2.5,7c0.4,0.9,0.7,1.8,1,2.7
		c-0.1,1,0.3,2.2-0.7,3c-1.1-1.3-1.8-2.9-2.8-4.2c-0.8-1.5-2.1-2.8-1.8-4.7C24.8,15,24.8,13.9,24.9,12.8z"/>
	<path class="st61" d="M32.3,21.1c-0.5,0.5-1,1-1.5,1.5c-1-1.1-0.1-2.6-0.7-3.7c0.5-0.8,1-1.5,1.5-2.3c0.5-0.4,1-0.4,1.5,0
		c0,0.7,0,1.5,0,2.2C32.8,19.6,32.6,20.4,32.3,21.1z"/>
	<path class="st56" d="M34.6,15.8c-0.5,0-1,0-1.5,0c0.1-0.7,0.1-1.6,1.1-1.6C34.4,14.2,34.5,15.2,34.6,15.8z"/>
	<path class="st62" d="M44.3,65.3c-1.4-1.7-3-3.1-5.2-3.8c-0.1-0.7-0.4-1.6,0.6-2c1.5,1.3,3.5,1.6,5.3,2.2
		C45.8,63.1,45.3,64.3,44.3,65.3z"/>
	<path class="st20" d="M38.3,51.9c0.7,1.3,1.5,2.5,2.2,3.8c-1.8,1-2.5-0.6-3.2-1.5c-0.8-1-1.4-2.4-2.7-2.9c0.2-0.3,0.5-0.5,0.7-0.8
		C37.2,49.2,37.4,51.2,38.3,51.9z"/>
	<path class="st63" d="M45.8,54.8c-1.4-1.6-4.9-1.7-3.7-5.2c0.1-0.2-1.5-1-2.3-1.5c4.3,0.4,6.8,3.6,10,5.7c-0.4,1.7-2,0.7-2.4,1.7
		C46.9,55.2,46.4,55,45.8,54.8z"/>
	<path class="st64" d="M45.8,41.4c-0.4-0.6-1-1-1.5-0.5c-0.7,0.7,0.8,1.1,0.3,2.1c-2,0.3-3.4-1.1-4.8-2.4c1.4,0,2.6,0.4,4-1
		C44.9,38.5,46.6,39,45.8,41.4z"/>
	<path class="st65" d="M38.2,33c1.9,0.3,1.6,1.7,1.5,3c-0.2,0-0.4,0.1-0.7,0.1c-1.5-0.1-1.5-1.2-1.6-2.3C37.7,33.6,38,33.3,38.2,33z
		"/>
	<path class="st8" d="M17.4,32.3c-0.2,0-0.5,0-0.7,0.1c-1-0.5-2-0.9-3.1-1.4c0.8-0.5,1.5-1,2.3-1.5C17.1,29.9,17.4,31,17.4,32.3z"/>
	<path class="st66" d="M20.4,27.7c-0.2,0-0.5,0-0.7,0c-2.3-1.2-4.5-2.5-6.8-3.7c-0.8-2.3,0.7-1.2,1.4-0.8c2.1,1.3,4,1.6,6.1,0.1
		c0.5,0.5,1.1,0.9,1.6,1.4C19.8,24.9,21.4,27,20.4,27.7z"/>
	<path class="st20" d="M37.6,42.9c-0.5-0.3-1-0.5-1.5-0.8c0.5-1,1.2-1.8,2.3-2.2C38.2,40.9,38.6,42.1,37.6,42.9z"/>
	<path class="st67" d="M24.9,14.3c1.2,1.3,1.6,3,2.3,4.5c-0.5,0.5-1,0.4-1.5,0c-1-1.2-2-2.5-3-3.7c0-0.6,0.2-1.2,0.8-1.5
		C23.9,13.8,24.4,14.1,24.9,14.3z"/>
	<path class="st68" d="M26.3,24.9c0.3,1,0.5,2,0.8,3c0.2,1.4,1.2,2.9-0.8,3.8c-0.6-0.3-0.7-0.9-0.8-1.5c0.1-1.8-1.7-2.4-2.2-3.8
		c0.4-0.4,0.1-1.2,0.8-1.5C24.8,24.8,25.6,24.9,26.3,24.9z"/>
	<path class="st69" d="M25.6,18.8c0.5,0,1,0,1.5,0c1.1,1.3,2.4,2.5,2.3,4.5c-0.3,0.6-0.9,0.7-1.5,0.7C28.2,21.9,26.2,20.6,25.6,18.8
		z"/>
	<path class="st70" d="M25.7,24c0,0.6-0.1,1.2-0.8,1.5c-1-1-2-1.9-3.1-2.9c0.1-0.5,0.4-0.7,0.8-0.8c0.3,0,0.5,0,0.8,0
		C24.2,22.5,24.9,23.3,25.7,24z"/>
	<path class="st71" d="M18.9,15.8c-0.1,0.4-0.1,1.2-0.6,0.9c-0.9-0.5-1.7-1.3-0.8-2.5C18,14.8,18.4,15.3,18.9,15.8z"/>
	<path class="st72" d="M22.7,21.8c-0.3,0.3-0.5,0.5-0.8,0.8c-0.2,0-0.4-0.1-0.7-0.1c-0.5-0.9-1.2-1.5-2.3-1.4
		c-0.7-0.8-1.5-1.5-2.2-2.3C19.5,18.2,20.9,20.3,22.7,21.8z"/>
	<path class="st73" d="M8.4,18.1c1,0.5,1.9,1.4,2.9,0.1c0.5,0.5,1,1,1.4,1.6c-1.3,0.8-2.5,1.9-3.9,2.4c-1.6,0.6-1.1-1-1.3-1.8l0,0
		C8.3,19.8,7.6,18.6,8.4,18.1z"/>
	<path class="st45" d="M8.4,18.1c-0.1,0.8,0,1.7-0.8,2.3c0-1.3,0.1-2.5,0.1-3.8C7.9,17.1,8.1,17.6,8.4,18.1z"/>
	<path class="st74" d="M22.6,35.3c0.2,0.3,0.4,0.5,0.6,0.8c-1.4,0-2.9,0-4.9,0C20.1,35,21.4,35.6,22.6,35.3z"/>
	<path class="st75" d="M20.4,27.7c0.2-1.1-1.4-3.2,1.5-3c1.7,1,2.6,2.6,3,4.5c-0.7,1.1-1.6-1.6-2.4,0.1
		C21.9,28.8,21.2,28.3,20.4,27.7z"/>
	<path class="st76" d="M21,30.2c0.6-4.5,1.6,1.4,2.4-0.1c0.5,0.6,0.9,1.5,0.2,1.8C22.2,32.5,21.9,30.8,21,30.2z"/>
	<path class="st20" d="M35.3,42.9c-0.1,1.4-0.8,2.2-2.3,2.3C33.6,44.1,34.3,43.4,35.3,42.9z"/>
	<path class="st49" d="M26.3,31.6c1.2-1.1,0.6-2.5,0.8-3.8c0.4,1.9,2.7,3,2.2,5.3c-0.5,0.7-1,1.5-1.6,2.2
		C26.9,34.3,26.6,32.9,26.3,31.6z"/>
	<path class="st28" d="M38.3,51.9c-1-0.5-2-1-3-1.5c-0.2-0.7-0.6-1.4-0.7-2.1c-0.1-0.8,0-1.6,0.9-1.8c0.9-0.2,1.4,0.5,1.7,1.2
		C37.8,48.9,38.4,50.3,38.3,51.9z"/>
</g>
<g>
</g>
<g>
</g>
<g>
</g>
<g>
</g>
<g>
</g>
<g>
</g>
</svg>
