<?xml version="1.0" encoding="utf-8"?>
<!-- Generator: Adobe Illustrator 18.1.1, SVG Export Plug-In . SVG Version: 6.00 Build 0)  -->
<!DOCTYPE svg PUBLIC "-//W3C//DTD SVG 1.1//EN" "http://www.w3.org/Graphics/SVG/1.1/DTD/svg11.dtd">
<svg version="1.1" id="Layer_1" xmlns="http://www.w3.org/2000/svg" xmlns:xlink="http://www.w3.org/1999/xlink" x="0px" y="0px"
	 viewBox="0 0 91.5 59.8" style="enable-background:new 0 0 91.5 59.8;" xml:space="preserve">
<style type="text/css">
	.st0{fill:#DC8F8E;}
	.st1{fill:#3F6340;}
	.st2{fill:#58755B;}
	.st3{fill:#E79C9C;}
	.st4{fill:#698C70;}
	.st5{fill:#4F6345;}
	.st6{fill:#416244;}
	.st7{fill:#E3ECE2;}
	.st8{fill:#66826A;}
	.st9{fill:#FBF0ED;}
	.st10{fill:#5F8262;}
	.st11{fill:#4C6448;}
	.st12{fill:#796F58;}
	.st13{fill:#709076;}
	.st14{fill:#719078;}
	.st15{fill:#89A08A;}
	.st16{fill:#4E6C51;}
	.st17{fill:#648368;}
	.st18{fill:#64896B;}
	.st19{fill:#607D63;}
	.st20{fill:#446347;}
	.st21{fill:#587357;}
	.st22{fill:#CF9291;}
	.st23{fill:#6D7A5E;}
	.st24{fill:#6E8C74;}
	.st25{fill:#566C5A;}
	.st26{fill:#819A86;}
	.st27{fill:#677D6B;}
	.st28{fill:#5E8064;}
	.st29{fill:#57735A;}
	.st30{fill:#6C8B6E;}
	.st31{fill:#658A6A;}
	.st32{fill:#597B5E;}
	.st33{fill:#6A9270;}
	.st34{fill:#375637;}
	.st35{fill:#305031;}
	.st36{fill:#4C6850;}
	.st37{fill:#3D6643;}
	.st38{fill:#EB9A9B;}
	.st39{fill:#E19495;}
	.st40{fill:#E99999;}
	.st41{fill:#E59392;}
	.st42{fill:#DA8585;}
	.st43{fill:#A75657;}
	.st44{fill:#984546;}
	.st45{fill:#C36F6E;}
	.st46{fill:#325427;}
	.st47{fill:#28492A;}
	.st48{fill:#627D63;}
	.st49{fill:#537C5A;}
	.st50{fill:#D4948D;}
	.st51{fill:#C36E6C;}
	.st52{fill:#2D361F;}
	.st53{fill:#324022;}
	.st54{fill:#B9B19C;}
	.st55{fill:#6F9777;}
	.st56{fill:#506450;}
	.st57{fill:#DCA8A4;}
	.st58{fill:#577252;}
	.st59{fill:#3D5033;}
	.st60{fill:#64775D;}
	.st61{fill:#B06D67;}
	.st62{fill:#35502D;}
	.st63{fill:#B15A57;}
	.st64{fill:#41644B;}
	.st65{fill:#1C381C;}
	.st66{fill:#5C815E;}
	.st67{fill:#BA6465;}
	.st68{fill:#CC7878;}
	.st69{fill:#486548;}
	.st70{fill:#567255;}
	.st71{fill:#E08C8B;}
	.st72{fill:#D58282;}
	.st73{fill:#A95856;}
	.st74{fill:#DC8D8B;}
	.st75{fill:#E99A99;}
	.st76{fill:#C67A76;}
	.st77{fill:#9A4140;}
	.st78{fill:#A75453;}
	.st79{fill:#D37B7B;}
	.st80{fill:#706851;}
	.st81{fill:#A4776D;}
	.st82{fill:#BD7270;}
	.st83{fill:#8C6C5E;}
	.st84{fill:#43482E;}
	.st85{fill:#475939;}
	.st86{fill:#C2958A;}
	.st87{fill:#A85957;}
	.st88{fill:#E19292;}
	.st89{fill:#AB5B5A;}
	.st90{fill:#8E4240;}
	.st91{fill:#D18784;}
</style>
<g>
	<path class="st0" d="M38.4,46.1c-1.3-1.5-3.7-1.5-4.6-3.5C32,40.9,30.4,39,28,38.3c-0.3-0.2-0.5-0.5-0.7-0.8
		C27,36.6,27,35.7,27.6,35c1-0.6,1.9,0.2,2.8,0.5c0.7,0.2,1.5,0.6,1.9-0.4c0.4-1-0.2-1.8-1.1-2c-2.1-0.6-4.2-1.3-6.5-1.3
		c-1.2,0-2.5,0.1-3.5-0.8c-0.5-0.7-0.9-1.6-0.9-2.5c0.1-1.1,0.5-2.1,1.7-1.9c1.5,0.2,2.9-0.5,4.4-0.3c0.9,0.4,1.7,0.8,1.6,1.9
		c-1.2,0.3-2.2,1.1-3.5,1c1.3,0,2.4-0.9,3.7-0.8c0.5,0,1,0.1,1.4,0.3c0.8,0.3,1.9,1.1,1.3-0.8c1.6-0.9,3.1-0.2,4.6,0.3
		c1.2,0.6,2.4,1.3,3.7,1.7c0.3,0.2,0.5,0.4,0.7,0.7c0,0.3,0,0.7-0.3,0.9c-0.7,0.5-1.5,0.7-2.3,0.8c-1.4-0.4-1.2,0.9-1.5,1.6
		c-0.6,1.2,0.1,2.5-0.2,3.6c-0.2,0.7-0.2,1.1,0.7,1.2c1,0.1,0.7-0.8,1.1-1.2c2-2.2,3.5-1.8,4.6,0.8c0.6,1.3,1.6,2.5,1.8,4
		c0,1.8-1.4,2.5-2.5,3.6C40.4,46.1,39.5,47.1,38.4,46.1z"/>
	<path class="st1" d="M78.3,40c0.5,0.5,1,1.1,1.4,1.6c-0.8,1.2-1.9,1.5-3.2,0.9l0,0.1c-3.4-1-7-0.4-10.5-1.3
		c-0.8-0.2-1.9,0.3-2.3-0.7c-0.6-1.3,0.3-2.1,1.3-2.7c1.4,0.1,2.8,0.6,4-0.2c-0.9,0-1.7,1.1-2.8,0.3c1-2.4-0.2-5,0.5-7.5
		c0.9-0.6,1.7-0.2,2.6,0.1c1.2,0.7,2.7,1,3.1,2.7c-0.1,0.5-0.6,0.4-0.9,0.7c0.8,0.7,1.7,0.8,2.6,0.8c0.7,0.3,0.9,0.9,1.1,1.5
		c0.3,1.1,0.1,2.5,1.2,3.4C76.9,40.1,77.6,39.9,78.3,40z"/>
	<path class="st2" d="M38.4,46.1c1-0.2,1.9-0.5,2.9-0.7c0.3-0.2,0.7-0.2,1,0c0.3,0.5,0.3,1-0.1,1.5c-2.3,0-4.5,0.4-5.7,2.6
		c-1.9,3.5-4.9,4.7-8.6,4.9c-0.6-0.8-2.5,0.4-2.4-1.5c1.5-1.4,3.3-2.2,5.1-2.9c0.6-0.2,1.2-0.2,1.9-0.9c-1.1-0.7-2.1-0.3-3,0.1
		c-1,0.3-2,0.8-3.1,0.2c-0.5-0.9,0.4-1.2,0.7-1.8C30.6,45.3,34.6,46.7,38.4,46.1z"/>
	<path class="st3" d="M21.7,30.5c3,0.3,5.9,0.4,8.8,1.1c1.5,0.4,2.5,1,2.8,2.3c0.2,0.8,0.8,1.9-0.3,2.7c-1,0.8-1.9,0.4-2.7-0.1
		c-0.9-0.5-1.7-1.1-2.5-1.6c-0.6,0.6-1.4,1.1-2.3,1.1c-1.2-0.1-1.8-0.9-2.2-1.9c-0.2-0.2-0.5-0.5-0.7-0.7
		C21.9,32.6,21,31.8,21.7,30.5z"/>
	<path class="st4" d="M20.3,10.4c-1.7-0.6-2.8-1.8-3.7-3.2c0.3-0.9,0.8-1.5,1.7-1.8c2,0.2,3.9,1,6,0.5c1.7,0.4,3.5,0.8,4.6,2.4
		C27.7,9.9,31,9.8,30,11.4c-0.2,0.3-0.5,0.5-0.8,0.6c-1.3,0.1-2.6,0.6-3.9,0.9C23.4,12.5,21.8,11.6,20.3,10.4z"/>
	<path class="st5" d="M41.4,10.8c2,0,4,0.1,6,0.1c1,1.5,2.2,3.1-1,3.5c-0.2-0.1-0.5-0.2-0.6-0.4c-0.2-0.3-0.3-0.7-0.6-0.9
		c-0.1,0.3,0.2,0.7,0,1c-0.3,0.3-0.6,0.4-0.9,0.6c-2,0.5-4,0.4-6,0.3c-2.3-0.1-4.6,0.1-6.8-0.1c-0.4,0-0.8-0.1-1.2-0.2
		c-0.5-0.1-0.9-0.3-1.4-0.5c-0.7-0.3-1.9-0.4-1.7-1.6c0.2-1.1,1.5-0.6,2.2-0.9l0,0c2-0.5,3.3-3.4,6-1.8c0.3,0.2,0.6,0.4,0.8,0.6
		c0.2,0.3,0.3,0.6,0.3,0.9c-0.1,0.3-0.1,0.6,0.1,0.9c0.1-0.1,0.4,0.4,0.3-0.1c-0.2-0.5,0-0.9,0.4-1.2C38.5,10.5,39.9,10.8,41.4,10.8
		z"/>
	<path class="st6" d="M24.1,3.6c3.1-0.7,6.1-0.5,9,0.5c1.8,0.7,3.1,2,4.3,3.4c0.6,0.7,1,1.5-0.2,2.1C36,9.8,35,9.2,33.9,9
		c-3.6-0.7-6.7-2.3-10-3.9C23.6,4.6,23.7,4.1,24.1,3.6z"/>
	<path class="st7" d="M20.3,10.4c1.7,0.7,3.5,1.5,5.2,2.2c1.1,0.2,1.9,0.8,2.6,1.8c-0.1,0.4-0.3,0.7-0.7,0.9c-2,0.8-4.2,0.4-6.3,0.8
		c-1.5-0.2-3.1-0.5-4.7-0.3c-2.2,0.2-4.4,1-6.6,0.7c-0.9-0.1-1.7-0.2-2.3-1c3.8-1.7,7.8-1.9,11.8-1.7c1.6,0.1,3.1,0.4,4.8-0.1
		C23.2,12,20.7,12.5,20.3,10.4z"/>
	<path class="st8" d="M88.5,50.7c-0.5-0.1-1.4-0.7-1.1,0.5c0.3,1.1,0.6,2.2,0.4,3.3c-1.9-1.6-3.3-3.5-3.8-6c0.1-1.6-2-2.2-1.6-3.8
		c0.2-0.5,0.6-0.8,1.1-0.9C85.6,45.7,87.6,47.8,88.5,50.7z"/>
	<path class="st9" d="M21.7,30.5c0.3,1,0.7,1.9,1,2.9c-5-3.2-5.2-10.7-0.4-13.5c1-0.6,1-1.3,1-2.1c0.5-0.4,1-0.5,1.6-0.2
		c1.1,2.7-1.1,3.7-2.6,5c-2.4,1.5-1.4,3.7-1.4,5.8C21,29.2,20.9,30,21.7,30.5z"/>
	<path class="st10" d="M64.5,21.5c0.3,0.2,0.5,0.5,0.8,0.7c-0.5,2,2.2,3.9,0.4,6c-1,0.4-1.9,1.1-2.8,1.7c-0.5,0-0.9-0.3-1.3-0.7
		c-0.7-0.9-0.8-2.1-0.6-3.1c0.3-1.3-0.7-1.5-1.4-1.9C60.1,20.9,60.6,20.6,64.5,21.5z"/>
	<path class="st11" d="M57.9,13.9c1.3,0.9,2.5,2.1,3.1,3.6c0.1,2-1.4,0.9-2.2,1.1c-1.3-0.5-2.7-1.2-3.3,0.8c-1.6-0.2-2.5-1.2-3-2.6
		c0.6-2,2.1-2.9,3.9-3.4C56.9,13.5,57.4,13.6,57.9,13.9z"/>
	<path class="st12" d="M24.8,17.9c-0.5,0-1-0.1-1.5-0.1c-0.3-0.3-0.5-0.5-0.8-0.8c-0.4-0.6-1.2-0.3-1.7-0.8c-0.1-0.3,0-0.6,0.3-0.8
		c2.2-0.8,4.5-0.6,6.7-0.7c0.9-0.5,1.7-0.1,2.3,0.6c0.4,0.7,0,1.3-0.4,1.9c-0.5,0.5-1,0.8-1.6,1.1c-0.5,0.3-1.1,0.6-1.8,0.7
		C25.6,18.9,25.3,18.3,24.8,17.9z"/>
	<path class="st13" d="M13.8,20.8c-2.9,0.9-5.8,1.2-8.4-0.9c0.7-0.9,1.9-0.8,2.7-1.5c0.6-0.4,1.2-0.7,1.9-1c2.1-1,4.1-2.1,6.5-0.7
		c0,3.9-3.2,2.7-5,3.4C12,20.3,13.1,19.7,13.8,20.8z"/>
	<path class="st14" d="M57.9,13.9c-0.5,0-1,0-1.5,0c-2.2-0.2-4,3.1-6.4,0.6c-0.9-1-2.3-1.8-1.9-3.5C51.7,10.8,55.1,11.2,57.9,13.9z"
		/>
	<path class="st15" d="M72.1,33.4c-0.5-1.5-2.2-1.3-3.1-2.2c-0.8-0.9-2.6-1.3-1.4-3.1c4.3,2.8,7.9,6.2,9.9,11.1
		c-0.4,0.6-0.9,0.7-1.5,0.5c-1.3-0.8-1.1-2.3-1.6-3.5c-0.1-0.6-0.3-1.1-0.8-1.3C72.7,34.8,72.2,34.3,72.1,33.4z"/>
	<path class="st16" d="M67.6,28.2c-0.4,1.4,1.1,2,1.4,3.1c-0.7-0.3-1.5-0.5-2.2-0.8c-1.7,0.1-1.8-1-1.5-2.3c0.9-1.5-0.4-2.5-0.6-3.8
		c-0.1-0.7-1.3-1.9,0.6-2.2C66.9,23.9,67.6,25.9,67.6,28.2z"/>
	<path class="st17" d="M58.4,17.7c0.8-0.2,1.7,0.8,2.5-0.2c1.2,1.3,2.4,2.6,3.6,3.9c-1.5,0.9-4.8-0.8-4.4,3c-0.4,0.2-0.7,0.2-1-0.1
		c-0.9-1.4-0.6-2.9-0.8-4.4C58.2,19.2,58.1,18.4,58.4,17.7z"/>
	<path class="st18" d="M36.9,9.4c0.9-3.3-2.8-3.3-3.7-5.3c4.2,0.4,5.1,4.9,8.2,6.7c-1.3,1.6-3,0.6-4.6,0.9c-0.3,0.2-0.5,0.1-0.7-0.1
		c0-0.2,0-0.4-0.1-0.7c0.2-0.4,1.4-0.2,0.6-1.2C36.7,9.6,36.8,9.5,36.9,9.4z"/>
	<path class="st19" d="M13.8,20.8c-1.1-0.1-2.1-0.2-3.6-0.3c2.1-1.9,5.2-1,6.4-3.5c0.1-0.2,0.2-0.3,0.3-0.5c0.9-0.7,1.8-1.2,2.9-0.4
		c0.2,1.8-1.4,2.2-2.4,3C16.1,19.7,15.2,20.9,13.8,20.8z"/>
	<path class="st20" d="M76.5,42.5c1.1-0.3,2.2-0.6,3.2-0.9c0.7,0.3,1.4,0.6,2.1,1c0.6,0.6,0.7,1.4,0.4,2.2c0,0.6,0.1,1.2-0.5,1.6
		C79.5,45.8,78.2,43.9,76.5,42.5z"/>
	<path class="st21" d="M24.1,3.6c0,0.5,0,0.9,0,1.4c0.4,0.5,0.5,1,0,1.5c-2.2,1.5-4.1,0.2-6-0.7c-0.7-0.4-1.2-0.8-0.7-1.7
		c0.5-0.2,1-0.3,1.6-0.1c1.4,0.7,2.9,1.2,4.4,0.2C23.4,3.7,23.6,3.4,24.1,3.6z"/>
	<path class="st22" d="M27.8,38c3.6-0.5,4.6,2.3,6,4.6c-1.7-1.1-3.4-2.1-5-3.2C28.1,39.1,27.5,38.9,27.8,38z"/>
	<path class="st9" d="M27.8,38c0.3,0.5,0.6,0.9,0.9,1.4c-3.1-0.4-5.2-1.8-5.4-5.2c0.8,0.5,1.5,0.9,2.3,1.4
		C27.3,35.5,27,37.3,27.8,38L27.8,38z"/>
	<path class="st23" d="M48.1,10.9c0.8,1,1.5,2,2.3,3c0.3,0.9-0.1,1.5-0.9,1.9c-1.7,0.1-3.5,0.4-4.4-1.7l0-0.4
		c0.3-0.2,0.5-0.2,0.7,0.1c3.2,0.5,1.1-1.9,1.6-2.9C47.6,10.9,47.8,10.9,48.1,10.9z"/>
	<path class="st24" d="M27,47.5c-0.2,0.6-0.5,1.1-0.7,1.7c-0.6,2.8-2,3.7-4.7,2.2c0.3-0.5,0.7-0.9,1-1.4
		C24.1,49.2,25.6,48.4,27,47.5z"/>
	<path class="st7" d="M18.8,4.3c-0.5,0-1,0-1.5-0.1c-0.6,0.6-0.6,1.7-1.5,2.2c-0.8-0.6-1.7-1.7-0.8-2.3c1.6-1,3.5-1.8,5.3,0
		C19.9,4.7,19.4,4.6,18.8,4.3z"/>
	<path class="st25" d="M15.9,6.5c0-1-0.7-2.6,1.5-2.2c0.2,0.5,0.5,1,0.7,1.4c0,1-0.5,1.5-1.5,1.5C16.3,7,16.1,6.7,15.9,6.5z"/>
	<path class="st26" d="M7.6,15.5c0.8,0,1.5,0,2.3,0c0.6,0.4,1.2,0.7,0.8,1.6c-0.6,0.6-1.4,0.8-2.2,1c-0.3,0-0.6-0.2-0.9-0.4
		C7,17,6.7,16.2,7.6,15.5z"/>
	<path class="st7" d="M17.3,19.2c0.8-1,1.7-1.9,2.5-2.9c0.4-0.6,0.8-0.5,1.3-0.2c0.5,0.2,1.3,0.1,1.5,0.9
		C20.2,16.4,19.4,19.3,17.3,19.2z"/>
	<path class="st27" d="M7.6,17.7c0.3,0,0.5,0,0.8,0c0.5,0.5,0,1,0,1.5c-0.8,1-1.9,0.6-3,0.7C5,18.1,7,18.6,7.6,17.7z"/>
	<path class="st4" d="M18.8,4.3c0.5-0.1,1-0.2,1.5-0.2c1,0,2,0,2.9,0C21.9,5.5,20.4,5.2,18.8,4.3z"/>
	<path class="st28" d="M75.9,39.4c0.6,0,1.1-0.1,1.7-0.1c0.3,0.2,0.5,0.5,0.8,0.7c-0.8,0.3-1.6,0.6-2.4,0.9
		C75.4,40.4,75.4,39.9,75.9,39.4z"/>
	<path class="st29" d="M81.8,44.7c0-0.7,0-1.4,0-2.1c0.8,0,1.3,0.5,1.6,1.2c-0.3,0.3-0.6,0.6-0.8,0.9C82.3,45.1,82.1,45.1,81.8,44.7
		z"/>
	<path class="st30" d="M42.2,45.5c-0.3,0-0.6-0.1-0.9-0.1c0.1-1.5,2.1-1.5,2.2-3c-0.3-1,0.6-1.4,1.1-2c0.4-0.5,0.9-1,1.5-1.4
		c0.5-0.2,1-0.3,1.6-0.3c2.1,0,3.7-1.1,5.5-1.9c2.9-1.2,4.4-0.3,5.1,3c-1.9,2.4-4.5,4.5-4.8,7.9c-3.1,1.1-6.1,1.3-9.2,0
		c0.2-0.3,0.4-0.5,0.8-0.7c1.2-0.6,2.3,0.3,3.5,0.3c-1.3-0.2-1.8-0.6-0.8-1.8c-0.7,0.2-1.5,0.6-2.1-0.2c-0.4-0.2,0.2-1.6-1-0.8
		C43.9,45.1,43.2,45.8,42.2,45.5z"/>
	<path class="st31" d="M65.3,28.2c0.5,0.8,1,1.5,1.5,2.3c0,0.5-0.2,1.2,0.1,1.4c2.4,2.4,0.3,4.2-0.8,6.1v0c-0.9,0.5-2,1.1-1.8,2.1
		c0.2,1.4,1.6,0.5,2.4,0.8c3.1,1.4,6.8-0.2,9.8,1.7c-4.7,0.3-9.4-1.4-14.1-0.8c-1.1-1-0.2-2.2-0.4-3.2c-0.1-0.8-0.8-1.5-0.3-2.3
		c0.6-1.7,2.3-3.1,1.7-5.2c-0.3-0.4-0.5-0.8-0.2-1.3C63.2,28.2,63.7,27.4,65.3,28.2z"/>
	<path class="st32" d="M53.4,47.8c-1.7-1.8,0-3.4,0.7-4.8c0.6-1.3,1.9-2.7,3.7-2.8c0.1,0.1,0.2,0.2,0.3,0.4c0.2,0.7,0.3,1.5,0.4,2.2
		c0.1,0.7,0.6,1.3,0.9,2C57.8,46.5,55.7,47.3,53.4,47.8z"/>
	<path class="st33" d="M21.7,51.4c2.1,0.5,3.4-0.7,4.7-2.2c1-0.3,2-0.5,3-0.8c1-0.5,2.3-0.8,2.9,0.2c0.7,1.1-0.7,1.5-1.4,2.1
		c-1.8,0.5-3,2.5-5.2,2.3c-1.8,1.1-3.5,1-4.7-0.9C21.1,51.9,21.4,51.6,21.7,51.4z"/>
	<path class="st34" d="M59.4,44.7c-1.7,0.1-2.6-0.5-1.5-2.3c0.7-1.4,1.7-2.6,2.8-3.8c0.4-0.2,0.7-0.1,1,0.1c1,1.6,0,2.8-0.7,4.1
		C60.7,43.7,60.1,44.3,59.4,44.7z"/>
	<path class="st24" d="M20.9,52.1C22.3,53,24,53,25.6,53c0.7,0.5,1.5,0.9,2.2,1.4c-2-0.1-4-0.1-5.9-0.4C21,53.9,19.8,53.5,20.9,52.1
		z"/>
	<path class="st35" d="M44.9,47.5c-0.3,0-0.5,0.1-0.6,0.3c-0.9,0.2-1.4-0.6-2.1-0.9c0-0.5,0-0.9,0.1-1.4c0.7-0.6,1.4-1.1,2.1-1.7
		c0.8-0.1,1.1,0.3,1.2,1C45.6,45.8,46,46.8,44.9,47.5z"/>
	<path class="st36" d="M81.8,44.7c0.2,0,0.5,0,0.7,0c0,1.4,3.2,1.7,1.4,3.8c-0.7-0.7-1.5-1.4-2.2-2.1C81.8,45.8,81.8,45.3,81.8,44.7
		z"/>
	<path class="st37" d="M61,42.8c0.1-1.4,1.4-2.8-0.1-4.1c0.3-1.7,1.3-1.1,2.2-0.7c-0.2,1.3-0.5,2.5-0.7,3.8
		C61.9,42.1,61.4,42.5,61,42.8z"/>
	<path class="st38" d="M27.9,28c-0.5-0.4-1-0.9-1.5-1.3c-0.8-0.7-2.2-1.1-1.7-2.5c0.7-2,2.5,0.2,3.5-0.7c0.7-0.4,1.4-0.9,2.2-1.1
		c4.2,1.4,7.8,4.3,12.2,5.4c0.2,2-0.6,3-2.8,2.6c-1.2-0.6-2.5-0.9-3.8-1.5c-1.8,0.1-3.4-1.1-5.3-0.7c-0.4,0.4-0.9,0.6-1.5,0.5
		C28.8,28.6,28.1,28.7,27.9,28z"/>
	<path class="st39" d="M28.6,24.5c-1.3,2.8-2.1-0.8-3.3-0.3c-0.6,1.2,0.9,1.6,1,2.6c-1.4,0.4-2.6,1.9-4.3,0.6
		c-0.7-0.5-0.9,0.5-1,1.1c-0.8-2.3-3.1-4.7,0.7-6.4c0.1,0.1,0.3,0.2,0.4,0.3c0.4,0.5,0.6,1.5,1.4,0.4c0.6-1.6,1.9-2.7,2.8-4
		c0.5-0.3,1-0.6,1.5-0.9c1.7-0.5,3.4-1,3.7,1.6C30.9,21.2,27.7,21.6,28.6,24.5z"/>
	<path class="st40" d="M45.2,40.9c-0.6,0.5-1.1,1-1.7,1.5c-0.7-1-1.7-1.9-2-3c-0.6-2.8-1.9-2.8-3.9-1.5c-1.8-1-2.4-2.5-2.3-4.5
		c0.6-0.9,0.3-1.8-0.4-2.6c1.4-0.5,1.8,0.9,2.7,1.1c1.5,0,2.5,0.9,3.5,1.7c0.4,0.3,0.7,0.7,0.9,1.2C42.5,37.2,45.1,38.4,45.2,40.9z"
		/>
	<path class="st41" d="M39.8,30.5c1.3-0.6,2.5-1.2,2.2-3c0.1-2.9,1.1-5.3,3.6-7c2.2,1.3,3.1,2.8,0.6,4.8c-0.6,0.5-0.7,1.2-0.9,2
		c-0.8,2.8-0.3,3.4,2.5,2.8c0.6-0.1,1.1-0.6,1.7-0.4c2,3.3,1.5,4.1-2.1,4.6c-2.5,0.4-4.3-1.9-6.7-1.2c-0.8-0.2-1.1-0.7-1-1.6
		C39.8,31.1,39.8,30.8,39.8,30.5z"/>
	<path class="st42" d="M35.3,33.5c0.8,1.5,1.5,3,2.3,4.5c0.3,0.9,0.6,1.7,1,2.7C34.2,39.6,34.1,36.8,35.3,33.5z"/>
	<path class="st43" d="M39.8,31.4c0.3,0.4,0.6,0.8,0.9,1.3c0.4,0.5,0.4,1.1,0,1.6c-1-0.8-2.1-1.5-3.1-2.3
		C38.1,31.1,38.9,31.2,39.8,31.4z"/>
	<path class="st44" d="M27.9,28c0.4,0.1,0.9,0.2,1.3,0.3c0.3,0.7,0.1,0.9-0.6,0.7c-1.6-0.3-2.9,1.2-4.8,0.5
		C25.1,28.4,26.4,28.2,27.9,28z"/>
	<path class="st41" d="M36.1,29c1.8-0.9,2.6,0.6,3.8,1.5C38.4,30.4,36.8,30.7,36.1,29z"/>
	<path class="st22" d="M27.8,38c-1.2-0.4-1.5-1.6-2.1-2.5c0.6-0.7,1.4-0.5,2.2-0.5C27.8,36,27.8,37,27.8,38z"/>
	<path class="st45" d="M28.6,29c0.2-0.2,0.4-0.5,0.6-0.7c0.5,0,1.1-0.1,1.6-0.1c0.2,0.5,1.3,0.9,0.7,1.3C30.6,30,29.4,29.9,28.6,29z
		"/>
	<path class="st46" d="M66.1,38c0.2,0,0.5,0,0.7-0.1c1.3-0.4,2.4-2.1,4-1c0.4,0.3,0.6,1.1,0.1,1.2C69.4,38.4,67.7,39.5,66.1,38
		L66.1,38z"/>
	<path class="st47" d="M72.1,33.4c0.5,0.5,1,1,1.5,1.5c-2.2,1.8-2.5-1.4-4.9-1.2C70.5,32.5,71.3,33.7,72.1,33.4z"/>
	<path class="st20" d="M75.9,39.4c0,0.5,0,1,0,1.5c-1.6-1.2-1.6-2.9-1.5-4.7C75.2,37.2,75.7,38.2,75.9,39.4z"/>
	<path class="st48" d="M30.8,50.7c1.9-2.4,0.3-2.3-1.5-2.3c0.4-0.2,0.9-0.7,1.3-0.6c1.2,0.1,3.3-0.8,3.5,0.8
		C34.3,50.2,32.5,50.8,30.8,50.7z"/>
	<path class="st49" d="M24.1,6.5c0-0.5,0-1,0-1.5c3.8,0,6.6,3.3,10.5,3.1c-1.7,2.3-3,2.5-6,0.7C27.1,8,25.6,7.2,24.1,6.5z"/>
	<path class="st18" d="M28.6,8.7c2,0.2,4.2,1.3,6-0.7c0.8,0.5,1.5,1,2.3,1.4c0,0-0.1,0.1-0.1,0.1c-0.4,0.5-1,0.9-1.4,1.4
		c-2.3-1.9-3.9,1.5-6,0.9c-0.5-1.5-0.5-1.5-2.7-2C27,8.7,28.3,9.8,28.6,8.7z"/>
	<path class="st18" d="M27.8,14c-1-0.2-1.8-0.5-2.3-1.4c1-1.4,2.3-1.9,3.8-0.9c-0.5,0.4-1,0.8-1.6,1.2c0.8,0.4,1.8,0.1,2.3,0.9
		C29.4,14.6,28.6,14.5,27.8,14z"/>
	<path class="st50" d="M45.1,14.1c1.5,0.4,3,0.8,4.5,1.3c1.3-0.3,2.2,0.1,2.5,1.5c-0.3,1.6-1.3,2.1-2.8,1.7
		c-1.1-0.4-2.3-0.6-3.5-0.5c-1.2,0-2.4,0.5-3.6,0.6c-0.7,0.1-1.5,0.1-2.2,0.1c-0.7,0-1.5-0.2-2.1-0.5c-0.3-0.2-0.5-0.5-0.5-0.9
		c0.2-0.4,0.4-0.9,1-0.4c-0.1-0.3-0.4-0.4-0.7-0.4c-0.7-0.1-1.4,0-2.1-0.3c-0.5-0.2-1-0.5-1.2-1c0.9-1.8,2.7-0.3,3.9-1.1
		C40.6,13.7,42.8,13.8,45.1,14.1z"/>
	<path class="st51" d="M38.3,14.1c-1,1.1-2.8,0-3.7,1.4c-0.8,1.7-2,1.7-3.5,1.1c-0.6-0.7-0.6-1.5-0.2-2.3
		C33.4,14.1,35.8,14.1,38.3,14.1z"/>
	<path class="st52" d="M45.7,13.8c-0.2,0-0.5,0-0.7-0.1c-0.9-0.4-1.7-0.7-2.7-1.1C44.5,11.7,44.5,11.7,45.7,13.8z"/>
	<path class="st53" d="M36.1,11.6c0.2,0,0.5,0.1,0.7,0.1c0.1,0.5,1.3,0.9,0.6,1.3c-0.8,0.4-2.3,0.7-2.9-0.4
		C34.2,11.9,35.5,11.8,36.1,11.6z"/>
	<path class="st54" d="M30.9,14.2c0.2,0.5,0.7,1,0,1.4c-0.3,0.2-0.5,0.2-0.8,0c-0.7-0.3-1.5-0.6-2.2-0.9c0-0.2,0-0.5,0-0.7
		c0.8,0,1.5-0.1,2.3-0.1C30.4,14,30.6,14.1,30.9,14.2z"/>
	<path class="st55" d="M35.4,10.9c0-1,0.5-1.4,1.4-1.4c0.3,0.4,0.6,0.7,0.9,1.1c-0.5,0.1-1.1,0.2-1.6,0.4
		C35.8,11,35.6,10.9,35.4,10.9z"/>
	<path class="st19" d="M10.6,16.9c-0.2-0.4-0.5-0.9-0.7-1.3c2.2-0.3,4.5-0.5,6.7-0.8c1.1,0.7,1.2,1.5,0,2.2c0,0-0.1,0.1-0.1,0.1
		c-2.5-0.5-4.6,0.6-6.7,1.4C9.4,17.6,10.2,17.3,10.6,16.9z"/>
	<path class="st56" d="M16.6,16.9c0.4-0.7,0.4-1.5,0-2.2c1.6-0.5,3.1-0.2,4.5,0.7c0,0.2,0,0.5,0,0.7c-0.4,0.1-0.9,0.1-1.3,0.2
		C18.7,16.5,17.7,16.7,16.6,16.9z"/>
	<path class="st57" d="M26.3,18.6c0.8,2.3-1.8,2.7-2.2,4.3c-1,0.8-1.7,0.3-2.3-0.6c0-0.1-0.1-0.3-0.1-0.4c1.2-1.2,3.1-1.9,3.1-4.1
		C25.3,18.1,25.8,18.4,26.3,18.6z"/>
	<path class="st58" d="M59.3,24.5c0.3,0,0.5,0,0.8,0c0.5,0.1,0.9-1.9,1.7,0c0.6,1.5-0.6,3.2,0.5,4.5c-0.4,0.4-0.9,0.4-1.4,0.2
		c-1-0.7-1-2.1-1.8-2.9c-0.2-0.3-0.2-0.6-0.2-1C58.9,25,59.1,24.7,59.3,24.5z"/>
	<path class="st59" d="M60.8,28.8c0.5,0.1,1,0.1,1.5,0.2c0.3,0.2,0.5,0.5,0.8,0.7c0.3,0.3,0.5,0.5,0.8,0.8c0.6,1.9-0.4,1.8-1.7,1.5
		c-0.7-0.3-1.3-0.8-1.6-1.5C60.3,29.8,60.4,29.3,60.8,28.8z"/>
	<path class="st60" d="M51.9,17c-0.8-0.5-1.5-1-2.3-1.6c0.2-0.5,0.5-1,0.7-1.4c1.3,0.4,2.6,2,3.4-0.8c0.3-1.1,1.8,0.2,2.6,0.8
		c-1.3,0.9-2.5,1.9-3.8,2.8c-0.1,0.1-0.2,0.3-0.3,0.4C52.2,17.1,52,17,51.9,17z"/>
	<path class="st61" d="M52.6,16.7c1,0.8,2,1.7,2.9,2.5c0.8,0.2,1.2,0.8,1.2,1.6c-0.1,0.4-0.2,0.7-0.5,0.9c-2.5,0.8-4.4,0.5-4.9-2.5
		c-0.1-1,0.3-1.7,1.2-2.1L52.6,16.7z"/>
	<path class="st62" d="M56.3,20.7c-0.3-0.5-0.5-1-0.8-1.5c0.3-1.8,1.3-2.3,2.9-1.5c0.3,0.5,0.5,1,0.8,1.5c-0.8,0.6-0.5,1.8-1.4,2.4
		C57,21.8,56.7,21.2,56.3,20.7z"/>
	<path class="st51" d="M30.9,19.2c-0.6-1.3-0.6-1.3-3-1.5c0.3-0.6,0.9-0.7,1.5-0.7c2.3-0.7,4.6,0.1,6.8,0.6c0.2,0.3,0.3,0.7,0.3,1.1
		c-0.7,2.1-2.4,2.7-4.4,2.7C31,21.1,30,20.7,30.9,19.2z"/>
	<path class="st63" d="M36.1,17.7c-2.4,1.2-4.4-0.9-6.7-0.8c0.2-0.4,0.4-0.9,0.6-1.3c0.3,0,0.5,0,0.8,0c1.3,1.2,2.5,0.5,3.7-0.1
		c0.5,0,1,0,1.5,0.1c0.4,0.3,0.6,0.8,0.5,1.3C36.5,17.2,36.3,17.5,36.1,17.7z"/>
	<path class="st64" d="M10.6,16.9c-0.3,0.5-0.5,1.1-0.8,1.6c-0.5,0.3-1,0.5-1.5,0.8c-0.8-0.5-0.1-1,0-1.5
		C9.1,17.4,9.8,17.1,10.6,16.9z"/>
	<path class="st65" d="M57.7,21.6c0.2-1,0-2.2,1.6-2.3c0,1.7,0.1,3.5,0.1,5.2c-0.1,0.2,0,0.4,0,0.6c-0.6,0.5-0.9,0-1.3-0.4
		C57.5,23.7,57,22.7,57.7,21.6z"/>
	<path class="st66" d="M63.1,38c-0.8,0-1.7-0.2-2.2,0.7l0,0c-0.9,0.7-1.4,2.1-3,1.6c0,0,0-0.1,0-0.1c-0.5-3.2-2.3-3.7-4.9-2.2
		c-1.7,1-3.4,2.4-5.6,1.5c0-2.2,2.4-1.8,3.3-3c1.1-0.8,2.1-1.5,3.5-1.4c1.8,0.5,3.6,0.2,5.5,0.4c0.6,0.1,1.1,0.2,1.6,0.5
		c0.1,0.1,0.2,0.3,0.4,0.4C62.1,37,62.6,37.5,63.1,38z"/>
	<path class="st67" d="M45.2,40.9c-1.4-2-3.8-3.3-3.9-6.1c1.9-1.8,3.1-0.4,4.3,0.9c0.5,1.2,1,2.5,0.3,3.8
		C45.8,40.1,45.8,40.6,45.2,40.9z"/>
	<path class="st68" d="M45.9,39.5c-0.7-1.2-0.9-2.5-0.8-3.8c2.2-0.6,4.1,0.1,5.9,1.5c-0.8,1.5-2.8,1-3.7,2.3
		C46.8,39.5,46.3,39.5,45.9,39.5z"/>
	<path class="st32" d="M44.9,47.5c0.1-0.9,0.2-1.9,0.2-2.8c0.2-0.3,0.5-0.3,0.7,0c2.2-0.4,2.6,2.2,4.8,2.8
		C48.4,47.5,46.6,47.5,44.9,47.5z"/>
	<path class="st69" d="M45.8,44.7c-0.2,0-0.5,0-0.7,0c-0.3-0.3-0.6-0.6-0.8-0.9c0.5-0.8,1.3-1.9,2.2-1.2
		C47.5,43.4,45.9,44,45.8,44.7z"/>
	<path class="st70" d="M62.2,31.3c0.8,0.2,1.7,0.5,1.6-0.9c0.3,0.1,1,0.3,1,0.3c-0.2,2.4-0.7,4.6-3.2,5.7c0,0,0-0.1,0-0.1
		c-0.8-0.8-0.5-1.8-0.5-2.7c0-0.3,0.1-0.6,0.1-0.9C61.4,32.2,61.7,31.7,62.2,31.3z"/>
	<path class="st37" d="M57.9,40.3c1-0.5,1.7-1.6,3-1.6c-0.1,2-1.3,3.1-3,3.8C57.4,41.7,57.3,41,57.9,40.3z"/>
	<path class="st71" d="M32.3,20.8c1.5-0.3,2.9-0.8,3.7-2.3c1-0.5,1.2,0.5,1.8,0.9c0.2,0.2,0.4,0.4,0.6,0.6c0.6,0.5,1.4,0.5,2.2,0.6
		c0.5,0,1,0.1,1.4,0.3c1.7,0,2.6-2.4,4.6-1.4c0.5,0.3,0.9,0.6,0.6,1.3c-0.5,0.4-1,0.4-1.4,0c-1.8,1.9-1.7,5-3.8,6.8
		c-3.8,1.4-6.2-1.8-9.2-2.9c-1-0.4-1.5-1.6-2.8-1.6C29.8,21.1,31.6,21.5,32.3,20.8z"/>
	<path class="st72" d="M32.3,20.8c-0.8,0.7-1.5,1.5-2.3,2.2c-0.5,0.5-1,1-1.5,1.5c-2.4-1-0.7-2.4-0.2-3.3c0.5-0.8,1.6-1.3,2.4-1.9
		C30.9,20.2,31.4,20.7,32.3,20.8z"/>
	<path class="st73" d="M21.8,22.3c0.8,0.2,1.5,0.4,2.3,0.6c-0.1,0.9,0.3,2.2-1.3,1.8C21.8,24.5,20.9,23.6,21.8,22.3z"/>
	<path class="st74" d="M51,37.2c-2.1,0.2-4-0.7-5.9-1.5c-1.2-0.6-2.3-1.6-3.8-0.9c-0.2-0.2-0.4-0.4-0.6-0.6c0-0.5,0-1.1,0-1.6
		c0.7-0.5,0.9-2.9,2.4-0.8c1.7,2.2,4.1,1.5,6.1,1c2.4-0.5-0.2-2.1,0.4-3.1c0.8-1.5,1.9-1.6,2.6-0.1c0.8,1.8,2.1,3.2,2.8,5
		c0.1,0.3,0.1,0.7,0,1.1c-0.3,0.3-0.6,0.3-0.9,0.1C52.7,35.4,52.1,36.9,51,37.2z"/>
	<path class="st75" d="M54.8,35c-1.5-1.2-2.9-2.7-3.2-4.6c-0.3-2-1.2-0.9-1.9-0.6c-1.3,2-3.4,2-5.4,1.5c-0.9-0.2-0.3-6.2,0.9-6.6
		c3.2-1,1.3-2.5,0.7-3.9c0.5,0,1,0,1.5,0c0.2,0,0.3,0,0.5,0c1.2,0.4,2.2,1.2,3.4,1.7c1.2,0.6,2,1.6,2.5,2.8c0.2,0.3,0.3,0.6,0.5,0.9
		c0.4,0.8,0.6,1.6,0.7,2.4c0.1,1.5,0,3,0.4,4.5c0.1,0.3,0.1,0.7,0,1C55.2,34.4,55,34.7,54.8,35z"/>
	<path class="st51" d="M42.1,21.5c-0.5,0-1,0-1.5,0c-0.5-0.6-1.8-0.2-1.7-1.5c0.7-1.1,2.5-0.8,3.1-2.2c1.3-0.2,2.5-1.1,3.9-0.7
		c0.5,0.5,0.9,1,1,1.7c0,0.4-0.2,0.6-0.6,0.7C44.4,19.1,43.5,20.8,42.1,21.5z"/>
	<path class="st76" d="M47.3,20.7c-0.3-0.3-0.5-0.5-0.8-0.8c-0.3-0.2-0.3-0.3-0.3-0.5c0.1-0.2,0.2-0.2,0.3-0.2l0-0.1
		c0.7-1,2-0.8,2.9-1.4c1.1,0.7,1.7-0.3,2.4-0.8c0.2,0,0.5,0,0.7,0.1c-0.2,0.7-0.5,1.4-0.7,2.2c0.2,1.3-0.8,1.7-1.7,2.1
		C49.1,21.5,48.2,21.3,47.3,20.7L47.3,20.7z"/>
	<path class="st77" d="M42,17.8c0.9,3.1-1.7,1.8-2.9,2.3c-0.4,0.2-0.7,0.1-1-0.2c-0.6-1.7,0.9-1.6,1.8-2.1
		C40.6,17.8,41.3,17.8,42,17.8z"/>
	<path class="st78" d="M49.5,17.8c-0.2,2.1-1.8,1.3-2.9,1.4c-0.2-0.7-0.4-1.4-0.7-2.1C47.2,16.7,48.4,17,49.5,17.8z"/>
	<path class="st51" d="M36.1,17c0-0.5-0.1-1-0.1-1.5c0.9,0,1.8,0.2,2.4,1c-0.3,0.2-0.6,0.3-0.8,0.5C37.1,17.4,36.6,17.4,36.1,17z"/>
	<path class="st79" d="M36.1,17c0.5,0,1,0,1.5,0c0,0.2,0,0.5,0,0.7c0.5,0.8,0.5,1.5,0,2.3c-0.5-0.5-1-1-1.5-1.5c0-0.3,0-0.5,0-0.8
		C36.1,17.5,36.1,17.2,36.1,17z"/>
	<path class="st51" d="M37.6,20c0-0.8,0-1.5,0-2.3c0.8,0,1.5,0,2.3,0.1c-0.6,0.7-1.7,0.9-1.5,2.2C38.1,20.2,37.9,20.2,37.6,20
		L37.6,20z"/>
	<path class="st80" d="M60.8,28.8c0,0.5,0,1.1,0,1.6c-0.3,0.3-0.6,0.4-1,0.4c-0.4-0.1-0.7-0.3-0.9-0.6c-0.4-0.7-0.5-1.5-0.5-2.2
		c0.1-0.8,0.2-1.6,0.9-2.1C61.2,26.2,60.7,27.7,60.8,28.8z"/>
	<path class="st81" d="M59.4,26c0,0.8-0.1,1.5-0.1,2.3c-2.5-0.3-2.4-1.9-1.7-3.6c0.3-0.4,0.7-0.4,1.1-0.2c0.2,0.2,0.5,0.4,0.7,0.6
		C59.3,25.3,59.3,25.6,59.4,26z"/>
	<path class="st81" d="M60.1,30.5c0.3,0,0.5,0,0.8,0c0.4,0.3,0.9,0.6,1.3,0.9c0,0.6,0,1.1-0.6,1.3C60.5,32.3,59.6,31.8,60.1,30.5z"
		/>
	<path class="st82" d="M50.3,20.8c0.5-0.5,1-1,1.6-1.5c0.9,1.9,2.4,2.5,4.4,2.3c0.3,0.2,0.4,0.5,0.3,0.8c-0.3,0.8-0.9,1.3-1.3,2
		c-0.5,0.7-0.7,1.9-2,1.9l0-0.2c-0.5-1.5-0.4-3.4-2.7-3.6C49.9,22,49.7,21.4,50.3,20.8z"/>
	<path class="st83" d="M56.3,22.3c0-0.3,0-0.5,0-0.8c0-0.3,0-0.5,0.1-0.8c0.4,0.3,0.9,0.6,1.3,0.9c0.3,1,0.6,1.9,0.9,2.9
		c-0.2,0-0.5,0-0.7,0C56.7,24.2,56,23.6,56.3,22.3z"/>
	<path class="st84" d="M54.1,35.8c0.2-0.1,0.5-0.2,0.7-0.3c0.9-1.3,2.4-1.5,3.8-1.9c0.6-0.1,1.1-0.1,1.6,0.1c1.5,1,0.5,1.8-0.1,2.7
		C58.1,36.3,56,37.2,54.1,35.8z"/>
	<path class="st85" d="M60.1,36.4c-0.2-0.8,0.9-1.6-0.1-2.3c0-1,0.6-1.2,1.4-0.8c1,1-0.2,2.1,0.1,3.1C61.1,36.4,60.6,36.4,60.1,36.4
		z"/>
	<path class="st86" d="M61.4,33.3c-0.5,0.3-1,0.5-1.4,0.8c-0.5,0.1-1,0.1-1.5,0.2c-1.1,0.3-1.9,0.2-1.2-1.2c1-0.7,1.1-2.1,2.2-2.8
		c0.2,0,0.4,0.1,0.6,0.1c0.5,0.7,1,1.5,1.5,2.2C61.5,32.9,61.5,33.1,61.4,33.3z"/>
	<path class="st79" d="M46.6,19.2c0,0.2,0,0.5,0,0.7c-1.2,0.1-2.3-0.2-2.7,1.7c-0.4,1.8-1.3,0.7-1.8-0.2C43,19.5,44.6,19,46.6,19.2z
		"/>
	<path class="st79" d="M37.6,20c0.3,0,0.5,0,0.8,0c0.2,0,0.5,0.1,0.7,0.1c0.5,0.5,1,0.9,1.5,1.4C39.4,21.3,37.9,21.9,37.6,20z"/>
	<path class="st87" d="M57.8,33.4c-0.7,1,0.4,0.7,0.7,0.9c-1.2,0.4-2.5,0.8-3.7,1.2c0-0.2,0-0.4,0-0.6c0.1-0.3,0.2-0.5,0.3-0.8
		c0.2-0.2,0.4-0.4,0.3-0.6c-0.1-0.3-0.4-0.2-0.6,0c-1.3-1.7-0.4-3.6-0.7-5.4c1.3-0.5,2.4-0.1,3.5,0.7C58.8,30.3,58.9,31.8,57.8,33.4
		z"/>
	<path class="st88" d="M57,29c-1-0.3-2-0.6-3-0.9c-0.2-0.7-0.5-1.3-0.7-1.9c0.5-0.8,1-1.7,1.4-2.5C57.5,24.1,58.4,26.1,57,29z"/>
	<path class="st89" d="M51,22.3c2.1,0,2.2,0.1,2.3,3.7c-0.8-1-1.6-2-2.3-3c-0.2-0.2-0.3-0.3-0.2-0.5C50.9,22.3,50.9,22.3,51,22.3z"
		/>
	<path class="st90" d="M54.8,33.5c0.1-0.8,0.1-1.7,0.3-3c1.4,1.7,2.2,2.7,0,3.6C54.9,34,54.8,33.8,54.8,33.5z"/>
	<path class="st41" d="M51,22.3c0,0.2,0,0.5,0,0.7c-1.5-0.3-2.9-0.8-3.7-2.3c1,0,2,0,3,0C50.5,21.3,50.8,21.8,51,22.3z"/>
	<path class="st91" d="M57,29c0.1-2.1,1.1-4.6-2.2-5.4c0.5-0.5,1-1,1.5-1.4c0.5,0.7,1,1.5,1.6,2.2c0,1.4-0.2,2.9,1.4,3.8
		c0.1,0.7,0.1,1.4,0.2,2.1c-0.3,1.2,0.5,2.8-1.6,3.1C57.7,31.9,58,30.4,57,29z"/>
</g>
<g>
</g>
<g>
</g>
<g>
</g>
<g>
</g>
<g>
</g>
<g>
</g>
</svg>
