<?xml version="1.0" encoding="utf-8"?>
<!-- Generator: Adobe Illustrator 18.1.1, SVG Export Plug-In . SVG Version: 6.00 Build 0)  -->
<!DOCTYPE svg PUBLIC "-//W3C//DTD SVG 1.1//EN" "http://www.w3.org/Graphics/SVG/1.1/DTD/svg11.dtd">
<svg version="1.1" id="Layer_1" xmlns="http://www.w3.org/2000/svg" xmlns:xlink="http://www.w3.org/1999/xlink" x="0px" y="0px"
	 viewBox="0 0 81.9 87.3" style="enable-background:new 0 0 81.9 87.3;" xml:space="preserve">
<style type="text/css">
	.st0{fill:#F5EBDF;}
	.st1{fill:#F5EBDE;}
	.st2{fill:#F5EDE1;}
	.st3{fill:#F4ECDF;}
	.st4{fill:#FAF6EC;}
	.st5{fill:#F4F4EC;}
	.st6{fill:#EBE3D1;}
	.st7{fill:#F9F4EC;}
	.st8{fill:#EDE5D7;}
	.st9{fill:#F6F3EC;}
	.st10{fill:#EFE3CF;}
	.st11{fill:#EBE0CC;}
	.st12{fill:#ECE0CC;}
	.st13{fill:#EBE2CC;}
	.st14{fill:#DECFAF;}
	.st15{fill:#EADEC5;}
	.st16{fill:#D9CBAA;}
	.st17{fill:#EDE3CE;}
	.st18{fill:#E6DCCA;}
	.st19{fill:#EEE2D0;}
	.st20{fill:#C7B59B;}
	.st21{fill:#E7DBC0;}
	.st22{fill:#D1BD98;}
	.st23{fill:#E0D8B5;}
	.st24{fill:#E2D7C2;}
	.st25{fill:#E5DAC6;}
	.st26{fill:#DFD2BC;}
	.st27{fill:#E5DAC4;}
	.st28{fill:#CBC1A2;}
	.st29{fill:#E3D9C9;}
	.st30{fill:#C5B391;}
	.st31{fill:#BDB298;}
	.st32{fill:#E5DBC1;}
	.st33{fill:#DAD0BE;}
	.st34{fill:#E8DFD1;}
	.st35{fill:#C2B392;}
	.st36{fill:#EFE3CD;}
	.st37{fill:#CBBB98;}
	.st38{fill:#C1B28F;}
	.st39{fill:#E9DFC8;}
	.st40{fill:#ECDFC8;}
	.st41{fill:#D7CAAD;}
	.st42{fill:#EBE2D2;}
	.st43{fill:#D3C6A7;}
	.st44{fill:#D6C6A6;}
	.st45{fill:#D7C8AA;}
	.st46{fill:#DFD7C1;}
	.st47{fill:#DFD4BA;}
	.st48{fill:#E2D9C5;}
	.st49{fill:#E7DDC7;}
	.st50{fill:#EFE6D5;}
	.st51{fill:#C6B696;}
	.st52{fill:#DED6BF;}
	.st53{fill:#C1B295;}
	.st54{fill:#BDB293;}
	.st55{fill:#AB997A;}
	.st56{fill:#A19377;}
	.st57{fill:#A49377;}
	.st58{fill:#EBDFC9;}
	.st59{fill:#F4E8D4;}
	.st60{fill:#EEE3D1;}
	.st61{fill:#F6EADA;}
	.st62{fill:#E4D9C6;}
	.st63{fill:#DFD7BE;}
	.st64{fill:#DED4C0;}
	.st65{fill:#DDD3BE;}
	.st66{fill:#DFD5C3;}
	.st67{fill:#EDE3D1;}
	.st68{fill:#E6DECB;}
	.st69{fill:#E0D8C7;}
	.st70{fill:#F1E7D6;}
	.st71{fill:#E9DECC;}
	.st72{fill:#D9D3C1;}
	.st73{fill:#F2EAD9;}
	.st74{fill:#F8F8F3;}
	.st75{fill:#F6EBD8;}
	.st76{fill:#DBD0BB;}
	.st77{fill:#E7DBC2;}
	.st78{fill:#D3C6A6;}
	.st79{fill:#DACAA9;}
	.st80{fill:#EDD7A6;}
	.st81{fill:#C5B69B;}
	.st82{fill:#D6CEB6;}
	.st83{fill:#BAAA8B;}
	.st84{fill:#D7CDB1;}
	.st85{fill:#A49780;}
	.st86{fill:#C0B08F;}
	.st87{fill:#C6B89C;}
	.st88{fill:#DBD3BF;}
	.st89{fill:#DBCAA5;}
	.st90{fill:#7C8670;}
	.st91{fill:#DECEAD;}
	.st92{fill:#C8B995;}
	.st93{fill:#D5C6A2;}
	.st94{fill:#C8B898;}
	.st95{fill:#D8CFB5;}
	.st96{fill:#C5B79A;}
	.st97{fill:#D7C9A6;}
	.st98{fill:#C4B58A;}
	.st99{fill:#B1A383;}
	.st100{fill:#CCBD9B;}
	.st101{fill:#C9B896;}
	.st102{fill:#BCB08E;}
	.st103{fill:#F0E5D0;}
	.st104{fill:#F5EBD9;}
	.st105{fill:#DDD1B9;}
	.st106{fill:#F8EDDE;}
	.st107{fill:#E1D5C1;}
	.st108{fill:#A4886B;}
	.st109{fill:#E4D8C1;}
	.st110{fill:#C8B090;}
	.st111{fill:#BEB496;}
	.st112{fill:#E5DBC9;}
	.st113{fill:#C8BE9D;}
	.st114{fill:#C5BAA8;}
	.st115{fill:#E9DCC4;}
	.st116{fill:#C1B596;}
	.st117{fill:#F2E5D1;}
	.st118{fill:#BCB298;}
	.st119{fill:#A89771;}
	.st120{fill:#E4DAC6;}
</style>
<g>
	<path class="st0" d="M77.2,29.4c0,0.8,0,1.5,0,2.3c-0.4,1.2-0.9,2.4-2.3,2.7c-3.8,0.7-4.6,3-3.4,6.4c-0.1,0.5-0.4,1-0.8,1.3
		c-0.4,0.8-2.2,0.3-1.4,2.2c0.9,2.1-0.4,3.1-2.5,3.3c-0.5,0-1.1-0.1-1.6-0.2c-0.8-0.3-1.7-0.4-2.6-0.4c-0.9,0-1.7,0-2.6-0.1
		c-1.6-0.1-3.4-0.2-4-2c-0.6-1.6,1-2.3,1.8-3.3c0.4-0.5,0.6-1.1,0.8-1.6c0.4-1,1.4-1.7,1.9-3.5c-1.5,1.4-2.6,2.4-3.7,3.4
		c-1.5,1.2-2.9,2.6-4.4,3.9c-1.2,0.8-2.5,1-3.9,0.5c-1.3-0.7-1.2-1.8-0.6-2.9c0.9-1.6,1.1-3.3,1.6-4.9c1.3-2.6,3.1-4.4,5.5-4.8
		c-2.1,1.9-5.1-1.6-7.7,0.5c-0.3,0.1-0.7,0.2-1,0.3c-2.9-0.3-3.2-2.3-2.8-4.6c0.2-1.4,1.2-2.7,0.8-4.9c-1.5,2.7-2.5,5.2-3.8,7.5
		c-0.2,0.3-0.4,0.6-0.6,0.8c-0.7,0.5-1.3,1-1.6,2c-0.3,0.9-0.6,2.1-1.9,1.8c-1.3-0.3-1-1.5-0.9-2.5c0-0.5,0.1-1,0.2-1.5
		c0.1-0.4,0.1-0.7,0.2-1c0.5-1.7,0.6-3.5,1.4-5.1c0.1-1.3,0.6-2.5,1.2-3.7c0.1-0.2,0.1-0.3,0.1-0.3c-0.1,0-0.2-0.1-0.2-0.1
		c-0.1,0.2-0.2,0.4-0.3,0.7c-1.1,1.9-0.2,4.6-2.5,5.9c-1-0.2-1.2-1-1.4-1.9c-0.2-2.2-0.1-4.4-0.2-6.5c0.4-3.1-0.6-6.3,0.7-9.4
		C35.1,9.1,35.5,9,36,9.2c0.2,0.8-0.3,2.7,1.6,1.2c0.9-0.8,1.5-1.9,3-2c1,2.1-0.5,3.5-1.2,4.6c0.6-1.8,4-2.9,2.7-6.1
		c6.5-5.4,7.9-4.4,11.5,0.3c1.3,1.8,3.1,1.2,4.8,0.9C60,7.9,62,8,62,10c0.1,3.3,2.4,3.5,4.5,3.8c3.3,0.5,5.3,2,6.3,5.3
		c0.7,2.3,3.3,3.2,4.8,4.9C79.7,26.3,79.7,27.8,77.2,29.4c-0.6-0.5-0.1-1.8-1.3-1.8c-2.3-1.8-6.1-0.3-7.9-3.5
		c0.1,1.4-0.1,2.6-0.4,3.9c-0.2,0.7-0.5,1.3-1,1.9c-1,1-2.3,0.6-3.4,0.7c-0.6,0.1-1.2,0.3-1.2,1c0,0.8,0.6,0.9,1.2,1
		c0.5,0,0.9,0.1,1.4,0.2c0.9-0.1,1.8,2.1,2.6-0.1c1.1-1.9,2.1-3.4,4.6-1.3c1.6,1.4,2.4-1,3.6-1.6C75.9,29.4,76.5,29,77.2,29.4z"/>
	<path class="st1" d="M41.2,79.7c-3.8,1.3-7.2,0.2-10.5-1.5c-1.5-1.6,0-4.1-1.7-5.6c-0.1-0.3-0.1-0.7,0-1.1c1.2-1.6,2.7-1.4,4.2-0.7
		c0.4-1,3.5,1.6,2.1-1.7c-0.8-2.4-1.9-4.7-1-7.3c0.3-0.2,0.6-0.3,0.9-0.3c1.1-0.5,0.8,2.5,2.3,0.9c2.7-3.6,4.9-3.4,8.8,1
		c-0.1-1.6-1.2-2.5-1.8-3.7c-1-2-0.5-3.9,0.9-5.5c0.3-0.2,0.6-0.3,1-0.3c0.7,0.2,1.2,0.7,1.7,1.3c1.3,1.3,2,2.9,2.8,4.4
		c0.5,1.3-0.5,2.5-0.2,3.9c-0.1,0.5,0.6-0.1,0.1-0.1c-0.2,0-0.3-0.1-0.1-0.3c1.3-1.7,0.8-3.3-0.4-4.9c-1-2.3-0.3-3.5,2.2-3.7
		c1.1-0.1,2.2-0.5,3.3-0.4c0.5,0,1,0.2,1.4,0.3c0.3,0.1,0.7,0.5,0.9,0c0.1-0.2-0.4-0.6-0.6-0.9c-1.3-2.3-4.4-3-5.1-5.8
		c1.6-2.3,3.7-2,5.9-1.1c0.7,0.1,1.4,0.4,2.1,0.7c0.6,0.3,1.2,0.7,1.8,1.1c1.8,1,3.5,2.1,3,4.6c-0.2,1.1,0,2.1,0.2,3.1
		c0.2,1.5,0.2,2.9-0.2,4.4c-0.2,0.7-0.5,1.4-0.7,2.1c-0.7,2.3-1.1,4.7-3,6.4c-1.1,1.1-2.2,2.1-3.7,2.3c-2.4,0.2-4.8,0.7-7.1,0
		c-1.9-1.9-3.6-2.3-5.1,0.4c-0.7,0.7-1.6,1.1-2.4,1.7c-0.9,0.6-0.9,1.5-1.2,2.4c-0.4,1.1-0.8,2.1-0.5,3.3
		C41.4,79.4,41.3,79.5,41.2,79.7z"/>
	<path class="st2" d="M36,9.2c-0.2,0-0.5,0-0.7,0c-1.5-1.3-0.9,0.7-1.4,0.9c-0.4,0.3-0.9,0.3-1.4,0.2c-0.1-0.1-0.2-0.1-0.3-0.2
		C32,10,31.9,9.9,31.8,9.9c-0.6,3.2-0.6,6.3,0.7,9.4c1,2.4-0.6,5.2,1.2,7.4c0.4,0.6,0.7,1.2,1,1.9c0.5,1.1,0.5,2.1,0,3.2
		c-0.6,1.4-1.6,2.1-2.7,0.8c-1.4-1.6-3.6-2.6-4.3-4.8c-0.4-1-0.8-2-1.3-3c0.6,1.9,1.7,3.7,1.6,5.8c-0.1,1.2-0.2,2.3-1.3,3
		c-1.2,0.5-2.3,0-3.4-0.4c-0.7-0.3-1.3-0.8-1.8-1.4c-1.9-2.7-1.9-6.4-4.6-9.1c0,2.5,1.1,4.5,1.8,6.6c0.6,2,0.2,3.1-2,3.3
		c-1.3,0-2.7-0.4-4-0.1c0.9-0.2,1.7-0.1,2.4,0.5c0.4,1.5-0.9,1.6-1.7,2.1c-0.8,0.3-1.6,0.4-2.3,0.8c1,0.7,2.1,1.2,2.7,2.4
		c0.8,1.7,2.3,1.6,3.8,1.5c0.9,0,1.8,0.1,2.3,1.1c0,0.4-0.1,0.7-0.3,1c-1.2,0.9-1.1,2.6-2.2,3.6c-1.2,0.6-2.4,0.9-3.7,0.4
		c-1.2-3-4.4-2.8-6.7-3.8c-2.3-0.6-3.6-1.5-1.8-4.1c1.2-1.8,1.6-4.1,3-5.7c1.7-2,4.3-2.8,7.7-1.9c-2.4-4.1-2.1-7.9-1.4-11.6
		c-0.8-2.8,0.5-4.4,3.2-4.4c2.4-0.1,5-0.6,7.3,0.7c1.2,1.9,2.3,3.8,3.5,5.8c-0.1-5,0.1-9.7,1.6-14.3c0.4-1.1,0.3-2.4,1.5-2.7
		c1.2-0.3,1.9,0.9,2.5,1.8C34.6,6.8,35.3,8,36,9.2z"/>
	<path class="st3" d="M15.8,73.7c-2.6-2.4-6.2-1.2-9.1-2.6c-1.9-0.9-2.6-1.7-2.2-3.9c0.8-5.1,3-10,2.3-15.3c0.6-0.5,0.2-1.8,1.5-1.7
		c2.5,0.9,2.3-2.2,3.8-2.7c2.8-1.3,4.9-0.8,6.3,2.2c0.6,1.3,1.4,2.6,2.7,3.4c3.5,2.3,3.7,3.3,1.2,6.5c-0.5,0.7-1.1,1.3-1.6,2.1
		c-2.2,1.9-4.4,3.9-6.5,6c2.2-1,4.7-0.5,6.7-2c0.5-0.2,1-0.2,1.5,0c3.3,1,2.4-2.1,3.3-3.5c0.8-1.5,2.1-1.8,3.4-1
		c1.3,0.8,1.6,2.2,1.1,3.6c-0.8,2-1.6,4.1-3.1,5.8c-0.9,1-1.8,2-2.9,2.9C21.3,74.8,18.5,75.7,15.8,73.7z"/>
	<path class="st4" d="M15.8,73.7c2.9,1.2,5.6,0.6,8.2-0.7c1.7-0.9,3.2-2.4,5.2-0.8c2.6,1.5,1.2,4,1.5,6c-0.6-0.1-1.2-0.3-1.4-1
		c-0.9-2.8-0.7-2-3.5-1.4c-2.3,0.5-5.1-0.7-7.7-0.6C17,75.2,16.2,74.7,15.8,73.7z"/>
	<path class="st5" d="M71.1,40.7c-2.2-5-2.3-5.2,2.5-6.7c1.5-0.5,2.4-1.6,3.6-2.3c0.3,0.3,0.6,0.6,0.9,0.8c0,1.2-0.9,2-1.2,3
		c-0.4,0.7-1,1.3-1.5,1.9C74,38.5,73.1,40.4,71.1,40.7z"/>
	<path class="st6" d="M53.3,81.9c0,0.2,0,0.5,0,0.7c-0.2,0-0.5,0-0.7,0c-3.1,0.1-5.6-0.3-4.6-4.5c0.3-1.3-0.4-2.7-2.1-3
		c-0.6-0.7-0.7-1.5-0.2-2.3c2.4-1.4,3.6,0.1,4.6,1.9c0.7,1.4,1,3,1.3,4.5c0.3,0.9,0.9,1.6,1.7,2.2C53.1,81.7,53.2,81.8,53.3,81.9z"
		/>
	<path class="st7" d="M8.3,50.4c-0.5,0.5-1,1-1.5,1.5c-0.2-3.3,0.7-6.1,4.6-7.4c-1.7-1.2-3.6-0.9-4.6-2.4c2.5,0.8,6.3-0.8,6.7,3.7
		c-0.1,0.1-0.2,0.3-0.3,0.4C11.1,47.1,10.3,49.5,8.3,50.4z"/>
	<path class="st8" d="M42,6.9c1.5,0,2.6,0.2,1.6,2.1c-1.4,2.3-3.8,3.8-4.7,6.6c-0.1,0.3-0.9,0.7-1.2,0.6c-0.8-0.3-0.6-0.9-0.3-1.5
		c1.1-2,2.5-3.9,3.1-6.2C41,7.9,41.5,7.4,42,6.9z"/>
	<path class="st9" d="M24.7,15.2c-1.9,0-3.8,0.1-5.6,0c-2.9-0.3-4.5,0.9-4.9,3.8c-1.9-3.1-1.2-5.2,2.2-5.1
		C19.2,13.9,22.4,12.3,24.7,15.2z"/>
	<path class="st10" d="M26.3,33.2c1.1-0.8,0.7-2,0.8-3c1.1-0.7-0.7-2.8,1.5-3c0.4,2.8,4.2,2.7,4.2,6.3c1.5-2,2-3.3,1.1-4.8
		c0.7-1.1-1-2.2,0.1-3.2c0.5-0.2,1-0.2,1.4,0.3c0,0.6,0.2,1.2,0.7,1.5c0.1,0.2,0.2,0.3,0.3,0.5c0.4,1.1-0.7,2.4,0.5,3.3
		c-0.1,1.1-0.2,2.1-0.4,3.3c2.3-0.1-0.2-4.7,3.3-3.3c0.2,0.2,0.4,0.5,0.4,0.8c-0.1,1.1,0.2,2.1,0.3,3.2c0,0.5-0.2,1-0.6,1.2
		c-1.1,0.5,0,0.3,0.1,0.5c0.4,0.2,0.8,0.5,1.1,0.8c1.1,1.6,2.2,3.1,0.8,5.1c-1.2,0.3-1.9-0.2-2.4-1.3c0.4-0.9,0.4-1.4-0.8-1.1
		c-0.7,0-1.3,0-2-0.1c-2.6-0.6-3.2-3.1-4.8-4.8c-0.3-0.4-0.6-0.8-0.9-1.2c-0.4-0.6-0.7-1.6-1.5-1.5c-1.1,0.1-0.6,1.4-1,2.1
		c-0.1,0.3-0.3,0.6-0.6,0.9c-0.9,0.2-1.4-0.2-1.9-0.8C25.8,34.2,25.8,33.6,26.3,33.2z"/>
	<path class="st11" d="M66.8,27.9c0.9-2.1-0.1-4.2-0.3-6.6c1.8,5,7.2,3.2,10,5.9c0.6,1.2-1,1.9-0.7,3c-0.9,1.3-1.9,2.6-3.6,3
		c-0.5,0.1-1,0.6-1.6-0.2c-1.3-1.9-1.3-1.8-3.1,0.2c-0.4,0.5-0.9,0.5-1.4,0.2c-1.7-2.7,2.1-2.9,2.1-4.8c0-0.1-0.2-0.2-0.3-0.2
		c-0.1-0.1-0.2-0.1-0.4-0.1C67.2,28.3,66.9,28.2,66.8,27.9z"/>
	<path class="st12" d="M51.7,16.7c-3.3,0.1-2.6-3.5-4.4-4.9c-0.8-0.6-0.6-2.3-1-3.5c-0.3-1-0.6-2.2,0.7-2.3c1.2-0.2,3.1-0.9,3.6,0.6
		c0.5,1.7,1.9,2.6,2.6,4.1c0.5,0.8,0.3,1.7,0.2,2.6c-0.1,1.1,0,2.2-0.8,3.2C52.5,16.7,52.1,16.8,51.7,16.7z"/>
	<path class="st13" d="M39.8,30.3c1.4-3.1,2.8-6.2,4.3-9.6c2.3,2.1,1.5,4,0.7,6.1c-0.8,2-1.6,4.2,1.6,4.9c0.3,0.3,0.4,0.6,0.4,0.9
		c-0.1,1.1-0.9,1.9-1.5,2.7c-0.7,0.9-1.5,1.6-2.7,1.4c-1.2-0.4-1.9-1-1.4-2.3c0.8-1,0.3-2.1,0.2-3.2C41.8,29.5,40.3,30.8,39.8,30.3z
		"/>
	<path class="st14" d="M52.5,13c0.2-0.8,0.5-1.5,0.7-2.3c2.2,0,4.1,1.1,6.5,0.3c2.1-0.7,1.8,1.3,1.3,2.6c-1,2.4-3.6,2.3-5.5,3.2
		c-0.3,0.2-0.6,0.3-1,0.3c-0.5-0.1-0.9-0.5-1.1-1C53.1,15.1,53.6,13.8,52.5,13z"/>
	<path class="st15" d="M58.5,47.4c-2.1-0.7-4.2-0.9-6,0.7c-0.1,0.1-0.3,0.2-0.4,0.2c-0.3-0.1-0.6-0.3-0.7-0.6c0-1.8-1.9-1.9-2.6-3.1
		c-0.2-0.3-0.2-0.6-0.1-1c1.3,0,2.6,0,3.8-0.8c2.1-0.1,3.1-2.1,4.8-2.9c0.7-0.3,1.3-0.5,2-0.1c0.6,1.1,0.1,1.7-0.6,2.5
		c-0.6,0.8-2.4,1-1.8,2.3c0.5,1.1,2,1.2,3.3,1.1c1,0,2,0,2.9,0c0.2,0.4,0.2,0.7-0.1,1C61.5,48.1,59.9,47,58.5,47.4z"/>
	<path class="st16" d="M48.7,43.7c0,0.2,0,0.5,0,0.7c-0.1,0.1-0.3,0.2-0.4,0.3C47,44.9,46.5,44,46,43c-0.7-1.5-0.7-3.6-3.1-3.7
		c-0.6-0.6-0.6-1.2-0.2-1.9c2.4-0.8,4.9-1.2,6.2-3.9c0.4-0.8,1.3-1,2.2-0.5c0.6,1.3,0.3,2.3-0.9,3.1c0,2.2,0.3,4.4-1.8,6
		C47.9,42.6,48.2,43.3,48.7,43.7z"/>
	<path class="st17" d="M35.3,25.7c-0.5,0-1,0-1.5,0c-0.6-0.5-0.3-1.2-0.4-1.9c0.1-0.3-0.1-0.7,0.3-0.9c-0.5,0.3-0.2,0.8-0.3,1.3
		c-0.2,1,0.4,2.1-0.4,3.1c-2.5-2.1,0-5.2-1.5-7.5c0.6-3.2-0.8-6.6,0.7-9.7c0.5,0,1,0,1.5,0c1.6,2.8,0,6.2,1.5,9
		C35.2,21.2,35.2,23.4,35.3,25.7z"/>
	<path class="st18" d="M54.8,16.7c0.3,0,0.5,0.1,0.8,0.1c0,1-2.4,2.5,0.9,3c1.7,0.2,0.1,2,0,3.1c-0.2,1.5-1.9,1.9-2.9,1.7
		c-1.6-0.3-0.3-1.8-0.4-2.5c-0.4-1.8-1.9-3.2-1.3-5.3c0.2,0,0.4,0,0.6,0c0.1,0,0.3,0.1,0.4,0.1C53.5,17.1,54.1,17.1,54.8,16.7z"/>
	<path class="st19" d="M50.3,36.2c0.2-1,0.5-2,0.7-3c-1-1.2-2.9-0.1-3.8-1.5c0.2-0.4,0.5-1.2,0.7-1.2c3.6,0.7,7.3-0.5,11,0.4
		C55.8,32.3,52.4,33.3,50.3,36.2z"/>
	<path class="st20" d="M67.4,27.9c0.5-0.6,1.1-1.8,1.9-0.9c0.8,0.9,0.4,2.4-0.5,3.2c-1,0.9-2.8,1.1-2.8,3c-0.5,0.5-1,0.4-1.5,0
		c-0.5,0-1,0-1.5,0c-1.3,0.3-1.7-0.5-1.8-1.6c-0.3-1.5,1-1.7,1.9-2.1c1,0,2,0,2.9,0C66.7,29.1,67.3,28.7,67.4,27.9z"/>
	<path class="st21" d="M47.2,31.7c1.3,0.3,3.3-0.9,3.8,1.5c-0.6,0.1-1.3,0.2-1.5,0.9c-1.1,3.3-3.6,4-6.7,3.6c-0.8,0.6-1.5,0.5-2.3,0
		c-0.3-0.2-0.5-0.5-0.8-0.7c0.8-1.1,2-0.4,3-0.8c1.2,0.1,1.5-1,2.3-1.5c1.2-0.2,1.9-0.9,1.5-2.2c0-0.3,0-0.5,0-0.8
		C46.7,31.7,47,31.7,47.2,31.7z"/>
	<path class="st22" d="M63,46.6c0-0.2,0-0.5,0-0.7c0.8,0,1.7-0.1,2.3,0.7c0.8,1.1,2.5,1.2,2.7,2.9c0,0.7-0.2,1.3-0.6,1.9
		c-0.6,0.8-1.2,1.6-2,2.2c-0.3,0.1-0.6,0-0.9-0.2c0.8-2.7-1.7-3.1-3-4.4c-0.3-1,1.8,0.4,1.1-1.1C62.5,47.4,62.6,47,63,46.6z"/>
	<path class="st23" d="M66.7,46.7c2.6-1,2.6-1,1-2.8c-0.1-0.2-0.4-0.2-0.6-0.3c0.2-0.2,0.4-0.6,0.7-0.7c1.1-0.2,1.5-1.7,2.8-1.5
		c0.2,0.3,0.4,0.6,0.4,0.9c-0.2,2,0.1,4,0.5,5.9c-0.1,0.8-0.4,1.3-1.1,1.6C68.5,49.6,67.1,48.8,66.7,46.7z"/>
	<path class="st24" d="M35.2,18.9c-2.2-2.7-1.3-5.9-1.5-9c0.1-0.5-0.3-1.3,0.4-1.5c0.2-0.1,0.7,0.5,1.1,0.8
		C35.2,12.4,35.2,15.7,35.2,18.9z"/>
	<path class="st25" d="M56.7,28.7c-1.1-0.2-2.7,0-2.8-1.6c-0.1-1.2,1-1.4,2.1-1.4c1.4,0,2.5,0.7,2.6,2.1
		C58.8,29.2,57.4,28.5,56.7,28.7z"/>
	<path class="st26" d="M59.3,39.9c-0.5,0.2-1,0.5-1.5,0.7c-0.6-0.4-1.1-0.9-1.5-1.5c0.9-0.8,1.8-1.7,2.8-2.4c0.5-0.4,0.6-1.9,1.6-1
		c0.5,0.5,1.7,1.6,0.2,2.6C60.2,38.8,59.8,39.4,59.3,39.9z"/>
	<path class="st27" d="M48.7,25.9c0.1,1.7-0.1,2.8-1.9,2.8c-0.8,0-1.7-0.1-1.1-1.2c0.6-1.2,0.3-3.1,1.8-3.4
		C48.9,23.7,48.5,25.4,48.7,25.9z"/>
	<path class="st28" d="M56.3,39.2c1,0,1.4,0.5,1.5,1.5c-1.9,0.4-2.3,4.2-5.3,2.3C53.3,41.3,55,40.4,56.3,39.2z"/>
	<path class="st29" d="M37.5,20.4c0.5-0.8,1-1.6,1.6-2.6c1.8,2.8-0.6,4.8-0.9,7.1C36,23.7,37.4,22,37.5,20.4z"/>
	<path class="st10" d="M37.5,20.4c0.2,1.5-0.6,3.2,0.7,4.5c-1.3,1.5,0,3.8-1.5,5.3c-1.2-0.8-0.3-2.1-0.8-3l0,0
		C37.1,25.1,36.1,22.5,37.5,20.4z"/>
	<path class="st30" d="M66.7,46.7c0.9,1.4,2.5,1.9,3.8,3c0.4,0.5,0.4,0.9,0.2,1.5c-1.6,0.6-2.3-0.5-3.1-1.5c0.1-1.6-2.9-1-2.2-3
		C65.8,46.7,66.2,46.7,66.7,46.7z"/>
	<path class="st31" d="M39.8,30.3c1-0.3,1.6-2.4,3-1c0.7,0.7-0.3,1.2-0.8,1.6c-0.7,0.6-1,2.5-2.4,0.7c0-0.3,0-0.5,0.1-0.8
		C39.8,30.7,39.8,30.5,39.8,30.3z"/>
	<path class="st11" d="M63,29.5c-1.5,1.2-2.5,2.5,0,3.7c-1.1,1.1-2,0.8-2.2-0.7C60.6,30.9,60.6,29.2,63,29.5z"/>
	<path class="st32" d="M36,27.2c1.1,0.8,0.6,2,0.8,3c0,0.2,0,0.5,0,0.7C34.9,30.7,34.8,30.2,36,27.2z"/>
	<path class="st33" d="M75.8,30.2c-1-0.7-1-0.7,0.7-3c2,0.2,0.4,1.5,0.7,2.2c0,0,0,0,0,0C76.7,29.7,76.3,30,75.8,30.2z"/>
	<path class="st34" d="M64.5,33.2c0.5,0,1,0,1.5,0c0.5,0,1,0,1.5,0c0.1,0.5,0.8,1.5,0.3,1.6C66.5,35,65.2,34.7,64.5,33.2z"/>
	<path class="st35" d="M67.4,27.9c0.5,1.4,0.4,2.3-1.4,1.6c0.3-0.5,0.5-1,0.8-1.5C67,27.9,67.2,27.9,67.4,27.9z"/>
	<path class="st36" d="M26.2,70.7c1.2-1.8,1.5-4,3-5.7c0.8-1,0.3-2.3-0.6-2.9c-1.1-0.7-2.1-0.4-2.4,1.1c-0.3,0.4-0.6,0.8-1.1,1
		c-0.3,0-0.6-0.2-0.8-0.5c-0.3-1,0.1-2,0.4-2.9c0.2-0.6,0.6-1.2,1-1.7c0.6-0.6,1.2-1.3,1.8-1.9c1.1-0.8,2.2-2.1,3.5-0.2
		c0.3,0.9-0.8,1.4-0.8,2.3c1,0,2-0.1,2.6-1.1c0.3-0.6,0.7-1,1.3-1.2c2.6,0.6,0.4,2.8,1.3,3.9c0,0.3-0.1,0.6-0.3,0.9
		c-1.1,2.6,0.5,5,0.8,7.5c-0.2,0.1-0.3,0.1-0.5,0.2c-1.2-0.3-1.7-1.1-1.5-2.4c-0.6,0.7-0.6,1.5-0.6,2.3c0.2,1,0.4,2.1-0.5,2.9
		c-1-1.7-2.4-1-3.7-0.7C28.6,69.8,27,71.9,26.2,70.7z"/>
	<path class="st37" d="M60.8,68.6c2-1.6,2-4.1,2.9-6.2c1.1,0.7,0.8,2.2,1.7,3.1c1.6,1.8,1.7,3.8,1,6c-0.3,0.5-0.7,0.8-1.2,1
		c-0.7,0-1.3-0.3-1.7-0.8c-0.9,0.1-0.2,0.7-0.3,1c-0.3,1.6-0.3,3.9-1.9,3.9c-2,0.1-2.2-2.2-2.4-3.9C59,71,60.9,70.3,60.8,68.6z"/>
	<path class="st38" d="M65.2,53.5c0-1.1,0.5-1.9,1.5-2.3c1.9,0,3,0.8,1.8,2.7c-0.8,1.1-0.5,2.4-1,3.5c-0.7,1.6,0.2,2.9,0.7,4.3
		c0.3,0.8,0.6,1.6,0.2,2.5c-1.4,0.3-2.4,1.7-4,1.3c-0.5-1.5,0.3-3.1,0.1-4.6c0.1-1.7,0.1-3.4,0.2-5.1C65,55,64.4,54,65.2,53.5z"/>
	<path class="st39" d="M35.2,61.7c0-0.3,0-0.5,0-0.8c0.5-0.8,1.4-1.1,2.3-1.4c1.5-0.4,3-1.1,4.6-0.8c1,0.2,1.9,0.5,2.8,0.7
		c2,1.5,2.8,3.4,2,6.1c-1.4-1.4-2.3-3.2-4-4.1c-2.3-1.3-4-1.2-4.8,1.7c-0.7,0.9-1.4,1.6-1.9-0.2C36.2,62.4,35.7,62,35.2,61.7
		L35.2,61.7z"/>
	<path class="st40" d="M56.2,54.9c-1.3,0.2-2.7,0.6-4,0.5c-2.6-0.2-1.8,1.1-1.3,2.5c-0.4,0.4-0.1,1.2-0.8,1.5
		c-1-1.3-1.9-2.6-2.9-3.9c1.1-1.1,0.2-3.4,2.2-4.1c0.9-0.1,1.7,0.2,2.5,0.6c1.4,0.7,3.1,0.8,4.3,1.9C56.5,54.3,56.5,54.6,56.2,54.9z
		"/>
	<path class="st41" d="M50.3,70.6c2.5,0,4.9,0.1,7.4,0.1c0.5,0.4,0.5,0.9,0.4,1.4c-0.5,1.7-2.3,2.1-3.4,3.1l0,0
		c-0.2,0.3-0.5,0.4-0.9,0.6c-0.5,0.1-1,0-1.5-0.4c-0.2-0.3-0.1-0.6,0.1-0.9c0.2-0.3,0.4-0.6,0.5-0.9c-0.1,0.3-0.3,0.6-0.5,0.9
		c-1.9,0-2.6-1.3-3.2-2.8C49.4,71.1,49.8,70.7,50.3,70.6z"/>
	<path class="st42" d="M42.7,77.4c-0.8,1.4,0.7,1.4,1.2,2.1c0.9,1.2,2.3,2.3,1.5,4.2c-2.1-0.7-2.8-2.7-4.2-4c-2-1.3-0.8-2.5,0-3.8
		C42.6,75.5,42.3,76.8,42.7,77.4z"/>
	<path class="st43" d="M45,59.4c-0.7,0.9-1.5,0.9-2.3,0c-0.5-0.9-1.5-1.3-1.9-2.3c0-0.3,0-0.7,0.2-1c0.6-1,1.9-1.3,2.5-2.3
		c0.3-0.4,0.7-0.7,1.3-0.7c0.5,0.1,0.9,0.5,1,1C45.5,56,44.1,57.5,45,59.4z"/>
	<path class="st44" d="M49.5,51.9c-1.2,1,0.5,3.6-2.2,3.7c-0.3-0.5-0.5-1-0.8-1.4c0.2-1.6-1.6-2.1-1.9-3.5c0-1.8-0.1-3.7,0.8-5.4
		c0.9-0.7,1.3-0.1,1.7,0.6c0.3,0.8,0.4,1.6,0.6,2.4c0.1,0.3,0.2,0.6,0.4,0.9C48.3,50.2,49.9,50.6,49.5,51.9z"/>
	<path class="st45" d="M50.3,70.6c-0.3,0.3-0.6,0.6-0.9,0.9c-0.7,0.9-1.8,0.6-2.7,0.8c-0.3,0.1-0.6,0.1-1,0.1
		c-0.5-0.2-0.8-0.6-0.9-1.1c0.2-0.3,0.5-0.5,0.6-0.9C47.2,66.9,48.8,67.3,50.3,70.6z"/>
	<path class="st46" d="M26.2,70.7c1.7,0.2,2.3-1.8,3.8-2c1.1,1.3-0.7,1.8-0.8,2.8c0,0.2,0,0.5,0,0.7c-1.7,0.3-3.5,0.5-5.2,0.8
		C24.5,71.9,25.3,71.2,26.2,70.7z"/>
	<path class="st15" d="M52.5,48.2c2.1,1.4,4.4,2.6,5.2,5.3c-0.3,0.3-0.6,0.4-1,0.5c-0.9-0.2-1.9,0-2.5-0.9
		C53.6,51.5,51.8,50.3,52.5,48.2L52.5,48.2z"/>
	<path class="st47" d="M42.7,77.4c-0.5-0.5-1-1-1.5-1.5c0.1-1.2-0.5-2.7,1.4-3.1c1.2,0.7,1.9-1.2,3.1-0.7l0.1,0.1
		c0.2,0.1,0.3,0.3,0.2,0.4c-0.1,0.1-0.2,0.2-0.2,0.2c0,0.7,0,1.5-0.1,2.2l0,0c-0.9,0.2-1.8,0.6-2.3,1.5C43.2,76.9,43,77.1,42.7,77.4
		z"/>
	<path class="st48" d="M50.2,59.5c0.1-0.6,0.2-1.2,0.8-1.5c2.7,2.5,0.9,4.6-0.8,7C50.2,62.9,50.2,61.2,50.2,59.5z"/>
	<path class="st49" d="M33,72.2c0.1-1.1-0.3-2.1-0.7-3c1.3-1.5,2.4,0.5,3.7,0.1l0.1,0c0.6,0.8,1.2,1.7,1.8,2.5
		C36,70.8,34.5,71.5,33,72.2z"/>
	<path class="st50" d="M37.5,78.2c-0.8,0.9-2.1,1.2-2.5,0.2c-0.8-1.7,0.4-3,1.8-4C38,75.5,37.3,76.9,37.5,78.2z"/>
	<path class="st24" d="M37.5,78.2c-1.2-1.1-0.6-2.5-0.8-3.8c1.2-1,2.2-1.1,2,0.8C38.7,76.2,38.5,77.4,37.5,78.2z"/>
	<path class="st51" d="M57.8,72.2c0-0.5,0-1,0-1.5c1-0.7,2-1.4,3.1-2.1c1.3,2-0.2,2.8-1.5,3.6C58.7,72.7,58.2,72.6,57.8,72.2z"/>
	<path class="st52" d="M57,53.4c0.3,0,0.5,0,0.8,0c0.8,0.8,3.1,0.8,2.3,2.2c-1.1,1.8-2.5-0.4-3.8-0.7c0-0.2,0-0.5,0-0.7
		C56.3,53.8,56.8,53.7,57,53.4z"/>
	<path class="st53" d="M45.1,51.2c1.3,0.1,2.3,0.8,2.6,2c0.2,0.8-0.7,0.8-1.2,0.9l-0.3,0c0,0-0.3,0-0.3,0c-0.3-0.3-0.6-0.6-0.9-0.9
		C44.3,52.6,44.4,51.9,45.1,51.2z"/>
	<path class="st54" d="M45.7,72.2c-0.8,0.6-1.4,1.5-2.3,1.9c-1.5,0.6-0.7-0.6-0.7-1.1c0.7-0.5,1.5-1,2.2-1.5
		C45.2,71.6,45.5,71.9,45.7,72.2z"/>
	<path class="st36" d="M35.2,61.7c1.5-0.5,1.2,2.6,3,1.5c-0.1,0.7-0.1,1.6-1,1.7c-0.7,0.1-1-0.6-1.2-1.2
		C35.8,63.1,35.5,62.4,35.2,61.7z"/>
	<path class="st55" d="M64.4,60.8c1.5,1.5-0.4,3.1,0.1,4.6c0.2,0.2,0.3,0.3,0.2,0.5c-0.1,0.2-0.2,0.2-0.2,0.2
		c-1.1-1.1-0.5-2.5-0.8-3.8C63.9,61.8,64.1,61.3,64.4,60.8z"/>
	<path class="st30" d="M63,46.6c0,0.5,0,1,0,1.5c-1,0.5-1.9-0.4-2.9-0.1c-0.5-0.2-1.1-0.4-1.6-0.6C59.8,46,61.5,47,63,46.6z"/>
	<path class="st56" d="M60.1,48.1c1-1.2,2-0.3,2.9,0.1c0.2,1.6-1.1,0.5-1.6,0.8C61,48.7,60.6,48.4,60.1,48.1z"/>
	<path class="st57" d="M65.2,53.5c0,0.8,0.1,1.6-0.7,2.1c-0.4-0.7-1.1-1.5-0.1-2.3C64.7,53.4,65,53.5,65.2,53.5z"/>
	<path class="st58" d="M22.5,66.2c-0.5,0-1,0-1.5,0c-0.1-0.1-0.2-0.2-0.3-0.3c-0.5-0.9-0.1-1.7,0-2.6c0.1-0.6-0.9-0.9-0.5-1.6
		c-0.9-1.9,1.3-2,1.9-3.1c1-2.1,2.2-4-1.5-4.4c-2.1-0.2-2.6-2.4-3-3.5c-1.1-3.4-3.1-3.2-5.7-2.5c-0.6-1.5,0.8-1.6,1.5-2.3
		c0,0,0,0,0,0c1.2-0.7,2.4-0.8,3.8-0.7c0.8-0.6-0.2-2.3,1.3-2.5c1,0.2,1.6,0.8,1.9,1.7c0,0.6-0.2,1-0.6,1.4c0.2,0.8-2.7-0.1-0.8,1.6
		c0.8,3.8,2.8,0.6,4.2,0.7c0.7,0.5,0.2,2.1,1.7,1.8c0.3,1-0.1,1.6-1,1.9c2.4-0.3,2.3-3,3.9-4.1c0.9-0.5,1.8-0.5,2.8-0.5
		c0.6,0.1,1.2,0.3,1.7,0.7c1.3,2.1,0.5,3.9-1,5.4c-0.6,0.5-1.4,0.5-2.1,0.4c-3.6-0.1-2.5,3.2-3.7,4.9c-0.3,0.6-0.7,1.1-0.9,1.7
		c-0.3,1.2-1.1,2.3,0.1,3.5l0.1,0C25,65.7,23.9,66.1,22.5,66.2z"/>
	<path class="st59" d="M41.3,56.5c0,0.2,0,0.5,0,0.7c-0.4,0.7-0.9,1.2-1.8,0.8c-1.5-1.5-2.1-3.3-2.2-5.4c-0.1-1,0-1.9-0.7-2.7
		c-0.2-0.2-0.4-0.5-0.5-0.8c-0.4-0.7-0.8-1.3-1.2-2c-0.2-0.3-0.3-0.6-0.4-0.9c-0.4-1-0.6-2.1-1.3-3c-0.2-0.2-0.4-0.5-0.6-0.7
		c-0.5-0.6-1.1-1.1-1.8-1.5c-2.3-2-4.8-3.7-7.8-4.6c-0.9-0.5-1.9-1-2.4-2c-0.1-0.3-0.2-0.7-0.1-1.1c0.2-0.8,0.5-1.3,1.3-1.6
		c0.6,0,1.2,0.2,1.5,0.7c0.8,1.1,2.2,1.3,3,2.3c0.5,0.2,1,0.5,1.5,0.7c2.7,0.3,5.2,0.9,6.7,3.5c0.9,1.9,2.1,3.7,3,5.6
		c0.4,0.7,0.9,1.3,1.5,1.9c1,1.3,2.4,2.5,1.9,4.4c-0.1,0.2-0.5,0.3-0.5,0.5c0.4-0.4,0.8-0.4,1.3,0C42.7,53.2,42.2,54.8,41.3,56.5z"
		/>
	<path class="st60" d="M21.8,31.7c-0.3,0.5-0.5,1-0.8,1.5c-2,1-3.7,1-4.5-1.5c0.7-0.2,2.1,0.6,1.4-1.5c-1.1-3.1-3.1-6.2-1.7-10.1
		C19.3,23.5,21.2,27.3,21.8,31.7z"/>
	<path class="st61" d="M19.5,41.4c-0.5-0.9-1.4-0.7-2.3-0.8c-0.7-1-1.8-1.6-2.9-2.1C13.1,38,13,37,14.1,36.1
		c1.5-0.5,2.6-1.9,4.3-1.9c1.3,0.2,1.4,1.5,2,2.3c1.1,1.8,2.6-0.1,4,0.5c1,0.4,2.3,0.5,2.6,1.7c0.2,1.2-1.1,1.4-1.9,2
		c-0.8,0.5-1.6,0.9-2.5,1.1C21.6,42.1,20.5,42.4,19.5,41.4z"/>
	<path class="st11" d="M14.3,36.2c-0.4,1-0.9,1.9,1,1.8c1.7-0.1,2.8,0.7,2,2.7c-1.6,1-3.2,0.5-3.9-0.8c-1-1.9-1.8-3.6-4.4-2.7
		c-0.4,0.1-0.5-0.2,0.8-1.7c1.4,0.4,2.8-0.5,4.1,0.3C14,35.9,14.1,36.1,14.3,36.2z"/>
	<path class="st62" d="M32.3,9.9c0.5,3.3,0.7,6.6-0.7,9.7c-1.1-3.5-2-6.9,0-10.4c0-0.1,0.2-0.1,0.3-0.2C31.9,9.4,32.1,9.7,32.3,9.9z
		"/>
	<path class="st63" d="M20.2,36.2c-1.3,0.2-0.8-1.2-1.4-1.6c-1.2-0.7-3,0.1-3.8-1.5c-1.6,0-3.1,0-5.7,0c2.6-2.3,5-1.3,7.2-1.5
		c1.3,1.1,2.9,1.4,4.5,1.5c0,0.3,0,0.6-0.1,0.9c-0.2,0.6,0.1,1.3-0.4,1.9C20.4,36,20.3,36.1,20.2,36.2z"/>
	<path class="st60" d="M28.5,27.2c-0.5,1-1,2-1.5,3c0.1-2.1-1.3-3.7-2-5.5c-0.3-0.8-0.6-1.9,0.3-2.3c1.1-0.5,1.4,0.6,1.8,1.4
		C27.6,24.9,28,26,28.5,27.2z"/>
	<path class="st60" d="M25.8,20.8c-3.2-0.1-4.9-1.1-5.9-3.1c-0.1-0.2,0.3-0.8,0.4-0.8C22.8,16.8,23.4,19.3,25.8,20.8z"/>
	<path class="st11" d="M15,33.2c1.4,0.2,2.7,0.5,3.8,1.5c-1.8-0.4-2.2,3.2-4.5,1.5l0,0c-0.5-0.5-1.4-0.6-1.5-1.5
		C13.5,34.2,14.2,33.7,15,33.2z"/>
	<path class="st64" d="M19.5,41.4c1-0.2,2-0.5,3.1-0.7c0.4,0.3,1,0.5,0.9,1.1c-0.7,1.3-1.9,2-3.2,2.5c-0.5-0.5-1-1-1.5-1.5
		c-0.5-0.5-0.4-1,0.1-1.5C19,41.5,19.3,41.4,19.5,41.4z"/>
	<path class="st65" d="M12.7,34.7c0.5,0.5,1,1,1.5,1.5c-1.5-0.2-3.2,0.6-4.5-0.7C10.7,34.9,11.7,34.6,12.7,34.7z"/>
	<path class="st66" d="M33,27.2c0-1.3,0-2.5,0-3.8c0.2-0.4,0.5-0.4,0.7,0c0,0.8,0,1.5,0,2.3c0.3,1,1.3,2,0,3
		C33.5,28.2,33.2,27.7,33,27.2z"/>
	<path class="st60" d="M26.2,34.7c-1.2-0.4-3-0.2-3-2.3c1,0.3,2,0.5,3,0.8C26.2,33.7,26.2,34.2,26.2,34.7z"/>
	<path class="st61" d="M18.8,41.4c0,0.5,0,1-0.1,1.5c-0.5,0.7-1,1.5-1.5,2.2C17.3,43.7,17,42.2,18.8,41.4z"/>
	<path class="st67" d="M20.2,61.7c0.1,0.9,2.8-0.8,1.5,1.5c-0.9,0.8-2.8,1.4-0.7,3l0,0c-2.6,2.8-5.9,2.4-9.2,2.2
		C15.1,66.6,16.6,62.9,20.2,61.7z"/>
	<path class="st68" d="M17.2,57.9c-2.8,2.4-7,2.9-8.7,6.7c-0.2,0.4-0.9,0.7-1.3,0.3c-0.3-0.3-0.4-0.9-0.5-1.3
		c-0.2-1.6,0.9-2.8,1.5-4.2c2.1-1.2,4.5-0.9,6.7-1.5l0,0C15.8,57.3,16.5,57.3,17.2,57.9z"/>
	<path class="st69" d="M13.5,45.9c-0.5,0.8-1,1.5-1.5,2.3c-0.6,1.1-1.1,2.2-1.7,3.2C10,52,9.6,52.6,8.9,52.3C8,52,8.3,51.1,8.3,50.4
		C9.4,48.2,10.4,45.9,13.5,45.9z"/>
	<path class="st70" d="M15,57.9c-2.1,1.3-4.2,2.1-6.7,1.5C9.9,56.2,12.2,55.9,15,57.9z"/>
	<path class="st67" d="M22.5,66.2c0.8-0.7,1.5-1.5,2.3-2.2c0.5-0.3,1-0.5,1.5-0.8c0.3,2.2-1.4,3.2-2.6,4.4c-0.4,0.4-1.1,0.9-1.5,0.2
		C21.9,67.5,22.4,66.8,22.5,66.2z"/>
	<path class="st71" d="M15,52.2c-1.7,1.4-3.1,1.7-4.6,1.6C11.4,52.5,12.6,51.7,15,52.2z"/>
	<path class="st70" d="M17.2,57.9c-0.7,0-1.5,0-2.2,0c0-1.1,0-2.2,1.5-2.3c0.4,0.4,0.8,0.8,0.8,1.5C17.3,57.4,17.3,57.7,17.2,57.9z"
		/>
	<path class="st68" d="M17.3,57.2c-0.6-0.3-0.7-0.9-0.8-1.5c0.7,0.1,1.5-0.2,1.8,0.6C18.6,57.1,17.8,57,17.3,57.2z"/>
	<path class="st72" d="M22.3,72.4C20.9,73,20.1,73.2,19,73C19.8,71.8,20.7,72.2,22.3,72.4z"/>
	<path class="st6" d="M43.5,76.7c0.1-1.4,0.7-2.3,2.3-1.5C45.2,76,44.3,76.3,43.5,76.7z"/>
	<path class="st73" d="M63.8,74.4c-1,1.3-2,2.6-3,3.8c-0.5,0.4-1,0.5-1.5,0c0.2-3.5-2.4-2.9-4.5-3c0.3-1.7,2-2.1,3-3
		c0.5,0,1,0,1.5,0c0.5,1.2,1,2.5,1.6,3.9c2.3-2.3,0.8-5.4,2-8c1.5,1.1,0.8,2.4,1,3.4c0.4,0.6,0.7,1.2,0.6,2
		C64.2,73.8,64,74.1,63.8,74.4z"/>
	<path class="st73" d="M54,75.2c0.2,0,0.5,0,0.7,0c0.6,2.5,1,4.9-1.5,6.8c0,0,0,0,0,0C51.6,79.5,51.9,77.2,54,75.2z"/>
	<path class="st74" d="M59.2,78.2c0.5,0,1,0,1.5,0c-0.5,1-1,2-1.5,3c-0.6-0.1-1.6-0.2-1.6-0.4C57.5,79.6,58.2,78.7,59.2,78.2z"/>
	<path class="st75" d="M45.8,72.9c0-0.2,0-0.4,0-0.6c1.1-0.9,2.3-0.9,3.6-0.8c1,1,2.1,2,3.1,2.9l0,0c0,0.3,0,0.5,0,0.8
		c0.7,2.1,0.4,3.9-1.5,5.2c-1.1-1.3-1.1-2.9-1.4-4.4C49.1,73.9,47.9,72.9,45.8,72.9z"/>
	<path class="st76" d="M51,80.4c0.8-1.7,1.5-3.3,1.5-5.2c0.5,0,1,0,1.5,0c-0.8,2.2-0.8,4.5-0.8,6.7C52.1,82,51.1,81.9,51,80.4z"/>
	<path class="st59" d="M45.1,51.2c-0.1,0.7-0.1,1.4-0.2,2.1c-0.2,0.3-0.5,0.5-0.7,0.8c-3.4,0.7-2.5-2.5-2.6-3.6
		c-0.3-2.7,0.7-5.5,0.4-8.3c-0.5-1.5-0.5-3.2-1.5-4.5c0.8,0,1.5,0,2.3,0c0,0.6,0.1,1.2,0.7,1.5c1.6,0.5,2,2,2.3,3.4
		c0.2,0.8,0.8,1.7,0.1,2.6C45.6,47.2,46,49.3,45.1,51.2z"/>
	<path class="st77" d="M42,42.2c1.3,2.5,1,4.8,0.3,7.5c-0.3,1.3-0.5,3.7,1.9,4.5c-0.1,1.9-2,1.4-2.9,2.3c-0.4-1.8,0.6-3.7-0.8-5.3
		l0,0c-0.1-1.8-1.4-3.1-2.3-4.5c1.5-0.8,2.1-1.8,1-3.4c-0.6-0.9-1.5-2.1,0.5-2.6C40.2,41.7,40.9,42.2,42,42.2z"/>
	<path class="st78" d="M39.7,40.7c-1.4,1.3,0.2,1.9,0.8,2.6c0.7,1,1,2,0.4,3.1c-0.7,1.2-1.8,0.2-2.7,0.3c-0.7-0.3-1.2-0.8-1.4-1.6
		c0.2-0.4,0.3-0.9,0-1.4c-1.9-2.8-0.5-4,2.1-4.6C40.4,39.2,40.1,39.9,39.7,40.7z"/>
	<path class="st79" d="M33.8,39.2c-1.2-2.6-4.5-1.8-6-3.8c0-0.2,0-0.5,0-0.7c1.5-1.3,3-0.9,4.5,0c2.1,0.9,2,4,4.5,4.5
		C35.7,40.9,35.5,40.9,33.8,39.2z"/>
	<path class="st80" d="M32.3,34.7c-1.5,0-3,0-4.5,0c0-0.7-0.1-1.5,0.1-2.2c0.2-0.7,0.6-1.6,1.1-1.8c1.1-0.4,1.3,0.9,1.8,1.5
		C31.4,32.9,31.8,33.8,32.3,34.7z"/>
	<path class="st81" d="M33.8,39.2c1,0.4,2,1.3,3,0c0.8,0,1.5,0,2.3,0c-1.4,1.1-3.4,2-1.3,4.3c0.7,0.8,0.4,1.6-0.8,1.7
		C35.8,43.2,34.8,41.2,33.8,39.2z"/>
	<path class="st82" d="M42.7,36.2c-0.8,1.1-2,0.6-3,0.7c-0.8-0.3-1.5-0.5-2.4-0.8c0.3-1.5,2.5,0.5,2.4-1.5c0.4-0.9,0.9-1.9,2.1-1.5
		c0.6,0.2,0.6,0.9,0.2,1.5C41.1,35.7,42.3,35.8,42.7,36.2z"/>
	<path class="st21" d="M42,34.7c-0.8-2.3-1.5,0.2-2.2,0c-0.4-1-1.3-1.9-0.1-3c1.2,1.1,1.5-0.8,2.4-0.7C42.1,32.2,44,33.5,42,34.7z"
		/>
	<path class="st83" d="M52.5,13c2.1,0.2,1.4,1.8,1.5,3c-0.3,0.5-0.6,1.1-1.4,0.7l-0.3,0.1C52.4,15.5,52.5,14.2,52.5,13z"/>
	<path class="st84" d="M46.5,32.5c2.2,0.9,0.4,1.8,0,2.5c-0.5,0.8-1.3,1.3-1.5-0.3C45.5,33.9,46,33.2,46.5,32.5z"/>
	<path class="st85" d="M52.6,16.6c0.5-0.2,0.9-0.5,1.4-0.7c0.3,0.2,0.5,0.5,0.8,0.7c-0.4,0.9-0.8,2-1.9,1.8
		C52.1,18.3,52.6,17.3,52.6,16.6z"/>
	<path class="st16" d="M48.8,44.4c1.4,1,4.6,0.5,3,3.8c0.6,1.2,1.8,2.2,0.8,3.7c-2.4,0.4-2.9-1.1-2.9-3
		C50.6,47.1,47.6,46.3,48.8,44.4L48.8,44.4z"/>
	<path class="st52" d="M52.5,51.9c-0.2-1.3-0.5-2.5-0.7-3.8c0.2,0,0.5,0,0.7,0c0.5,1.6,2.1,2.7,2.2,4.5c-0.7,0.4-1.3,0-1.9-0.3
		C52.7,52.2,52.6,52.1,52.5,51.9z"/>
	<path class="st86" d="M48.7,44.5c0.4,1.3,1.9,2.1,1.6,3.7c-0.8,1.2-1.7,1.7-3,0.7l0,0c-0.2-0.8,0-1.7-0.7-2.3
		c-0.2-0.5-0.4-1-0.7-1.5c-0.3-0.7-0.5-1.5-0.8-2.2c0.5-0.5,1-0.5,1.5,0C47.3,43.4,47.6,44.5,48.7,44.5z"/>
	<path class="st87" d="M46.5,42.9c-0.5,0-1,0-1.5,0c-0.5-1.2-1.1-2.5-1.6-3.7C45.8,38.7,45.8,38.8,46.5,42.9z"/>
	<path class="st88" d="M33.7,23.4l-0.4,0l-0.4,0c0-0.5,0-1,0.1-1.4c0.1-0.4,0.5-0.8,0.7-1.2C35,21.9,33.9,22.6,33.7,23.4z"/>
	<path class="st89" d="M66.7,57.2c0.8-1.3-1.8-3.9,1.7-4.2c-0.1-1-0.9-1.4-1.6-1.8c0.2-0.5,0.5-1,0.7-1.5c1.3-0.1,2,1.1,3,1.5
		c2-0.9,2.3,0.6,2.7,1.9c0,0.4-0.1,0.7-0.2,1.1c-0.3,0.8-2.2,0.1-1.7,1.7c-1.6,0.8-2.1,2.3-2.5,3.9c-0.2,0.3-0.5,0.5-0.8,0.6
		C66.9,59.5,66.1,58.6,66.7,57.2z"/>
	<path class="st90" d="M71.4,43.1c-0.1,1.6-0.2,3.3-0.3,4.9c-1.5-1.8-1.8-3.7-0.5-5.8C70.9,42.5,71.1,42.8,71.4,43.1z"/>
	<path class="st91" d="M38.2,52c-0.4,2.2,1.2,3.9,1.5,6c0.3,1.4-0.7,1.4-1.5,1.2c-1.6-0.4-0.6,0.7-0.7,1.1c-0.6,0.8-1.5,0.7-2.3,0.7
		c-2.6-0.8,0.7-2.8-0.8-3.8c-0.1-0.3-0.2-0.8,0-1c1.9-1.5,1.3-2.8-0.3-4c0.3-1.5-0.5-3.9,2.6-3.2l0,0C37.6,49.8,37.7,51,38.2,52z"/>
	<path class="st92" d="M34.6,52.7c1,0,2.2-1.1,2.8,0.6c0.4,1.1-0.4,1.8-1.3,2.4c-0.6,0.4-1.1,1-1.6,1.5c-0.5,0.9-0.9,2-1.5,2.8
		c-1.1,1.6-2.3,0.3-3.1-0.3c-2-1.5,1.2-1.4,0.9-2.5c0.5-0.7,1.1-1.2,1.9-1.7c0.7-0.6,1.9-0.7,1.7-2C34.3,53.2,34.3,53,34.6,52.7z"/>
	<path class="st93" d="M33,56.4c-0.7,0.3-1.5,0.5-2.2,0.8c-1.4-1.5-2,0.6-3.1,0.7c-2.1-0.4-1.3-1.7-0.8-2.8c0.5-1,1.6-1.6,2.3-2.4
		c0.5,0.2,1,0.5,1.5,0.7c0.6-0.5,1.3-0.6,2-0.3c0.3,0.2,0.4,0.5,0.4,0.8c-0.3,0.6-0.9,1.1,0,1.7C33.3,56,33.3,56.2,33,56.4z"/>
	<path class="st94" d="M29.2,52.7c0.5,2-3.6,2.7-1.5,5.2c-0.5,0.5-0.9,1.1-1.4,1.6c-0.6-0.1-1.2-0.2-1.5-0.9c0.2-0.5,0.6-1,0.5-1.4
		C24.6,54,26.4,52.9,29.2,52.7z"/>
	<path class="st95" d="M35.9,69.2c-1.2,1.3-2.4-0.5-3.7-0.1c0.6-1.3,1.2-2.6,1.9-4.2C34.7,66.7,34.2,68.5,35.9,69.2z"/>
	<path class="st94" d="M24.7,63.9c-2.2-0.9-1.8-2.2-0.7-3.7c0.7-0.1,1.1,0.2,1.5,0.7C25.2,61.9,25,62.9,24.7,63.9z"/>
	<path class="st96" d="M25.5,60.9c-0.6,0-1.1-0.1-1.5-0.7c0-0.6,0.1-1.2,0.8-1.5c0.7,0,1.2,0.2,1.5,0.8C26,60,25.8,60.5,25.5,60.9z"
		/>
	<path class="st97" d="M70.5,63.2c0.4,0.9,1.9,0.5,2.1,1.6c-0.3,0.4-0.7,0.6-1.3,0.6c-1.9,2.2-0.3,5.7-3,7.6
		C68,71.8,66,73.1,66,71.4c-0.9-1.6,1.3-4.2-1.5-5.3c0-0.2,0-0.5,0-0.7c0.8-1.7,1.9-2.4,3.7-1.5C68.7,63,69.4,62.5,70.5,63.2z"/>
	<path class="st98" d="M66,71.4c1.2,0.6,0.6-1.7,1.7-1.1c1,0.6,0.4,1.8,0.7,2.6c0,0,0,0,0,0c-0.8,0.3-1.4,1-2.3,0.9
		c-0.7-0.4-1.1-0.9-0.7-1.7C65.5,71.9,65.7,71.7,66,71.4z"/>
	<path class="st99" d="M65.3,72.2c0.2,0.5,0.5,1,0.7,1.4c-0.7,0.6-1.4,0.6-2.2,0c0-0.7,0-1.5,0-2.2C64.3,71.7,64.8,71.9,65.3,72.2z"
		/>
	<path class="st89" d="M70.5,63.2c-0.7,0.3-1.5,0.5-2.2,0.8c-0.2-0.7-0.5-1.5-0.7-2.2c-0.5-0.9,0.2-1.1,0.7-1.5l0,0
		c0.6-0.6,1.3-0.4,1.9,0.1c0.6,0.6,1.1,1.3,1.2,2.3C71,62.7,70.8,63,70.5,63.2z"/>
	<path class="st97" d="M68.2,60.2c-0.2,0.5-0.5,1-0.7,1.5c-0.8-1.4-2.2-2.7-0.7-4.5C66.9,58.4,67.3,59.4,68.2,60.2z"/>
	<path class="st100" d="M37.5,60.2c-0.5-0.6-2.3-0.4-1.5-1.8c0.6-1.1,1.4-1.6,2.3,0.1c0.2,0.4,1.1,0,1.5-0.6c0.5-0.2,1-0.5,1.5-0.7
		c1.1,0.4,1.8,1,1.5,2.3C41,59.7,39.3,60,37.5,60.2z"/>
	<path class="st101" d="M47.2,48.9c1-0.2,2-0.5,3-0.7c-0.2,1.8,0.7,2.9,2.2,3.7l0,0c0.2,0.7,0,1-0.8,0.8c-0.7-0.3-1.5-0.5-2.2-0.8
		C48.6,51,46.8,50.9,47.2,48.9z"/>
	<path class="st16" d="M51.7,52.7c0.3-0.3,0.5-0.5,0.8-0.8c0.7,0.3,1.5,0.5,2.2,0.8c0.5,0.9,1.4,0.7,2.2,0.8
		c-0.3,0.3-0.5,0.5-0.8,0.8C54.6,54.1,53.1,53.8,51.7,52.7z"/>
	<path class="st102" d="M52.5,74.4c0-0.4,0-0.7,0-1.1c0-0.6-0.6-1.2,0.1-1.7c0.2-0.1,0.8,0,1,0.2c0.6,0.5,0.4,1.1,0.1,1.7
		C53.4,73.9,52.9,74.1,52.5,74.4L52.5,74.4z"/>
	<path class="st101" d="M46.5,46.7c1.1,0.5,2.4,0.9,0.7,2.3C46.4,48.4,46.5,47.5,46.5,46.7z"/>
	<path class="st61" d="M20.2,44.4c0.1-1.9,2.2-1.7,3.1-2.9c1.1-0.9,2.4-1.2,3.6-1.5c1.6,0,3.1,0.4,3.7,1.9c0.7,1.7-1.3,2.2-1.9,3.3
		c-0.6,1-1.6,1.5-2.6,2c-1,0.3-1.7,1.4-2.9,1c-1.1,0.7-1.6,2.6-3,2.3c-1.3-0.3-1.6-1.7-1.5-3c-0.1-0.9,0.3-1.6,0.8-2.2
		C19.7,44.9,20,44.7,20.2,44.4z"/>
	<path class="st103" d="M33.1,53.5c-0.8,0-1.6-0.1-2.3-0.1c0.9-1.6,1.8-3.3,1.5-5.2c-0.3-0.6,0.1-0.9,0.5-1.2
		c0.8-0.4,1.6-0.4,2.5-0.3c0.5,0.7,1,1.5,1.5,2.2c-2.3,0.4-1.1,2.7-2.2,3.8c-0.1,0.2-0.1,0.4-0.2,0.6C34,53.8,33.6,53.9,33.1,53.5z"
		/>
	<path class="st104" d="M27.8,48.2c-0.1,3.5-2,4.8-5.3,4.5c-0.1-1.8,2.6-1.1,2.3-2.9c-0.3-1.4,0.5-2.1,1.6-2.5
		C27.1,46.9,27.8,47.1,27.8,48.2z"/>
	<path class="st105" d="M27.8,48.2c-1.9-1.4-2.2,0.7-3.1,1.5c-1.8,0.8-1.4-0.6-1.5-1.5c0.7-0.5,1.1-1.6,2.2-1.5
		c1.1-0.5,2.2-0.4,3.3-0.7c0.8,0.1,1.5,0.4,2,1.1c0.2,0.4,0.2,0.7,0,1.1C29.8,48.1,28.8,48.1,27.8,48.2z"/>
	<path class="st106" d="M21,66.2c-0.8,0.1-1.7,0.1-2.9,0.2c0.8-1.7,1.8-2.9,3.6-3.2C21.2,64.1,20.9,65.1,21,66.2z"/>
	<path class="st107" d="M19.5,45.2c0,0.8,0.1,1.7-0.8,2.2c-0.8-0.1-1.6-0.1-2.5-0.2C16.8,45.5,18.6,46,19.5,45.2z"/>
	<path class="st108" d="M30.8,48.1c0-0.2-0.1-0.5-0.1-0.7c-0.4-0.8-0.4-1.5,0.5-1.7c1.2-0.3,1.8,0.4,1.7,1.7
		c-0.2,0.3-0.5,0.5-0.7,0.8C31.8,48.2,31.3,48.2,30.8,48.1z"/>
	<path class="st109" d="M29.3,46.7c-1.3,0-2.6,0-3.8,0c2.3-0.6,2.7-3.3,4.8-4.2c-0.7-1.3-2-1.6-3.3-1.8c-0.7-0.4-1.7,0.1-2.2-0.7
		c0.5-0.3,1-0.7,1.7-1.2c-1.7-1.3-3.3-1.4-5-0.4c-0.7,0.4-1.2,0.9-1.9,0c-0.9-1,0.2-1.5,0.6-2.2c0,0,0.1-0.1,0.1-0.1
		c0.8-0.8,2,0,2.8-0.6c3.3,0.8,6.1,2.6,8.4,5.1c0.3,0.7,1,1.2,1.2,2C32.5,44.8,29.8,44.8,29.3,46.7z"/>
	<path class="st110" d="M29.3,46.7c-0.9-1.5,0.1-2.3,1.3-2.8c0.8-0.4,1.6-0.6,1.6-1.7c0.3-0.3,0.6-0.4,1-0.1c0.2,0,0.4,0.1,0.6,0.1
		c0.5,1.5,0.6,3.1,1.5,4.5l0,0c-0.6,0.9-1.4,0.8-2.3,0.7c-0.8-1.3-1.5-2.2-2.2,0.1C30.3,47.2,29.8,46.9,29.3,46.7z"/>
	<path class="st111" d="M23.1,35.5c-0.5,2.5-1.9,0.3-2.8,0.6c-0.1-0.8-0.2-1.6,0.6-2C21.7,34.5,22.4,35,23.1,35.5z"/>
	<path class="st112" d="M40.5,51.2c-0.1,0.8,0.3,1.7-0.6,2.6C39.2,52.6,37.5,51.4,40.5,51.2L40.5,51.2z"/>
	<path class="st103" d="M35.2,46.7c-1.4-1.2-1.4-2.9-1.5-4.5C34.8,43.5,35.2,45,35.2,46.7z"/>
	<path class="st103" d="M38.2,52c-0.9-0.8-1.4-1.8-1.5-3C38.1,49.5,38.3,50.7,38.2,52z"/>
	<path class="st113" d="M33.1,42.1c-0.3,0-0.7,0.1-1,0.1c-0.5-0.4-1.6-0.6-0.6-1.6C32.4,40.7,33,41.2,33.1,42.1z"/>
	<path class="st114" d="M24.7,39.9c0.8,0.1,1.7-0.2,2.2,0.7c-1.1,0.7-2.4,0.8-3.6,0.9c-0.2-0.3-0.5-0.5-0.7-0.8
		C23.3,40.5,24,40.2,24.7,39.9z"/>
	<path class="st97" d="M63.8,73.6c0.7,0,1.4,0,2.2,0c0.8-0.2,1.5-0.4,2.3-0.6c-1.1,1.9-2.9,1.4-4.5,1.4
		C63.8,74.1,63.8,73.9,63.8,73.6z"/>
	<path class="st115" d="M69.8,61c-0.3-0.6-0.9-0.7-1.5-0.8c0.2-2.1-0.9-5,3-4.5c1.6,0.6,0.8-1.2,1.5-1.5c0-0.3,0-0.5,0-0.8
		c1.1,1.6,2.9,2.9,1.5,5.3c-1,1.1-3,0.7-3.6,2.4C70.3,61.3,70,61.2,69.8,61z"/>
	<path class="st116" d="M72.7,54.2c0.1,1,0.3,2.3-1.5,1.5c-0.3-0.4-0.9-0.9-0.8-1.1C71,53.7,72,54.4,72.7,54.2z"/>
	<path class="st117" d="M70.5,60.8c-0.7-4.1,2.6-1.3,3.7-2.1c-0.5,1.3,0.9,3.3-1.5,3.8C72.2,61.6,70.9,61.8,70.5,60.8z"/>
	<path class="st118" d="M70.5,60.8c1,0.2,2.3,0,2.2,1.6c-0.5,0-1,0-1.4,0.1c-0.5-0.5-1-1-1.6-1.5C70,60.9,70.3,60.9,70.5,60.8z"/>
	<path class="st119" d="M33.1,53.5c0.4-0.1,0.9-0.1,1.3-0.2c0.6,0.1,1.5,0.1,1.7,0.4c0.3,0.6-0.5,0.9-0.9,1.2
		c-0.7,0.5-1.4,1-2.1,1.4c0-0.2,0-0.5,0-0.7c-0.4-0.5-0.4-1,0-1.5C33,53.9,33,53.7,33.1,53.5z"/>
	<path class="st92" d="M32.9,54.2c0,0.5,0,1,0,1.5c-0.9-0.2-1.9,0.4-2.6-0.7C31,53.8,32.1,54.4,32.9,54.2z"/>
	<path class="st120" d="M22.7,46.4c-0.1-2,0.7-2.9,2.1-3.2c0.6-0.1,1.3,0.5,1.1,1.1C25.5,45.8,24,45.8,22.7,46.4z"/>
</g>
<g>
</g>
<g>
</g>
<g>
</g>
<g>
</g>
<g>
</g>
<g>
</g>
</svg>
