<?xml version="1.0" encoding="utf-8"?>
<!-- Generator: Adobe Illustrator 18.1.1, SVG Export Plug-In . SVG Version: 6.00 Build 0)  -->
<!DOCTYPE svg PUBLIC "-//W3C//DTD SVG 1.1//EN" "http://www.w3.org/Graphics/SVG/1.1/DTD/svg11.dtd">
<svg version="1.1" id="Layer_1" xmlns="http://www.w3.org/2000/svg" xmlns:xlink="http://www.w3.org/1999/xlink" x="0px" y="0px"
	 viewBox="0 0 82.7 45" style="enable-background:new 0 0 82.7 45;" xml:space="preserve">
<style type="text/css">
	.st0{fill:#F9F5EB;}
	.st1{fill:#6B856E;}
	.st2{fill:#708168;}
	.st3{fill:#546C54;}
	.st4{fill:#849587;}
	.st5{fill:#4C6A50;}
	.st6{fill:#446245;}
	.st7{fill:#749276;}
	.st8{fill:#45553F;}
	.st9{fill:#466345;}
	.st10{fill:#738A75;}
	.st11{fill:#65886A;}
	.st12{fill:#B17B79;}
	.st13{fill:#4D6A50;}
	.st14{fill:#777867;}
	.st15{fill:#768B6F;}
	.st16{fill:#435D43;}
	.st17{fill:#5B5E49;}
	.st18{fill:#355535;}
	.st19{fill:#5D7559;}
	.st20{fill:#BC6264;}
	.st21{fill:#BF827D;}
	.st22{fill:#858071;}
	.st23{fill:#D37E7E;}
	.st24{fill:#BA8F89;}
	.st25{fill:#A45A5A;}
	.st26{fill:#AE6665;}
	.st27{fill:#CC7978;}
	.st28{fill:#67896B;}
	.st29{fill:#616E53;}
	.st30{fill:#5B5B41;}
	.st31{fill:#494E33;}
	.st32{fill:#485336;}
	.st33{fill:#5D7554;}
	.st34{fill:#CE7374;}
	.st35{fill:#DF908E;}
	.st36{fill:#FEF0DF;}
	.st37{fill:#CE7171;}
	.st38{fill:#E58F8E;}
	.st39{fill:#AD6761;}
	.st40{fill:#E18B89;}
	.st41{fill:#BA625F;}
	.st42{fill:#8B6556;}
	.st43{fill:#B2625E;}
	.st44{fill:#90433F;}
	.st45{fill:#9D4643;}
	.st46{fill:#C36566;}
	.st47{fill:#A14A49;}
	.st48{fill:#9C4A47;}
	.st49{fill:#EC9694;}
</style>
<g>
	<path class="st0" d="M13.6,13.1c2.8-0.4,5-1.5,6.9-3.8c2.6-3,6.4-3.4,9.9-2c2.4,1,4.9,0.7,7.3-0.2c0.8,1.5,0.2,2.7-0.7,3.9
		c-1.5,0.9-2.8-0.1-4.2-0.5c-2.8-1-5.5-1.3-8.2,0.2c-1.2,0.5-2.3,1-3.4,1.7c-2.3,1.1-4.5,3-7.3,1.9c-0.3-0.2-0.5-0.6-0.4-1
		L13.6,13.1z"/>
	<path class="st1" d="M69,31.2c-4.5-3.3-9.9-4-15.2-5.1c0.7-1,1.7-1,2.7-1.1c0.6,0,1.2,0,1.7,0.2c1.2,0.4,2.3,1.4,3.9,0.9
		c0.3,0-0.3-0.5-0.2-0.1c0.1,0.2,0,0.3-0.3,0.2c-1-0.3-2.6,0.1-2.5-1.8c1.9,0,3.6,0.4,5.3,1.4c1.4,1.3,3.4,1.5,5,2.4
		c0.4,0.7,1.6,0.5,1.8,1.4C71.1,31,69.8,30.7,69,31.2z"/>
	<path class="st2" d="M37.1,11.1c-0.5-1.4,0.2-2.6,0.5-3.9c1.4-0.9,2.9-1.9,4.4-2.7c0.9-0.5,1.4-2.3,2.6-1.3
		c0.9,0.7,0.8,2.3-0.2,3.3c-2.5,0.4-3.1,2.6-4,4.4c-0.5,1-0.3,2.2-1.2,3.1c-0.7,0.5-1.3,0.3-1.9-0.3C36.7,12.8,36.6,12,37.1,11.1z"
		/>
	<path class="st3" d="M69,31.2c0.8-0.5,1.6-1,2.3-1.6c2.9,1,4.1,3.5,5.2,6c-0.4,0.6-0.8,1.3-1.7,0.8C72.9,34.7,71,32.9,69,31.2z"/>
	<path class="st4" d="M45.7,16.9c0.9-3.8,4.4-4.3,7.3-5.5c0.7-0.3,1.6-0.4,1.9,0.5c0.2,0.7-0.4,1.1-0.9,1.5
		c-0.6,0.5-1.2,1.1-1.9,1.1c-2.6,0.2-3.5,2-4,4.1C47.7,17.1,47.2,16.8,45.7,16.9z"/>
	<path class="st5" d="M45.7,16.9c1.8-0.9,2.4-0.1,2.4,1.7c-0.5,4.1,2.5,4.4,5.3,5c-0.4,1.3-1.5,1.5-2.6,1.7
		c-1.4,0.2-2.1,2.1-3.8,1.4c-2.5-2.2-0.3-5-1.1-7.5c-0.2-0.5-0.4-1-0.5-1.5C45.4,17.4,45.5,17.1,45.7,16.9L45.7,16.9z"/>
	<path class="st6" d="M39,13.9c-0.4-3.1,1.2-5.4,2.9-7.7c0.7-0.9,1.9-2.2,2.4,0.2c-0.3,0.7-0.6,1.4-0.9,2.2
		c-0.4,0.5-0.2,1.2-0.5,1.8c-0.2,2.1-1.9,2.9-3.5,3.6C39.3,14,39.1,14,39,13.9z"/>
	<path class="st7" d="M42.6,10.2c0.3-0.5,0.5-1,0.8-1.5c0.3,2.9,1.1,5.6,2.3,8.2c0,0.3,0.1,0.5,0.1,0.8c-0.5,1-1.2,1.9-2.6,1.7
		c-0.7-0.4-1.2-1-1.5-1.8C40.2,14.9,42.3,12.6,42.6,10.2z"/>
	<path class="st8" d="M74.9,36.5c0.6-0.3,1.1-0.5,1.7-0.8c0.4,0.3,0.8,0.6,1.2,0.9c-0.1,0.9,1.6,1.5,0.6,2.5
		c-0.8,0.8-1.8-0.1-2.6-0.4C75.5,37.9,75.2,37.2,74.9,36.5z"/>
	<path class="st5" d="M59.3,24.4c0.7,1.2,2.2,1.1,3.1,1.9c-1.5,0.7-2.7,0.1-3.9-0.5c-0.9-1.4-3.5,0.2-3.7-2.2
		C56.3,23.6,57.8,23.8,59.3,24.4z"/>
	<path class="st9" d="M54.8,23.7c1,1.2,3.2,0.3,3.7,2.2c-0.5,0-1-0.1-1.5-0.1c-2.1-0.6-4.3,0-6.5-0.3c-0.4-0.3-0.5-0.6-0.3-1
		c1.2,0.1,2.2-0.3,3.2-0.9C53.9,23.6,54.3,23.7,54.8,23.7z"/>
	<path class="st10" d="M69.6,28.2c-2,0-4-0.3-5-2.4C66.5,26,68.2,26.7,69.6,28.2z"/>
	<path class="st11" d="M33.8,40.2c-1.2,0.9-2.5,0.4-3.2-0.5c-1-1.4-2.5-1.7-3.8-2.4c0.3-0.7,0.9-1.1,1.5-1.4c2-0.9,3.8-2.3,5.8-3
		c1.5-0.6,2.9-1.5,4.3-2.3c1.1-0.5,2.2-1.1,2.8-2.2c0.2-0.3,0.4-0.5,0.6-0.7c0.6-0.5,1.1-1.2,1.8-1.7c0.3-0.2,0.6-0.3,1-0.4
		c0.6,0,1.1,0.1,1.4,0.6c0.4,0.7,0.4,1.4,0.3,2.1c-0.1,0.7-0.5,1.3-0.9,1.9c-0.4,0.6-0.8,1.2-1.5,1.6c-1.9,1-0.7,1.7,0.2,2.5
		c0.1,2.1-1.3,2.7-3,3.1c-2.3,0.4-4.5,0.7-6.8,0.6C31.9,37.8,33.1,39.2,33.8,40.2z"/>
	<path class="st12" d="M22.6,35.6c-2.1-1.9-4.1-3.9-6.2-5.8c0.1-0.6,0.5-0.9,1.1-1.1c0.6,0,1.3,0.2,1.7,0.6c2.7,2.8,5.7,3.1,9.1,1.6
		c1.5,0,3.1-0.3,4.5,0.6c0.5,0.5,0.3,1-0.1,1.5c-1.5,1.2-3.4,1.1-5.1,1.8C26,35.5,24.3,35.9,22.6,35.6z"/>
	<path class="st13" d="M33.8,40.2c-1.3-0.2-2.3-0.8-2.9-2.1c3.4-2.3,6.9-1.3,10.4-0.9C39.2,39.2,36.4,39.3,33.8,40.2z"/>
	<path class="st14" d="M22.6,35.6c1.1-1.7,3.1-0.3,4.4-1.4c1.2,0.3,2,0.8,1.5,2.2c-0.5,0.3-1.1,0.5-1.6,0.8
		c-1.8,0.2-3.8-0.6-5.2,1.2c-0.4,0.5-1.1,1.4-1.8,0.7c-1-0.9,0.1-1.7,0.5-2.2C20.9,36.3,21.9,36,22.6,35.6z"/>
	<path class="st15" d="M11.3,29.7c-2.2,1-4.3,2.2-6.8,2.2c-0.4-0.3-1-0.5-1-1.1c0.8-1.9,2.8-2.5,4.2-3.8c0.6-0.4,1.2-0.8,1.9-1
		c0.5-0.1,1-0.2,1.6-0.2c0.4,0,0.7,0.1,1,0.2c0.3,0.2,0.6,0.4,0.7,0.7C13.1,28.2,10.4,27.9,11.3,29.7z"/>
	<path class="st16" d="M44.3,34.2c-1.2-0.2-2.9,0.4-3.3-1c-0.5-1.8,1.8-1.1,2.5-2c0.4-0.6,1-1,1.5-1.5c1.7,0.3,1,1.5,0.8,2.4
		C45.3,32.8,44.8,33.5,44.3,34.2z"/>
	<path class="st17" d="M11.3,29.7c-0.7-0.2-1.7-0.1-1.8-1.1c-0.1-1,0.8-1,1.5-1.2c0.6-0.2,1.1-0.5,1.6-0.7c2.1-1.2,3.3,0.2,4.5,1.7
		c0,0.2,0.1,0.3,0.1,0.5c-0.3,0.3-0.6,0.6-1,0.9c-0.2,0-0.4,0-0.6-0.2C14.3,29.1,12.8,29,11.3,29.7L11.3,29.7z"/>
	<path class="st9" d="M45.8,28.2c0-0.7-0.1-1.4-0.1-2.2c-0.6-0.7-1.1-1.4-1.2-2.3c-0.1-0.5-0.1-1.1,0.1-1.6c0.7-1.2,0.8-2.7,2-3.6
		c1.9,2.6-1.3,5.7,0.7,8.3c0.7,0.4,1.8-0.2,2.4,0.8c-0.3,0.6-0.8,0.7-1.4,0.8C47.4,28.6,46.6,28.9,45.8,28.2z"/>
	<path class="st18" d="M49.7,27.5c-0.8-0.2-1.8,0.1-2.4-0.8c1.3-0.4,1.4-2.3,3-2.2c0,0.2,0.1,0.5,0.1,0.7c0.4,0.5,0.4,1,0,1.6
		C50.1,27,49.9,27.2,49.7,27.5z"/>
	<path class="st5" d="M50.3,26.7c0-0.5,0-1,0-1.6c2.2,0.3,4.6-0.7,6.7,0.6c-1,0.1-2.1,0.1-3.1,0.2C52.7,26.2,51.4,26,50.3,26.7z"/>
	<path class="st19" d="M45.8,28.2c0.8,0,1.6,0.1,2.4,0.1c-1.6,0.8-1.4,2.6-2.4,3.8c-0.1-0.9,0.1-1.8-0.8-2.4
		C45.3,29.1,45.5,28.6,45.8,28.2z"/>
	<path class="st15" d="M11.3,29.7c1.5-1.2,3-1.1,4.5-0.1C14.3,29.7,12.8,29.7,11.3,29.7z"/>
	<path class="st20" d="M11.1,16.7c0-0.2,0-0.4,0.1-0.6c1.3-0.6,2.8-0.4,4.1-0.9c1.7-0.2,3.5-0.2,5,0.8c0.3,0.2,0.6,0.5,0.7,0.9
		c0.1,0.4,0,0.8-0.3,1c-2.8,1.9-5.8,1.3-8.8,0.9c-0.4-0.1-0.7-0.3-1-0.5C10.8,17.8,10.9,17.3,11.1,16.7z"/>
	<path class="st21" d="M15,16.2c-1.3,0.9-2.5,0.8-3.8,0c-0.1-0.2-0.2-0.4-0.1-0.6c0.5-1,1.4-1.3,2.4-1.5c2.8,0.3,5-1.5,7.4-2.4
		c0.3,0.3,0.4,0.6,0.3,1C20,15.1,17.1,15.1,15,16.2z"/>
	<path class="st22" d="M13.5,14c-0.1,1.6-1.4,1.4-2.4,1.5c-0.6-0.5-1.1-1.2-0.7-1.9c0.7-1.2,2-0.2,3-0.3
		C13.4,13.6,13.4,13.8,13.5,14z"/>
	<path class="st23" d="M11.1,16.7c0.1,0.6,0.1,1.1,0.2,1.7c0.5,0.4,1.1,0.5,1.6,1c0.6,0.6,1.7,0.9,1.4,1.9c-0.4,1.4-1.6,1.3-2.7,1.1
		c-0.9-0.4-1.4-1.2-1.6-2.1c0-0.9,0.1-1.9,0.5-2.7C10.7,17.3,10.9,17,11.1,16.7z"/>
	<path class="st24" d="M10.5,17.6c0,1,0,2,0,3c0,0.6,0,1.3-0.2,1.9c-0.2,0.3-0.4,0.5-0.7,0.6c-0.5-0.1-0.9-0.4-0.6-1
		c0-0.7,0-1.5,0-2.2C9.5,19.1,10,18.4,10.5,17.6z"/>
	<path class="st25" d="M20.9,12.5c0-0.3,0-0.6,0-0.9c0.9-0.7,1.8-1.3,2.9-1.4c2.7-1.4,5.5-1,8.4-0.3c0.9,0.2,1.2,0.8,1.1,1.6
		c-1.4,1.6-3.2,0.2-4.7,0.6C26,11.9,23.6,14.4,20.9,12.5z"/>
	<path class="st26" d="M33,11.6c-1.6-2.3-4.1-1.8-6.3-1.9c-0.9-0.1-1.9,0.3-2.8,0.4c2.9-2.3,6-1.7,9.1-0.6c1.4,0.5,2.8,1.1,4.1,1.6
		c0.1,0.7,0.2,1.4,0.4,2.1C35.6,13.7,34.1,13.2,33,11.6z"/>
	<path class="st27" d="M33,11.6c1.5,0.5,3,1.1,4.5,1.6c0.5,0.2,1,0.5,1.5,0.7c0,0,0.1,0,0.1,0c1.3,1,2.4,2.2,2,4.1
		c-0.2,0.3-0.4,0.6-0.8,0.7c-2.3-0.8-5-0.9-6.2-3.8c-0.4-1-1.1,0-1.6,0.6c-2.8,0.5-2.5-2.5-4-3.6c-0.2-0.3-0.1-0.6,0.1-0.9
		C30.1,10.6,31.5,11.5,33,11.6z"/>
	<path class="st28" d="M46.6,18.4c-0.2,1.4,0.2,3-1.5,3.7c-1.1-0.7-2-1.5-1.5-3c0.8-0.5,1.1-1.6,2.3-1.5
		C46.1,17.9,46.3,18.2,46.6,18.4z"/>
	<path class="st29" d="M40.6,18.4c0.3-1.8-1.5-2.8-1.6-4.5c0.8-1.6,3-1.9,3.6-3.8c0.3,2.5-1.2,5,0.1,7.5c-0.4,0.4-0.9,0.7-1.4,0.9
		C41,18.7,40.8,18.6,40.6,18.4z"/>
	<path class="st30" d="M41.2,18.5c0-1.2,0.6-1.3,1.5-0.8c0.3,0.5,0.6,1,0.9,1.5c0.4,1.1,1.5,1.7,1.5,3c0,0.5,0,1,0,1.5
		c-0.1,0.6-0.4,0.9-1,1c-0.4,0-0.6-0.2-0.8-0.5c0-1.6-0.6-2.8-1.8-3.8C40.9,19.8,40.7,19.2,41.2,18.5z"/>
	<path class="st31" d="M43.5,24.4c0.3,0,0.5,0,0.8,0.1c0.4,0.5,0.5,1,0,1.5l0,0c-1.1,0.4-1.3,1.7-2.3,2.2l0,0c-1.2,0.8-2.1,1.9-3,3
		c-1.4,0.9-2.6,2.2-4.5,2.3c-0.9,0.4-1.8,0.9-2.2-0.6c0.3-0.3,0.5-0.6,0.8-0.9c0.1-0.3,0.3-0.6,0.6-0.8c0.9-0.7,1.7-1.5,2.5-2.4
		c0.8-1.3,2-2.1,3.4-2.7c0.2-0.2,0.5-0.4,0.7-0.6c0.6-0.5,1.2-1.1,1.9-1.4C42.6,23.9,43.1,24,43.5,24.4z"/>
	<path class="st32" d="M32.3,32.8c0.6,0.7,1.4,0.6,2.2,0.6c-2,1-3.7,2.7-6,3.1c-0.5-0.7-1-1.5-1.5-2.2
		C28.5,32.9,30.5,33.3,32.3,32.8z"/>
	<path class="st19" d="M39,31.1c0.3-1.7,1.3-2.8,3-3C41.9,30.1,40.5,30.7,39,31.1z"/>
	<path class="st33" d="M44.3,25.9c0-0.5,0-1,0-1.5c0.3-0.3,0.5-0.5,0.8-0.8c0.9,0.6,0.7,1.5,0.7,2.3C45.2,26,44.7,25.9,44.3,25.9z"
		/>
	<path class="st19" d="M42,28.2c0.5-1,0.8-2.2,2.3-2.2C43.7,26.9,43.5,28.2,42,28.2z"/>
	<path class="st34" d="M33.7,31.9c-0.2,0.1-0.4,0.1-0.7,0.1c-1.8,0-3.6,0-5.3,0c0.8-5.4-2.3-7.7-7.7-5.7c-1.4,0.5-2.9,0.8-4.4,0.5
		c-1.2-0.1-2.4-0.9-3.6-0.1l-0.3,0l-0.3,0c-1-0.5-2-0.9-2.2-2.2c-0.1-0.6,0-1.1,0.5-1.5l0.3,0c0.7-0.5,1.6-0.1,2.3-0.4
		c0.7-0.1,1.2,0.1,1.7,0.6c0.8,0.5,1.7,0.6,2.5,0.4c1.4-0.2-0.4-0.5-0.1-0.9c0.3-1.6,1.2-2.5,2.9-2.4c1.2,1.1,2.8,1,4.2,0.9
		c2.8,0.7,5.9-1.8,8.5,0.8c1.1,0.7,2,1.5,2.4,2.9C34.7,27.3,34.6,29.6,33.7,31.9z"/>
	<path class="st35" d="M15.7,25.9c1.6-0.1,3-0.1,4.6-1c3.9-2.1,8.8,0.7,8.9,4.9c0,0.9-1.7,0.9-1.5,2.1c-4.6,3.1-7.3-0.6-10.4-3l0,0
		C16.8,27.8,15.4,27.4,15.7,25.9z"/>
	<path class="st36" d="M9.7,26.7C7.8,25,5,25.9,3.1,24.5c0.2-0.3,0.5-0.6,0.9-0.7c2-0.1,4.1-1.7,5.8,0.7c0.5,0.7,1,1.4,1.6,2.2
		C10.8,26.6,10.3,26.6,9.7,26.7z"/>
	<path class="st12" d="M15.7,25.9c0.4,1,1.6,1.7,1.6,2.9c-1.5-0.8-2.7-2.2-4.6-2.1c-0.2,0-0.5-0.1-0.7-0.1
		C13.1,25.4,14.5,26.1,15.7,25.9z"/>
	<path class="st37" d="M41.2,18.5c0.2,0.5,0.5,1,0.7,1.5c1.3,2.9-0.7,2.4-2.3,2.4c-2.4,0.1-0.2,1.4-0.5,2.1c0.2,2.7-1.4,2-2.8,1.4
		c-1.7-0.7-2.8-2.3-4.3-3.4c-1.2-1.9-3.7-1.4-5.2-2.8c-0.2-0.5,0.8-1.2-0.4-1.5c-0.4-0.2-0.8-0.5-1.1-0.8c-1.6-1.2-3.3-1.3-5.1-0.5
		c-1.6-1-3.5-0.7-5.3-0.7c1.6-1.9,4.1-2.2,5.9-3.7c2.7,0.4,5-1.6,7.6-1.5c0,0.2,0,0.5,0,0.7c-0.7,2.7,0.7,4,4.6,4.2
		c2.2,1.5,4.7,2.4,7.4,2.6c0,0,0.1-0.1,0.1-0.1C40.8,18.4,41,18.5,41.2,18.5z"/>
	<path class="st38" d="M13.5,23.7c-0.5-0.3-1-0.5-1.4-0.8c-0.2-0.1-0.3-0.3-0.2-0.4c0-0.2,0.1-0.2,0.1-0.2c0.2-0.6,4-0.4,0.5-2
		c-0.5-0.2-0.8-1.2-1.1-1.8c0.2,0,0.5,0,0.7,0c3.1,0.4,6.1,1,9-0.8l0,0c1.4-0.4,2.2,0,2.4,1.5c-1,1.4-2.4,1.7-4,1.5
		c-1.4,0.1-2.2,1.1-3,2.2C15.7,23.8,14.8,24.4,13.5,23.7z"/>
	<path class="st23" d="M23.3,19.2c-0.8-0.5-1.5-1-2.3-1.5c-0.2-0.2-0.5-0.5-0.7-0.7c2-2.9,4-1.5,6,0c-0.3,0.4-0.8,0.5-1.1,0.8
		c0.6-0.1,1.3,0.5,1.9,0c0.5,0.4,1.1,0.8,1.6,1.2c-0.5,0.1-1.1,0.2-1.6,0.3c-0.4,0.5-1,0.7-1.6,0.8C24.6,20,23.8,19.9,23.3,19.2z"/>
	<path class="st23" d="M21,17.7c-2.8,2.4-5.9,1.8-9,0.8C15,18.2,18.1,18.7,21,17.7z"/>
	<path class="st39" d="M12,22.2c0,0.2,0.1,0.4,0.1,0.7c-0.7,1.1-1.4,0.4-2.2,0.1c-0.1-0.9-0.2-1.7,0.6-2.3
		C11,21.1,11.5,21.7,12,22.2z"/>
	<path class="st40" d="M40.4,18.5c-3,1-5.5,0.2-7.4-2.3c-0.7,0.2-0.9-0.1-0.7-0.8c0.2-0.9-1.2-2,0-2.6c0.5-0.3,2,0.3,2.2,0.9
		C35.7,16.3,38.5,16.8,40.4,18.5z"/>
	<path class="st41" d="M32.3,15.4c0.2,0.3,0.5,0.5,0.7,0.8c-0.1,1.1-0.5,1.6-1.7,0.9c-0.9-0.6-1.9-1-2.8-1.7
		c-0.9-0.6-2.5-0.3-2.6-1.6c-0.1-1.6,2-1.1,2.6-2.1c0.9,0.1,2.1-0.3,1.9,1.3C30.3,14.4,31.3,14.9,32.3,15.4z"/>
	<path class="st42" d="M39.1,21.5c0.9-0.6,3.2,1.5,2.9-1.5c2.1,0.9,2.1,2.6,1.5,4.4c-0.5,0-1,0-1.4,0.1
		C40.7,23.8,38.9,23.6,39.1,21.5z"/>
	<path class="st43" d="M33.7,31.9c-1.7-2.2,0-4.5,0-6.7c1.4-0.5,1.9,0.5,2.7,1.3c0.4,1,0.5,2,0.4,3.1C35.5,30,35.4,32,33.7,31.9z"/>
	<path class="st44" d="M39.1,21.5c0.4,1.6,3,1,3,2.9c-0.1,0.9-0.5,1.4-1.5,1.5c-1-0.1-1.4-1.1-2.3-1.6c-0.4-0.9-1.9-1.5-1.1-2.8
		C37.7,20.7,38.4,21.2,39.1,21.5z"/>
	<path class="st45" d="M38.3,24.4c1.1,0,1.8,0.6,2.3,1.6c0,0.2,0,0.5-0.1,0.7c-1.5,0.5-3,0.6-4.5,0c-0.7-0.5-1.5-1-2.2-1.5
		c-0.7-0.8-1.5-1.5-2.2-2.3c-0.2-0.7,0-0.9,0.7-0.8c1.8,1.1,3.4,2.4,5.3,3.4C38.9,26.2,38.4,25,38.3,24.4z"/>
	<path class="st44" d="M36,26.7c1.5,0,3,0,4.5,0c-1.4,0.8-3,1.3-3.7,2.9C36.2,28.7,35.9,27.8,36,26.7z"/>
	<path class="st46" d="M32.3,22.1c-0.2,0.3-0.5,0.5-0.7,0.8c-2.5-3-5.6,0.3-8.3-0.8c-0.1-1.7,1.7-1.8,2.3-2.9c0.5,0,1,0,1.5,0
		C28.6,20.4,31.4,19.6,32.3,22.1z"/>
	<path class="st47" d="M25.5,19.2c1,2.3-1.9,1.7-2.3,2.9c-1.2-0.8-3.6,1.8-3.8-1.5c1.3-0.5,2.5-1,3.8-1.5
		C24,19.2,24.7,19.2,25.5,19.2z"/>
	<path class="st48" d="M13.5,23.7c1-0.3,2-0.6,2.9-0.8c0.5,0.1,1.1,0,1.4,0.3c0.6,0.6-0.1,0.7-0.5,0.9c-1.2,0.7-2.5,0.6-3.8,0.3
		c-0.1,0-0.2-0.2-0.2-0.3C13.4,23.9,13.5,23.8,13.5,23.7z"/>
	<path class="st49" d="M27,17.7c-1.4,1.4-2.6,0.6-4-0.2c1.2-0.9,2.3-0.4,3.2-0.5C26.5,17.2,26.8,17.4,27,17.7z"/>
</g>
<g>
</g>
<g>
</g>
<g>
</g>
<g>
</g>
<g>
</g>
<g>
</g>
</svg>
