<?xml version="1.0" encoding="utf-8"?>
<!-- Generator: Adobe Illustrator 18.1.1, SVG Export Plug-In . SVG Version: 6.00 Build 0)  -->
<!DOCTYPE svg PUBLIC "-//W3C//DTD SVG 1.1//EN" "http://www.w3.org/Graphics/SVG/1.1/DTD/svg11.dtd">
<svg version="1.1" id="Layer_1" xmlns="http://www.w3.org/2000/svg" xmlns:xlink="http://www.w3.org/1999/xlink" x="0px" y="0px"
	 viewBox="0 0 34 62" style="enable-background:new 0 0 34 62;" xml:space="preserve">
<style type="text/css">
	.st0{fill:#F2EBDD;}
	.st1{fill:#E0E2CA;}
	.st2{fill:#667C69;}
	.st3{fill:#385637;}
	.st4{fill:#586E5C;}
	.st5{fill:#DED6C4;}
	.st6{fill:#ECE4D2;}
	.st7{fill:#536D52;}
	.st8{fill:#B3BFB0;}
	.st9{fill:#CFC7AE;}
	.st10{fill:#3F5941;}
	.st11{fill:#586F55;}
	.st12{fill:#728474;}
	.st13{fill:#D1C4AA;}
	.st14{fill:#71896F;}
	.st15{fill:#6C8872;}
	.st16{fill:#F5EFE0;}
	.st17{fill:#AB9E89;}
	.st18{fill:#3A4D31;}
	.st19{fill:#6D806E;}
	.st20{fill:#748C74;}
</style>
<g>
	<path class="st0" d="M26.7,7.2c-0.3,2.6-0.3,5,0.9,7.5c0.9,1.9,1.1,4-0.2,6c-0.8,0.4-0.4-3.3-1.9-0.5c-0.5,1-1.1,2-2.3,2.1
		c-1.3-2.4-1.8,0.8-2.8,0.5c-1.4,0.4-2.8,0.8-4.3,0.5c-2.6-1.8-1.9-4.6-2.3-7c0-1.3,0.5-2.5,0.8-3.8c0.3-0.9,0.9-1.6,1.8-2.2
		c2.1-1,3.5-2.9,5.6-3.8C23.7,6.1,25.3,5.9,26.7,7.2z"/>
	<path class="st1" d="M14.6,16.2c0.4,2.3,0.2,4.7,1.6,6.7c1.3,0.7,1.6,1.7,0.8,3c-1.2,0.9-2.3,0.3-3.5-0.1c-2.6-1.8-3.6-4.3-3.5-7.4
		c0.1-0.6,0.5-1.1,0.9-1.6c-0.6-0.8-0.3-1.5,0.1-2.3C13.5,12.3,13.6,15.3,14.6,16.2z"/>
	<path class="st2" d="M17.8,44.6c2.3,3,4.5,6,6.8,9c0.2,0.9-0.2,1.3-1.1,1.1c-2.5-2.9-5.7-3.2-9.6-2.3c0.9-2.7,6.2-3,3.2-6.9
		C17.2,45.1,17.3,44.6,17.8,44.6z"/>
	<path class="st3" d="M10.9,18.5c-0.1,2.7,1.2,4.9,3,6.8c0.6,0.3,1.1,0.8,0.7,1.4c-0.3,0.6-1,0.5-1.6,0.2c-0.4,0-0.9-0.1-1.3-0.1
		c-1.9-0.5-4-0.6-4.5-3c-0.7-0.7-1.5-1.5-2.2-2.2c-0.5-0.7-0.5-1.3,0.3-1.7c0.7,0,1.3,0.2,2,0.4c1.8,0.6,1.7-1.5,2.8-1.9
		C10.4,18.1,10.7,18.2,10.9,18.5z"/>
	<path class="st4" d="M17.8,44.6c-0.2,0.3-0.5,0.6-0.7,0.9c-1.2-2-2.6-4-2.4-6.5c-0.4-2.1-0.4-4.2,0-6.3c-0.1-0.1-0.1-0.3,0-0.4
		c-0.4-0.7-0.3-1.5-0.2-2.2c1.6-0.9,1.3,0.7,1.8,1.3C15.6,35.8,17.2,40.1,17.8,44.6z"/>
	<path class="st5" d="M26.7,7.2c-1.8,0-3.5,0-5.3,0c-1.3,0.7-2.5,1.2-3.8,0c0.9-1.6,2.2-2.8,3.8-3.7c0.3-0.3,0.7-0.4,1-0.3
		c0.7,0.3,0.7,0.9,0.2,1.5c0,0,0.4-0.1,0.5-0.2c0.6-0.2,1.2-0.3,1.8-0.1c0.4,0.1,0.7,0.3,0.9,0.6C27.5,5.3,27.9,6,26.7,7.2z"/>
	<path class="st6" d="M22.9,22.2c1.9-1.4,2-4.1,3.8-5.9c1.1,1.5,0.5,3,0.7,4.4c-0.5,1.3-1.1,2.6-1.6,3.9c-0.4,0.3-0.9,0.6-1.5,0.6
		c-1.8-0.1-3.1-0.6-1.9-2.7C22.6,22.4,22.8,22.3,22.9,22.2z"/>
	<path class="st7" d="M7.2,23.7c1.5,1,3,2,4.5,3c-2.2,0.6-4.4,1.2-6.5,2.5C4.4,26.7,6.6,25.5,7.2,23.7z"/>
	<path class="st8" d="M10.9,18.5c-0.3,0-0.5,0-0.8,0c-1.6,0.2-0.6,3.4-3.1,2.5c-0.5-0.3-1.1-0.5-1.6-0.8c-0.2-0.3-0.2-0.6,0.1-0.8
		c4.2-0.3,0-3.1,1.3-4.4c1.7-0.2,2.2,2.4,4,2C10.9,17.4,10.9,17.9,10.9,18.5z"/>
	<path class="st9" d="M17.7,7.2c1.3,0,2.5,0,3.8,0c-1,1.8-2.6,3-4.5,3.7c-0.7-0.5-1.7,0.2-2.2-0.7C15.4,8.9,16.4,8,17.7,7.2z"/>
	<path class="st10" d="M16.2,31.2c-0.4-0.5-0.9-1.1-1.3-1.6c-0.6-2,0.3-3,2.2-3.4c1.5-0.5,2.8-0.3,3.8,1.1c0.1,0.4,0.1,0.8-0.2,1.1
		C18,27.6,17.3,29.7,16.2,31.2z"/>
	<path class="st11" d="M24.7,24.6c0.4,0,0.8,0,1.1,0c0.2,1.4,2.2,1.2,2.4,2.6c0.2,0.2,0.3,0.4,0.3,0.6c0,0.2-0.1,0.3-0.1,0.3
		c-1.3,0.4-2.6,0.1-3.9,0.4c-1-0.5-2.4-0.1-3.3-1.1C21.5,25.3,23.3,25.2,24.7,24.6z"/>
	<path class="st12" d="M23.4,54.6c0.4-0.4,0.7-0.7,1.1-1.1c1.7,0.8,3.2,1.8,4.4,3.2c0,0.7,0.2,1.4-0.8,1.7c-1.2-0.8-2.5-1.6-3.7-2.4
		C24.1,55.5,23.8,55.1,23.4,54.6z"/>
	<path class="st13" d="M14.6,16.2c-0.5,0.2-1.4,0.7-1.4-0.3c0-2-1.3-1.3-2.2-1.3c-0.1-1.5,1-2.2,2-3.1c0.8,0.2,1.7,0.3,2.4,0.9
		C15.2,13.7,14.9,15,14.6,16.2z"/>
	<path class="st14" d="M17,26.7c-1.5,0.4-1.8,1.7-2.1,3c-0.1,0.8-0.2,1.7-0.3,2.5c-0.5-1.8-1-3.5-1.6-5.3c1-0.1,1.5-0.5,0.9-1.6
		c1,0.2,2,0.5,3,0.7c0.1,0.1,0.2,0.2,0.3,0.3C17.1,26.4,17.1,26.5,17,26.7z"/>
	<path class="st15" d="M24.4,28.1c1.3-0.6,2.5-0.9,3.8,0.2c0.8,0.2,1.2,0.6,0.8,1.5c-1.9-1.4-4.2,0.9-6-0.7
		C22.7,27.7,23.4,27.8,24.4,28.1z"/>
	<path class="st16" d="M25.9,4.9c-0.2,0-0.5,0-0.7,0c-1.4-0.1-3.4,1.1-3.8-1.5C23.5,2.2,25.2,2.1,25.9,4.9z"/>
	<path class="st17" d="M15.4,12.5c-1.1,0.5-2.1,0.9-2.4-0.9c0.5-0.5,1.1-0.9,1.6-1.4c0.8,0.1,1.7-0.2,2.2,0.7
		C16.4,11.5,15.9,12,15.4,12.5z"/>
	<path class="st18" d="M24.4,28.1c-0.6,0.1-1.2,0.3-1.5,1c-0.8-0.1-1.7,0.3-2.3-0.7c0-0.3,0-0.7,0.1-1c0.2-0.2,0.3-0.3,0.6-0.1
		C22.1,28.2,23.8,26,24.4,28.1z"/>
	<path class="st14" d="M14.6,32.5c0,2.1,0,4.2,0,6.3C13.8,36.8,13.9,34.7,14.6,32.5z"/>
	<path class="st19" d="M5.6,19.3c0,0.3-0.1,0.6-0.1,0.8c-0.2,0.5-0.4,0.9-0.6,1.4c-0.7-0.5-1.6-1-1.2-1.9C4,18.8,4.9,19.1,5.6,19.3z
		"/>
	<path class="st6" d="M16.9,26c0.1-1.1-0.3-2.1-0.7-3c1.4-0.8,2.9-0.7,4.5-0.7c0.1,0.2,0.1,0.3,0.2,0.5C20.1,24.4,19.8,26.7,16.9,26
		L16.9,26z"/>
	<path class="st6" d="M20.7,22.2c0.5-0.8,0.8-1.8,1.9-1.6c0.2,0,0.2,1,0.3,1.6l0,0C22.2,22.8,21.4,22.9,20.7,22.2L20.7,22.2z"/>
	<path class="st20" d="M7.1,20.9c1.1-0.2,1.6-0.8,1.6-2c0.1-1.3,0.9-0.7,1.5-0.5C8.6,18.6,11.2,24,7.1,20.9z"/>
	<path class="st1" d="M20.7,22.2c0.7,0,1.5,0,2.2,0c-0.6,1.7,0,2.5,1.8,2.4c-0.8,1.4-2.3,1.8-3.5,2.7l-0.3,0l-0.3,0.1
		c-1.1-0.9-2.5-0.4-3.7-0.8c0-0.2-0.1-0.5-0.1-0.7C19.4,26,19,23,20.7,22.2z"/>
</g>
<g>
</g>
<g>
</g>
<g>
</g>
<g>
</g>
<g>
</g>
<g>
</g>
</svg>
